Fira Sans-SemiLight.ufo
<glyph name="numbersign" format="1">
  <advance width="491"/>
  <unicode hex="0023"/>
  <outline>
    <contour>
      <point x="389" y="662" type="line"/>
      <point x="301" y="0" type="line"/>
      <point x="335" y="0" type="line"/>
      <point x="423" y="662" type="line"/>
    </contour>
    <contour>
      <point x="15" y="222" type="line"/>
      <point x="15" y="194" type="line"/>
      <point x="439" y="194" type="line"/>
      <point x="439" y="222" type="line"/>
    </contour>
    <contour>
      <point x="156" y="662" type="line"/>
      <point x="68" y="0" type="line"/>
      <point x="101" y="0" type="line"/>
      <point x="189" y="662" type="line"/>
    </contour>
    <contour>
      <point x="52" y="484" type="line"/>
      <point x="52" y="456" type="line"/>
      <point x="476" y="456" type="line"/>
      <point x="476" y="484" type="line"/>
    </contour>
  </outline>
</glyph>
<glyph name="ampersand" format="1">
  <advance width="727"/>
  <unicode hex="0026"/>
  <outline>
    <contour>
      <point x="208" y="692"/>
      <point x="142" y="627"/>
      <point x="142" y="542" type="curve" smooth="yes"/>
      <point x="142" y="472"/>
      <point x="176" y="433"/>
      <point x="245" y="367" type="curve"/>
      <point x="154" y="316"/>
      <point x="98" y="261"/>
      <point x="98" y="168" type="curve" smooth="yes"/>
      <point x="98" y="61"/>
      <point x="187" y="-10"/>
      <point x="296" y="-10" type="curve" smooth="yes"/>
      <point x="408" y="-10"/>
      <point x="472" y="39"/>
      <point x="522" y="104" type="curve"/>
      <point x="646" y="-10" type="line"/>
      <point x="671" y="7" type="line"/>
      <point x="537" y="130" type="line"/>
      <point x="574" y="194"/>
      <point x="600" y="263"/>
      <point x="618" y="348" type="curve"/>
      <point x="589" y="357" type="line"/>
      <point x="572" y="276"/>
      <point x="550" y="214"/>
      <point x="518" y="149" type="curve"/>
      <point x="290" y="362" type="line"/>
      <point x="400" y="422"/>
      <point x="453" y="470"/>
      <point x="453" y="547" type="curve" smooth="yes"/>
      <point x="453" y="633"/>
      <point x="390" y="692"/>
      <point x="300" y="692" type="curve" smooth="yes"/>
    </contour>
    <contour>
      <point x="501" y="123" type="line"/>
      <point x="453" y="59"/>
      <point x="395" y="18"/>
      <point x="296" y="18" type="curve" smooth="yes"/>
      <point x="200" y="18"/>
      <point x="129" y="81"/>
      <point x="129" y="168" type="curve" smooth="yes"/>
      <point x="129" y="247"/>
      <point x="178" y="300"/>
      <point x="265" y="349" type="curve"/>
    </contour>
    <contour>
      <point x="367" y="665"/>
      <point x="422" y="624"/>
      <point x="422" y="547" type="curve" smooth="yes"/>
      <point x="422" y="481"/>
      <point x="375" y="435"/>
      <point x="270" y="381" type="curve"/>
      <point x="181" y="466"/>
      <point x="173" y="494"/>
      <point x="173" y="543" type="curve" smooth="yes"/>
      <point x="173" y="609"/>
      <point x="222" y="665"/>
      <point x="300" y="665" type="curve" smooth="yes"/>
    </contour>
  </outline>
</glyph>
<glyph name="parenleft" format="1">
  <advance width="324"/>
  <unicode hex="0028"/>
  <outline>
    <contour>
      <point x="143" y="696"/>
      <point x="65" y="579"/>
      <point x="65" y="350" type="curve"/>
      <point x="65" y="121"/>
      <point x="143" y="4"/>
      <point x="239" y="-131" type="curve"/>
      <point x="259" y="-119" type="line"/>
      <point x="170" y="12"/>
      <point x="95" y="130"/>
      <point x="95" y="350" type="curve"/>
      <point x="95" y="570"/>
      <point x="170" y="688"/>
      <point x="259" y="819" type="curve"/>
      <point x="239" y="831" type="line"/>
    </contour>
  </outline>
</glyph>
<glyph name="parenright" format="1">
  <advance width="324"/>
  <unicode hex="0029"/>
  <outline>
    <contour>
      <point x="65" y="819" type="line"/>
      <point x="154" y="688"/>
      <point x="229" y="570"/>
      <point x="229" y="350" type="curve"/>
      <point x="229" y="130"/>
      <point x="154" y="12"/>
      <point x="65" y="-119" type="curve"/>
      <point x="85" y="-131" type="line"/>
      <point x="181" y="4"/>
      <point x="259" y="121"/>
      <point x="259" y="350" type="curve"/>
      <point x="259" y="579"/>
      <point x="181" y="696"/>
      <point x="85" y="831" type="curve"/>
    </contour>
  </outline>
</glyph>
<glyph name="six" format="1">
  <advance width="516"/>
  <unicode hex="0036"/>
  <outline>
    <contour>
      <point x="163" y="674"/>
      <point x="75" y="531"/>
      <point x="75" y="289" type="curve" smooth="yes"/>
      <point x="75" y="127"/>
      <point x="127" y="-10"/>
      <point x="275" y="-10" type="curve" smooth="yes"/>
      <point x="381" y="-10"/>
      <point x="456" y="75"/>
      <point x="456" y="222" type="curve" smooth="yes"/>
      <point x="456" y="363"/>
      <point x="380" y="428"/>
      <point x="286" y="428" type="curve" smooth="yes"/>
      <point x="201" y="428"/>
      <point x="142" y="377"/>
      <point x="102" y="312" type="curve"/>
      <point x="101" y="266" type="line"/>
      <point x="142" y="346"/>
      <point x="205" y="400"/>
      <point x="285" y="400" type="curve" smooth="yes"/>
      <point x="365" y="400"/>
      <point x="425" y="344"/>
      <point x="425" y="221" type="curve" smooth="yes"/>
      <point x="425" y="105"/>
      <point x="374" y="18"/>
      <point x="275" y="18" type="curve" smooth="yes"/>
      <point x="150" y="18"/>
      <point x="106" y="134"/>
      <point x="106" y="293" type="curve"/>
      <point x="106" y="308" type="line"/>
      <point x="108" y="500"/>
      <point x="177" y="646"/>
      <point x="303" y="646" type="curve"/>
      <point x="342" y="646"/>
      <point x="370" y="635"/>
      <point x="400" y="613" type="curve"/>
      <point x="417" y="636" type="line"/>
      <point x="385" y="659"/>
      <point x="352" y="674"/>
      <point x="304" y="674" type="curve"/>
    </contour>
  </outline>
</glyph>
<glyph name="less" format="1">
  <advance width="494"/>
  <unicode hex="003C"/>
  <outline>
    <contour>
      <point x="75" y="344" type="line"/>
      <point x="75" y="322" type="line"/>
      <point x="407" y="152" type="line"/>
      <point x="419" y="178" type="line"/>
      <point x="109" y="333" type="line"/>
      <point x="419" y="484" type="line"/>
      <point x="407" y="510" type="line"/>
    </contour>
  </outline>
</glyph>
<glyph name="at" format="1">
  <advance width="1020"/>
  <unicode hex="0040"/>
  <outline>
    <contour>
      <point x="269" y="692"/>
      <point x="97" y="486"/>
      <point x="97" y="244" type="curve" smooth="yes"/>
      <point x="97" y="-35"/>
      <point x="278" y="-199"/>
      <point x="524" y="-199" type="curve" smooth="yes"/>
      <point x="612" y="-199"/>
      <point x="664" y="-184"/>
      <point x="719" y="-165" type="curve"/>
      <point x="711" y="-138" type="line"/>
      <point x="656" y="-159"/>
      <point x="601" y="-171"/>
      <point x="525" y="-171" type="curve" smooth="yes"/>
      <point x="292" y="-171"/>
      <point x="128" y="-15"/>
      <point x="128" y="244" type="curve" smooth="yes"/>
      <point x="128" y="469"/>
      <point x="289" y="664"/>
      <point x="526" y="664" type="curve" smooth="yes"/>
      <point x="762" y="664"/>
      <point x="892" y="501"/>
      <point x="892" y="307" type="curve" smooth="yes"/>
      <point x="892" y="97"/>
      <point x="822" y="41"/>
      <point x="755" y="41" type="curve" smooth="yes"/>
      <point x="697" y="41"/>
      <point x="660" y="89"/>
      <point x="660" y="187" type="curve"/>
      <point x="635" y="159" type="line"/>
      <point x="639" y="72"/>
      <point x="685" y="15"/>
      <point x="755" y="15" type="curve" smooth="yes"/>
      <point x="833" y="15"/>
      <point x="923" y="80"/>
      <point x="923" y="309" type="curve" smooth="yes"/>
      <point x="923" y="512"/>
      <point x="789" y="692"/>
      <point x="526" y="692" type="curve" smooth="yes"/>
    </contour>
    <contour>
      <point x="414" y="478"/>
      <point x="323" y="402"/>
      <point x="323" y="232" type="curve" smooth="yes"/>
      <point x="323" y="88"/>
      <point x="400" y="17"/>
      <point x="487" y="17" type="curve" smooth="yes"/>
      <point x="561" y="17"/>
      <point x="612" y="61"/>
      <point x="644" y="142" type="curve"/>
      <point x="631" y="173" type="line"/>
      <point x="613" y="104"/>
      <point x="559" y="45"/>
      <point x="489" y="45" type="curve" smooth="yes"/>
      <point x="411" y="45"/>
      <point x="354" y="107"/>
      <point x="354" y="232" type="curve" smooth="yes"/>
      <point x="354" y="370"/>
      <point x="421" y="450"/>
      <point x="525" y="450" type="curve" smooth="yes"/>
      <point x="565" y="450"/>
      <point x="596" y="441"/>
      <point x="630" y="425" type="curve"/>
      <point x="630" y="161" type="line"/>
      <point x="644" y="132" type="line"/>
      <point x="660" y="172" type="line"/>
      <point x="660" y="444" type="line"/>
      <point x="623" y="462"/>
      <point x="575" y="478"/>
      <point x="524" y="478" type="curve" smooth="yes"/>
    </contour>
  </outline>
</glyph>
<glyph name="A" format="1">
  <advance width="558"/>
  <unicode hex="0041"/>
  <outline>
    <contour>
      <point x="260" y="682" type="line"/>
      <point x="25" y="0" type="line"/>
      <point x="56" y="0" type="line"/>
      <point x="279" y="657" type="line"/>
      <point x="500" y="0" type="line"/>
      <point x="533" y="0" type="line"/>
      <point x="298" y="682" type="line"/>
    </contour>
    <contour>
      <point x="123" y="228" type="line"/>
      <point x="112" y="199" type="line"/>
      <point x="444" y="199" type="line"/>
      <point x="434" y="228" type="line"/>
    </contour>
    <contour>
      <point x="543" y="0" type="move" name="ogonek"/>
    </contour>
    <contour>
      <point x="279" y="682" type="move" name="top"/>
    </contour>
    <contour>
      <point x="170" y="682" type="move" name="topleft"/>
    </contour>
  </outline>
</glyph>
<glyph name="B" format="1">
  <advance width="589"/>
  <unicode hex="0042"/>
  <outline>
    <contour>
      <point x="120" y="682" type="line"/>
      <point x="120" y="0" type="line"/>
      <point x="304" y="0" type="line" smooth="yes"/>
      <point x="447" y="0"/>
      <point x="529" y="67"/>
      <point x="529" y="185" type="curve" smooth="yes"/>
      <point x="529" y="304"/>
      <point x="457" y="357"/>
      <point x="372" y="362" type="curve"/>
      <point x="447" y="375"/>
      <point x="495" y="422"/>
      <point x="495" y="513" type="curve" smooth="yes"/>
      <point x="495" y="626"/>
      <point x="410" y="682"/>
      <point x="264" y="682" type="curve" smooth="yes"/>
    </contour>
    <contour>
      <point x="393" y="653"/>
      <point x="463" y="609"/>
      <point x="463" y="512" type="curve" smooth="yes"/>
      <point x="463" y="426"/>
      <point x="405" y="374"/>
      <point x="317" y="374" type="curve" smooth="yes"/>
      <point x="144" y="374" type="line"/>
      <point x="144" y="346" type="line"/>
      <point x="322" y="346" type="line" smooth="yes"/>
      <point x="424" y="346"/>
      <point x="497" y="295"/>
      <point x="497" y="185" type="curve" smooth="yes"/>
      <point x="497" y="81"/>
      <point x="425" y="29"/>
      <point x="305" y="29" type="curve" smooth="yes"/>
      <point x="151" y="29" type="line"/>
      <point x="151" y="653" type="line"/>
      <point x="268" y="653" type="line" smooth="yes"/>
    </contour>
  </outline>
</glyph>
<glyph name="C" format="1">
  <advance width="542"/>
  <unicode hex="0043"/>
  <outline>
    <contour>
      <point x="196" y="692"/>
      <point x="75" y="577"/>
      <point x="75" y="341" type="curve" smooth="yes"/>
      <point x="75" y="112"/>
      <point x="190" y="-10"/>
      <point x="342" y="-10" type="curve" smooth="yes"/>
      <point x="420" y="-10"/>
      <point x="473" y="17"/>
      <point x="517" y="55" type="curve"/>
      <point x="498" y="78" type="line"/>
      <point x="457" y="44"/>
      <point x="418" y="20"/>
      <point x="343" y="20" type="curve" smooth="yes"/>
      <point x="212" y="20"/>
      <point x="107" y="126"/>
      <point x="107" y="341" type="curve" smooth="yes"/>
      <point x="107" y="568"/>
      <point x="215" y="663"/>
      <point x="347" y="663" type="curve" smooth="yes"/>
      <point x="409" y="663"/>
      <point x="445" y="647"/>
      <point x="492" y="611" type="curve"/>
      <point x="509" y="633" type="line"/>
      <point x="465" y="669"/>
      <point x="420" y="692"/>
      <point x="345" y="692" type="curve" smooth="yes"/>
    </contour>
    <contour>
      <point x="342" y="682" type="move" name="top"/>
    </contour>
    <contour>
      <point x="341" y="0" type="move" name="bottom"/>
    </contour>
  </outline>
</glyph>
<glyph name="D" format="1">
  <advance width="622"/>
  <unicode hex="0044"/>
  <outline>
    <contour>
      <point x="120" y="682" type="line"/>
      <point x="120" y="0" type="line"/>
      <point x="252" y="0" type="line" smooth="yes"/>
      <point x="386" y="0"/>
      <point x="547" y="61"/>
      <point x="547" y="348" type="curve" smooth="yes"/>
      <point x="547" y="627"/>
      <point x="395" y="682"/>
      <point x="249" y="682" type="curve" smooth="yes"/>
    </contour>
    <contour>
      <point x="375" y="653"/>
      <point x="515" y="614"/>
      <point x="515" y="348" type="curve" smooth="yes"/>
      <point x="515" y="87"/>
      <point x="380" y="29"/>
      <point x="253" y="29" type="curve" smooth="yes"/>
      <point x="151" y="29" type="line"/>
      <point x="151" y="653" type="line"/>
      <point x="246" y="653" type="line" smooth="yes"/>
    </contour>
    <contour>
      <point x="317" y="341" type="move" name="center"/>
    </contour>
    <contour>
      <point x="297" y="682" type="move" name="top"/>
    </contour>
  </outline>
</glyph>
<glyph name="E" format="1">
  <advance width="493"/>
  <unicode hex="0045"/>
  <outline>
    <contour>
      <point x="120" y="682" type="line"/>
      <point x="120" y="0" type="line"/>
      <point x="453" y="0" type="line"/>
      <point x="453" y="29" type="line"/>
      <point x="151" y="29" type="line"/>
      <point x="151" y="345" type="line"/>
      <point x="403" y="345" type="line"/>
      <point x="403" y="373" type="line"/>
      <point x="151" y="373" type="line"/>
      <point x="151" y="653" type="line"/>
      <point x="443" y="653" type="line"/>
      <point x="447" y="682" type="line"/>
    </contour>
    <contour>
      <point x="438" y="0" type="move" name="ogonek"/>
    </contour>
    <contour>
      <point x="288" y="682" type="move" name="top"/>
    </contour>
    <contour>
      <point x="90" y="682" type="move" name="topleft"/>
    </contour>
    <contour>
      <point x="283" y="0" type="move" name="bottom"/>
    </contour>
  </outline>
</glyph>
<glyph name="H" format="1">
  <advance width="662"/>
  <unicode hex="0048"/>
  <outline>
    <contour>
      <point x="542" y="0" type="line"/>
      <point x="542" y="682" type="line"/>
      <point x="511" y="682" type="line"/>
      <point x="511" y="374" type="line"/>
      <point x="151" y="374" type="line"/>
      <point x="151" y="682" type="line"/>
      <point x="120" y="682" type="line"/>
      <point x="120" y="0" type="line"/>
      <point x="151" y="0" type="line"/>
      <point x="151" y="345" type="line"/>
      <point x="511" y="345" type="line"/>
      <point x="511" y="0" type="line"/>
    </contour>
    <contour>
      <point x="329" y="682" type="move" name="top"/>
    </contour>
    <contour>
      <point x="90" y="682" type="move" name="topleft"/>
    </contour>
    <contour>
      <point x="552" y="0" type="move" name="bottomright"/>
    </contour>
    <contour>
      <point x="329" y="341" type="move" name="center"/>
    </contour>
  </outline>
</glyph>
<glyph name="J" format="1">
  <advance width="279"/>
  <unicode hex="004A"/>
  <outline>
    <contour>
      <point x="134" y="682" type="line"/>
      <point x="134" y="90" type="line" smooth="yes"/>
      <point x="134" y="-3"/>
      <point x="111" y="-37"/>
      <point x="20" y="-81" type="curve"/>
      <point x="29" y="-104" type="line"/>
      <point x="141" y="-54"/>
      <point x="165" y="-15"/>
      <point x="165" y="88" type="curve" smooth="yes"/>
      <point x="165" y="682" type="line"/>
    </contour>
    <contour>
      <point x="147" y="682" type="move" name="top"/>
    </contour>
  </outline>
</glyph>
<glyph name="L" format="1">
  <advance width="455"/>
  <unicode hex="004C"/>
  <outline>
    <contour>
      <point x="120" y="682" type="line"/>
      <point x="120" y="0" type="line"/>
      <point x="434" y="0" type="line"/>
      <point x="440" y="30" type="line"/>
      <point x="151" y="30" type="line"/>
      <point x="151" y="682" type="line"/>
    </contour>
    <contour>
      <point x="281" y="0" type="move" name="bottom"/>
    </contour>
    <contour>
      <point x="136" y="682" type="move" name="top"/>
    </contour>
    <contour>
      <point x="191" y="682" type="move" name="topright"/>
    </contour>
    <contour>
      <point x="352" y="354" type="move" name="center"/>
    </contour>
  </outline>
</glyph>
<glyph name="M" format="1">
  <advance width="764"/>
  <unicode hex="004D"/>
  <outline>
    <contour>
      <point x="569" y="682" type="line"/>
      <point x="382" y="121" type="line"/>
      <point x="192" y="682" type="line"/>
      <point x="146" y="682" type="line"/>
      <point x="75" y="0" type="line"/>
      <point x="105" y="0" type="line"/>
      <point x="140" y="351" type="line"/>
      <point x="151" y="459"/>
      <point x="167" y="597"/>
      <point x="171" y="655" type="curve"/>
      <point x="367" y="83" type="line"/>
      <point x="397" y="83" type="line"/>
      <point x="589" y="655" type="line"/>
      <point x="595" y="588"/>
      <point x="609" y="454"/>
      <point x="621" y="342" type="curve" smooth="yes"/>
      <point x="659" y="0" type="line"/>
      <point x="689" y="0" type="line"/>
      <point x="616" y="682" type="line"/>
    </contour>
  </outline>
</glyph>
<glyph name="N" format="1">
  <advance width="664"/>
  <unicode hex="004E"/>
  <outline>
    <contour>
      <point x="514" y="682" type="line"/>
      <point x="514" y="232" type="line"/>
      <point x="514" y="140"/>
      <point x="516" y="75"/>
      <point x="518" y="35" type="curve"/>
      <point x="159" y="682" type="line"/>
      <point x="120" y="682" type="line"/>
      <point x="120" y="0" type="line"/>
      <point x="150" y="0" type="line"/>
      <point x="150" y="438" type="line"/>
      <point x="150" y="557"/>
      <point x="149" y="608"/>
      <point x="146" y="647" type="curve"/>
      <point x="506" y="0" type="line"/>
      <point x="544" y="0" type="line"/>
      <point x="544" y="682" type="line"/>
    </contour>
    <contour>
      <point x="339" y="682" type="move" name="top"/>
    </contour>
    <contour>
      <point x="332" y="0" type="move" name="bottom"/>
    </contour>
  </outline>
</glyph>
<glyph name="P" format="1">
  <advance width="561"/>
  <unicode hex="0050"/>
  <outline>
    <contour>
      <point x="151" y="653" type="line"/>
      <point x="264" y="653" type="line" smooth="yes"/>
      <point x="399" y="653"/>
      <point x="474" y="609"/>
      <point x="474" y="482" type="curve" smooth="yes"/>
      <point x="474" y="348"/>
      <point x="385" y="307"/>
      <point x="262" y="307" type="curve" smooth="yes"/>
      <point x="144" y="307" type="line"/>
      <point x="144" y="278" type="line"/>
      <point x="259" y="278" type="line" smooth="yes"/>
      <point x="404" y="278"/>
      <point x="506" y="333"/>
      <point x="506" y="483" type="curve" smooth="yes"/>
      <point x="506" y="623"/>
      <point x="418" y="682"/>
      <point x="264" y="682" type="curve" smooth="yes"/>
      <point x="120" y="682" type="line"/>
      <point x="120" y="0" type="line"/>
      <point x="151" y="0" type="line"/>
    </contour>
  </outline>
</glyph>
<glyph name="Q" format="1">
  <advance width="674"/>
  <unicode hex="0051"/>
  <outline>
    <contour>
      <point x="186" y="692"/>
      <point x="75" y="565"/>
      <point x="75" y="339" type="curve" smooth="yes"/>
      <point x="75" y="114"/>
      <point x="185" y="-8"/>
      <point x="345" y="-8" type="curve" smooth="yes"/>
      <point x="359" y="-8"/>
      <point x="373" y="-7"/>
      <point x="387" y="-5" type="curve"/>
      <point x="429" y="11" type="line"/>
      <point x="533" y="38"/>
      <point x="615" y="136"/>
      <point x="615" y="340" type="curve" smooth="yes"/>
      <point x="615" y="571"/>
      <point x="506" y="692"/>
      <point x="345" y="692" type="curve" smooth="yes"/>
    </contour>
    <contour>
      <point x="345" y="-8" type="line"/>
      <point x="465" y="-8"/>
      <point x="542" y="-22"/>
      <point x="614" y="-84" type="curve"/>
      <point x="635" y="-58" type="line"/>
      <point x="579" y="-7"/>
      <point x="501" y="9"/>
      <point x="429" y="11" type="curve"/>
    </contour>
    <contour>
      <point x="488" y="663"/>
      <point x="583" y="556"/>
      <point x="583" y="340" type="curve" smooth="yes"/>
      <point x="583" y="129"/>
      <point x="493" y="19"/>
      <point x="345" y="19" type="curve" smooth="yes"/>
      <point x="205" y="19"/>
      <point x="107" y="129"/>
      <point x="107" y="339" type="curve" smooth="yes"/>
      <point x="107" y="554"/>
      <point x="204" y="663"/>
      <point x="345" y="663" type="curve"/>
    </contour>
  </outline>
</glyph>
<glyph name="U" format="1">
  <advance width="643"/>
  <unicode hex="0055"/>
  <outline>
    <contour>
      <point x="502" y="682" type="line"/>
      <point x="502" y="211" type="line" smooth="yes"/>
      <point x="502" y="100"/>
      <point x="451" y="19"/>
      <point x="322" y="19" type="curve" smooth="yes"/>
      <point x="194" y="19"/>
      <point x="141" y="97"/>
      <point x="141" y="211" type="curve" smooth="yes"/>
      <point x="141" y="682" type="line"/>
      <point x="110" y="682" type="line"/>
      <point x="110" y="208" type="line" smooth="yes"/>
      <point x="110" y="81"/>
      <point x="173" y="-10"/>
      <point x="322" y="-10" type="curve" smooth="yes"/>
      <point x="469" y="-10"/>
      <point x="533" y="81"/>
      <point x="533" y="208" type="curve" smooth="yes"/>
      <point x="533" y="682" type="line"/>
    </contour>
    <contour>
      <point x="407" y="0" type="move" name="ogonek"/>
    </contour>
    <contour>
      <point x="325" y="682" type="move" name="top"/>
    </contour>
  </outline>
</glyph>
<glyph name="V" format="1">
  <advance width="538"/>
  <unicode hex="0056"/>
  <outline>
    <contour>
      <point x="480" y="682" type="line"/>
      <point x="269" y="29" type="line"/>
      <point x="58" y="682" type="line"/>
      <point x="25" y="682" type="line"/>
      <point x="249" y="0" type="line"/>
      <point x="288" y="0" type="line"/>
      <point x="513" y="682" type="line"/>
    </contour>
  </outline>
</glyph>
<glyph name="c" format="1">
  <advance width="462"/>
  <unicode hex="0063"/>
  <outline>
    <contour>
      <point x="156" y="530"/>
      <point x="70" y="426"/>
      <point x="70" y="257" type="curve" smooth="yes"/>
      <point x="70" y="87"/>
      <point x="157" y="-10"/>
      <point x="286" y="-10" type="curve" smooth="yes"/>
      <point x="343" y="-10"/>
      <point x="390" y="11"/>
      <point x="427" y="44" type="curve"/>
      <point x="410" y="66" type="line"/>
      <point x="376" y="36"/>
      <point x="336" y="18"/>
      <point x="284" y="18" type="curve" smooth="yes"/>
      <point x="179" y="18"/>
      <point x="102" y="98"/>
      <point x="102" y="257" type="curve" smooth="yes"/>
      <point x="102" y="419"/>
      <point x="180" y="502"/>
      <point x="285" y="502" type="curve" smooth="yes"/>
      <point x="336" y="502"/>
      <point x="372" y="487"/>
      <point x="404" y="459" type="curve"/>
      <point x="421" y="480" type="line"/>
      <point x="380" y="515"/>
      <point x="340" y="530"/>
      <point x="284" y="530" type="curve" smooth="yes"/>
    </contour>
    <contour>
      <point x="282" y="520" type="move" name="top"/>
    </contour>
    <contour>
      <point x="283" y="0" type="move" name="bottom"/>
    </contour>
  </outline>
</glyph>
<glyph name="g" format="1">
  <advance width="489"/>
  <unicode hex="0067"/>
  <outline>
    <contour>
      <point x="421" y="538"/>
      <point x="392" y="529"/>
      <point x="244" y="530" type="curve" smooth="yes"/>
      <point x="131" y="530"/>
      <point x="61.9999" y="461"/>
      <point x="61.9999" y="359" type="curve" smooth="yes"/>
      <point x="61.9999" y="287.626"/>
      <point x="90.8388" y="240.44"/>
      <point x="149.414" y="210.262" type="curve"/>
      <point x="114.923" y="189.037"/>
      <point x="91.9999" y="160.839"/>
      <point x="91.9999" y="125" type="curve" smooth="yes"/>
      <point x="91.9999" y="77"/>
      <point x="135" y="39"/>
      <point x="216" y="39" type="curve" smooth="yes"/>
      <point x="302" y="39" type="line" smooth="yes"/>
      <point x="383" y="39"/>
      <point x="430" y="3"/>
      <point x="430" y="-58" type="curve" smooth="yes"/>
      <point x="430" y="-127"/>
      <point x="379" y="-171"/>
      <point x="251" y="-171" type="curve" smooth="yes"/>
      <point x="118" y="-171"/>
      <point x="71.9999" y="-141"/>
      <point x="69.9999" y="-57" type="curve"/>
      <point x="39.9999" y="-57" type="line"/>
      <point x="39.9999" y="-159"/>
      <point x="104" y="-199"/>
      <point x="251" y="-199" type="curve" smooth="yes"/>
      <point x="395" y="-199"/>
      <point x="461" y="-144"/>
      <point x="461" y="-56" type="curve" smooth="yes"/>
      <point x="461" y="17"/>
      <point x="404" y="67"/>
      <point x="304" y="67" type="curve" smooth="yes"/>
      <point x="218" y="67" type="line" smooth="yes"/>
      <point x="148" y="67"/>
      <point x="123" y="94"/>
      <point x="123" y="130" type="curve" smooth="yes"/>
      <point x="123" y="159.119"/>
      <point x="142.466" y="182.788"/>
      <point x="173.841" y="199.633" type="curve"/>
      <point x="193.482" y="192.972"/>
      <point x="217.39" y="189"/>
      <point x="243" y="189" type="curve" smooth="yes"/>
      <point x="355" y="189"/>
      <point x="423" y="255"/>
      <point x="423" y="356" type="curve" smooth="yes"/>
      <point x="423" y="437.055"/>
      <point x="386.519" y="481.63"/>
      <point x="337" y="506.133" type="curve"/>
      <point x="403" y="507"/>
      <point x="445" y="512"/>
      <point x="474" y="520" type="curve"/>
      <point x="464" y="553" type="line"/>
    </contour>
    <contour>
      <point x="345" y="503"/>
      <point x="392" y="442"/>
      <point x="392" y="356" type="curve" smooth="yes"/>
      <point x="392" y="267"/>
      <point x="338" y="216"/>
      <point x="243" y="216" type="curve" smooth="yes"/>
      <point x="157" y="216"/>
      <point x="92.9999" y="264"/>
      <point x="92.9999" y="359" type="curve" smooth="yes"/>
      <point x="92.9999" y="443"/>
      <point x="141" y="503"/>
      <point x="245" y="503" type="curve" smooth="yes"/>
    </contour>
    <contour>
      <point x="248" y="520" type="move" name="top"/>
    </contour>
  </outline>
</glyph>
<glyph name="k" format="1">
  <advance width="469"/>
  <unicode hex="006B"/>
  <outline>
    <contour>
      <point x="392" y="520" type="line"/>
      <point x="151" y="284" type="line"/>
      <point x="417" y="0" type="line"/>
      <point x="454" y="0" type="line"/>
      <point x="189" y="285" type="line"/>
      <point x="430" y="520" type="line"/>
    </contour>
    <contour>
      <point x="115" y="734" type="line"/>
      <point x="115" y="0" type="line"/>
      <point x="145" y="0" type="line"/>
      <point x="145" y="738" type="line"/>
    </contour>
    <contour>
      <point x="268" y="0" type="move" name="bottom"/>
    </contour>
  </outline>
</glyph>
<glyph name="l" format="1">
  <advance width="277"/>
  <unicode hex="006C"/>
  <outline>
    <contour>
      <point x="110" y="734" type="line"/>
      <point x="110" y="78" type="line" smooth="yes"/>
      <point x="110" y="16"/>
      <point x="140" y="-10"/>
      <point x="188" y="-10" type="curve" smooth="yes"/>
      <point x="206" y="-10"/>
      <point x="224" y="-5"/>
      <point x="237" y="1" type="curve"/>
      <point x="228" y="26" type="line"/>
      <point x="216" y="21"/>
      <point x="203" y="18"/>
      <point x="191" y="18" type="curve" smooth="yes"/>
      <point x="154" y="18"/>
      <point x="140" y="37"/>
      <point x="140" y="77" type="curve" smooth="yes"/>
      <point x="140" y="738" type="line"/>
    </contour>
    <contour>
      <point x="260" y="375" type="move" name="center"/>
    </contour>
    <contour>
      <point x="129" y="0" type="move" name="bottom"/>
    </contour>
    <contour>
      <point x="170" y="734" type="move" name="topright"/>
    </contour>
  </outline>
</glyph>
<glyph name="m" format="1">
  <advance width="849"/>
  <unicode hex="006D"/>
  <outline>
    <contour>
      <point x="241" y="530"/>
      <point x="178" y="480"/>
      <point x="136" y="409" type="curve"/>
      <point x="145" y="383" type="line"/>
      <point x="188" y="453"/>
      <point x="243" y="503"/>
      <point x="311" y="503" type="curve" smooth="yes"/>
      <point x="377" y="503"/>
      <point x="412" y="457"/>
      <point x="412" y="366" type="curve" smooth="yes"/>
      <point x="412" y="0" type="line"/>
      <point x="442" y="0" type="line"/>
      <point x="442" y="389" type="line"/>
      <point x="440" y="406" type="line"/>
      <point x="430" y="484"/>
      <point x="385" y="530"/>
      <point x="312" y="530" type="curve" smooth="yes"/>
    </contour>
    <contour>
      <point x="115" y="520" type="line"/>
      <point x="115" y="0" type="line"/>
      <point x="145" y="0" type="line"/>
      <point x="145" y="389" type="line"/>
      <point x="141" y="520" type="line"/>
    </contour>
    <contour>
      <point x="538" y="530"/>
      <point x="475" y="480"/>
      <point x="433" y="409" type="curve"/>
      <point x="442" y="383" type="line"/>
      <point x="485" y="453"/>
      <point x="540" y="503"/>
      <point x="608" y="503" type="curve" smooth="yes"/>
      <point x="673" y="503"/>
      <point x="709" y="457"/>
      <point x="709" y="366" type="curve" smooth="yes"/>
      <point x="709" y="0" type="line"/>
      <point x="739" y="0" type="line"/>
      <point x="739" y="370" type="line" smooth="yes"/>
      <point x="739" y="470"/>
      <point x="692" y="530"/>
      <point x="609" y="530" type="curve" smooth="yes"/>
    </contour>
  </outline>
</glyph>
<glyph name="o" format="1">
  <advance width="561"/>
  <unicode hex="006F"/>
  <outline>
    <contour>
      <point x="154" y="530"/>
      <point x="70" y="431"/>
      <point x="70" y="259" type="curve" smooth="yes"/>
      <point x="70" y="91"/>
      <point x="150" y="-10"/>
      <point x="280" y="-10" type="curve" smooth="yes"/>
      <point x="408" y="-10"/>
      <point x="491" y="89"/>
      <point x="491" y="262" type="curve" smooth="yes"/>
      <point x="491" y="436"/>
      <point x="410" y="530"/>
      <point x="281" y="530" type="curve" smooth="yes"/>
    </contour>
    <contour>
      <point x="393" y="502"/>
      <point x="460" y="418"/>
      <point x="460" y="262" type="curve" smooth="yes"/>
      <point x="460" y="103"/>
      <point x="390" y="18"/>
      <point x="280" y="18" type="curve" smooth="yes"/>
      <point x="169" y="18"/>
      <point x="101" y="105"/>
      <point x="101" y="259" type="curve" smooth="yes"/>
      <point x="101" y="419"/>
      <point x="172" y="502"/>
      <point x="281" y="502" type="curve" smooth="yes"/>
    </contour>
    <contour>
      <point x="281" y="520" type="move" name="top"/>
    </contour>
  </outline>
</glyph>
<glyph name="p" format="1">
  <advance width="570"/>
  <unicode hex="0070"/>
  <outline>
    <contour>
      <point x="232" y="530"/>
      <point x="176" y="488"/>
      <point x="138" y="432" type="curve"/>
      <point x="139" y="398" type="line"/>
      <point x="185" y="460"/>
      <point x="230" y="502"/>
      <point x="309" y="502" type="curve" smooth="yes"/>
      <point x="410" y="502"/>
      <point x="464" y="422"/>
      <point x="464" y="264" type="curve" smooth="yes"/>
      <point x="464" y="105"/>
      <point x="407" y="18"/>
      <point x="302" y="18" type="curve" smooth="yes"/>
      <point x="229" y="18"/>
      <point x="176" y="60"/>
      <point x="139" y="119" type="curve"/>
      <point x="137" y="84" type="line"/>
      <point x="167" y="36"/>
      <point x="224" y="-10"/>
      <point x="303" y="-10" type="curve" smooth="yes"/>
      <point x="428" y="-10"/>
      <point x="495" y="94"/>
      <point x="495" y="264" type="curve" smooth="yes"/>
      <point x="495" y="436"/>
      <point x="429" y="530"/>
      <point x="309" y="530" type="curve" smooth="yes"/>
    </contour>
    <contour>
      <point x="115" y="520" type="line"/>
      <point x="115" y="-199" type="line"/>
      <point x="145" y="-193" type="line"/>
      <point x="145" y="412" type="line"/>
      <point x="144" y="421" type="line"/>
      <point x="141" y="520" type="line"/>
    </contour>
  </outline>
</glyph>
<glyph name="q" format="1">
  <advance width="570"/>
  <unicode hex="0071"/>
  <outline>
    <contour>
      <point x="425" y="-193" type="line"/>
      <point x="455" y="-199" type="line"/>
      <point x="455" y="520" type="line"/>
      <point x="429" y="520" type="line"/>
      <point x="426" y="445" type="line"/>
      <point x="425" y="418" type="line"/>
    </contour>
    <contour>
      <point x="146" y="530"/>
      <point x="70" y="419"/>
      <point x="70" y="258" type="curve" smooth="yes"/>
      <point x="70" y="90"/>
      <point x="147" y="-10"/>
      <point x="264" y="-10" type="curve" smooth="yes"/>
      <point x="353" y="-10"/>
      <point x="402" y="39"/>
      <point x="429" y="91" type="curve"/>
      <point x="431" y="141" type="line"/>
      <point x="394" y="63"/>
      <point x="348" y="18"/>
      <point x="265" y="18" type="curve" smooth="yes"/>
      <point x="165" y="18"/>
      <point x="102" y="106"/>
      <point x="101" y="258" type="curve" smooth="yes"/>
      <point x="100" y="412"/>
      <point x="173" y="502"/>
      <point x="276" y="502" type="curve" smooth="yes"/>
      <point x="356" y="502"/>
      <point x="403" y="454"/>
      <point x="433" y="403" type="curve"/>
      <point x="432" y="445" type="line"/>
      <point x="406" y="484"/>
      <point x="361" y="530"/>
      <point x="275" y="530" type="curve" smooth="yes"/>
    </contour>
  </outline>
</glyph>
<glyph name="s" format="1">
  <advance width="461"/>
  <unicode hex="0073"/>
  <outline>
    <contour>
      <point x="140" y="530"/>
      <point x="69" y="477"/>
      <point x="69" y="400" type="curve" smooth="yes"/>
      <point x="69" y="328"/>
      <point x="114" y="293"/>
      <point x="224" y="264" type="curve" smooth="yes"/>
      <point x="338" y="233"/>
      <point x="370" y="207"/>
      <point x="370" y="135" type="curve" smooth="yes"/>
      <point x="370" y="59"/>
      <point x="309" y="18"/>
      <point x="228" y="18" type="curve" smooth="yes"/>
      <point x="157" y="18"/>
      <point x="115" y="39"/>
      <point x="68" y="76" type="curve"/>
      <point x="50" y="56" type="line"/>
      <point x="95" y="19"/>
      <point x="146" y="-10"/>
      <point x="228" y="-10" type="curve" smooth="yes"/>
      <point x="330" y="-10"/>
      <point x="401" y="49"/>
      <point x="401" y="135" type="curve" smooth="yes"/>
      <point x="401" y="222"/>
      <point x="356" y="256"/>
      <point x="238" y="288" type="curve" smooth="yes"/>
      <point x="138" y="315"/>
      <point x="100" y="340"/>
      <point x="100" y="399" type="curve" smooth="yes"/>
      <point x="100" y="463"/>
      <point x="155" y="502"/>
      <point x="232" y="502" type="curve" smooth="yes"/>
      <point x="288" y="502"/>
      <point x="325" y="486"/>
      <point x="370" y="452" type="curve"/>
      <point x="388" y="473" type="line"/>
      <point x="339" y="512"/>
      <point x="292" y="530"/>
      <point x="231" y="530" type="curve" smooth="yes"/>
    </contour>
    <contour>
      <point x="235" y="520" type="move" name="top"/>
    </contour>
    <contour>
      <point x="230" y="0" type="move" name="bottom"/>
    </contour>
  </outline>
</glyph>
<glyph name="u" format="1">
  <advance width="577"/>
  <unicode hex="0075"/>
  <outline>
    <contour>
      <point x="432" y="520" type="line"/>
      <point x="432" y="138" type="line"/>
      <point x="392" y="68"/>
      <point x="340" y="18"/>
      <point x="262" y="18" type="curve" smooth="yes"/>
      <point x="184" y="18"/>
      <point x="140" y="59"/>
      <point x="140" y="151" type="curve" smooth="yes"/>
      <point x="140" y="520" type="line"/>
      <point x="110" y="520" type="line"/>
      <point x="110" y="149" type="line" smooth="yes"/>
      <point x="110" y="46"/>
      <point x="164" y="-10"/>
      <point x="258" y="-10" type="curve" smooth="yes"/>
      <point x="344" y="-10"/>
      <point x="402" y="41"/>
      <point x="435" y="102" type="curve"/>
      <point x="436" y="0" type="line"/>
      <point x="462" y="0" type="line"/>
      <point x="462" y="520" type="line"/>
    </contour>
    <contour>
      <point x="472" y="0" type="move" name="ogonek"/>
    </contour>
    <contour>
      <point x="286" y="520" type="move" name="top"/>
    </contour>
  </outline>
</glyph>
<glyph name="y" format="1">
  <advance width="448"/>
  <unicode hex="0079"/>
  <outline>
    <contour>
      <point x="394" y="520" type="line"/>
      <point x="226" y="23" type="line"/>
      <point x="53" y="520" type="line"/>
      <point x="20" y="520" type="line"/>
      <point x="205" y="0" type="line"/>
      <point x="217" y="0" type="line"/>
      <point x="180" y="-100"/>
      <point x="158" y="-142"/>
      <point x="54" y="-173" type="curve"/>
      <point x="58" y="-197" type="line"/>
      <point x="170" y="-165"/>
      <point x="205" y="-117"/>
      <point x="245" y="-2" type="curve" smooth="yes"/>
      <point x="428" y="520" type="line"/>
    </contour>
    <contour>
      <point x="216" y="520" type="move" name="top"/>
    </contour>
  </outline>
</glyph>
<glyph name="z" format="1">
  <advance width="410"/>
  <unicode hex="007A"/>
  <outline>
    <contour>
      <point x="55" y="520" type="line"/>
      <point x="55" y="492" type="line"/>
      <point x="338" y="492" type="line"/>
      <point x="30" y="25" type="line"/>
      <point x="30" y="0" type="line"/>
      <point x="366" y="0" type="line"/>
      <point x="369" y="28" type="line"/>
      <point x="68" y="28" type="line"/>
      <point x="375" y="495" type="line"/>
      <point x="375" y="520" type="line"/>
    </contour>
    <contour>
      <point x="214" y="520" type="move" name="top"/>
    </contour>
  </outline>
</glyph>
<glyph name="bar" format="1">
  <advance width="410"/>
  <unicode hex="007C"/>
  <outline>
    <contour>
      <point x="190" y="802" type="line"/>
      <point x="190" y="-99" type="line"/>
      <point x="220" y="-99" type="line"/>
      <point x="220" y="802" type="line"/>
    </contour>
  </outline>
</glyph>
<glyph name="braceright" format="1">
  <advance width="329"/>
  <unicode hex="007D"/>
  <outline>
    <contour>
      <point x="80" y="799" type="line"/>
      <point x="140" y="799"/>
      <point x="161" y="770"/>
      <point x="161" y="711" type="curve" smooth="yes"/>
      <point x="161" y="446" type="line" smooth="yes"/>
      <point x="161" y="380"/>
      <point x="185" y="359"/>
      <point x="236" y="349" type="curve"/>
      <point x="185" y="339"/>
      <point x="161" y="318"/>
      <point x="161" y="252" type="curve" smooth="yes"/>
      <point x="161" y="-13" type="line" smooth="yes"/>
      <point x="161" y="-72"/>
      <point x="140" y="-101"/>
      <point x="80" y="-101" type="curve"/>
      <point x="80" y="-124" type="line"/>
      <point x="146" y="-124"/>
      <point x="188" y="-92"/>
      <point x="188" y="-18" type="curve" smooth="yes"/>
      <point x="188" y="264" type="line" smooth="yes"/>
      <point x="188" y="317"/>
      <point x="222" y="335"/>
      <point x="269" y="335" type="curve"/>
      <point x="269" y="363" type="line"/>
      <point x="222" y="363"/>
      <point x="188" y="381"/>
      <point x="188" y="434" type="curve" smooth="yes"/>
      <point x="188" y="716" type="line" smooth="yes"/>
      <point x="188" y="790"/>
      <point x="146" y="822"/>
      <point x="80" y="822" type="curve"/>
    </contour>
  </outline>
</glyph>
<glyph name="cent" format="1">
  <advance width="462"/>
  <unicode hex="00A2"/>
  <outline>
    <contour>
      <point x="270" y="677" type="line"/>
      <point x="270" y="527" type="line"/>
      <point x="296" y="527" type="line"/>
      <point x="296" y="677" type="line"/>
    </contour>
    <contour>
      <point x="269" y="-147" type="line"/>
      <point x="296" y="-147" type="line"/>
      <point x="296" y="-6" type="line"/>
      <point x="269" y="-7" type="line"/>
    </contour>
    <component base="c"/>
  </outline>
</glyph>
<glyph name="ordfeminine" format="1">
  <advance width="500"/>
  <unicode hex="00AA"/>
  <outline>
    <contour>
      <point x="201" y="682"/>
      <point x="164" y="672"/>
      <point x="123" y="657" type="curve"/>
      <point x="132" y="631" type="line"/>
      <point x="171" y="645"/>
      <point x="208" y="654"/>
      <point x="244" y="654" type="curve" smooth="yes"/>
      <point x="322" y="654"/>
      <point x="346" y="624"/>
      <point x="346" y="560" type="curve"/>
      <point x="346" y="369" type="line"/>
      <point x="350" y="355" type="line"/>
      <point x="349" y="306"/>
      <point x="368" y="286"/>
      <point x="403" y="276" type="curve"/>
      <point x="410" y="297" type="line"/>
      <point x="388" y="306"/>
      <point x="376" y="317"/>
      <point x="376" y="367" type="curve" smooth="yes"/>
      <point x="376" y="563" type="line" smooth="yes"/>
      <point x="376" y="643"/>
      <point x="336" y="682"/>
      <point x="244" y="682" type="curve" smooth="yes"/>
    </contour>
    <contour>
      <point x="255" y="518" type="line" smooth="yes"/>
      <point x="157" y="518"/>
      <point x="90" y="474"/>
      <point x="90" y="392" type="curve" smooth="yes"/>
      <point x="90" y="321"/>
      <point x="138" y="276"/>
      <point x="218" y="276" type="curve" smooth="yes"/>
      <point x="279" y="276"/>
      <point x="324" y="302"/>
      <point x="355" y="351" type="curve"/>
      <point x="350" y="387" type="line"/>
      <point x="323" y="337"/>
      <point x="281" y="304"/>
      <point x="218" y="304" type="curve" smooth="yes"/>
      <point x="161" y="304"/>
      <point x="122" y="334"/>
      <point x="122" y="392" type="curve" smooth="yes"/>
      <point x="122" y="460"/>
      <point x="175" y="490"/>
      <point x="261" y="490" type="curve" smooth="yes"/>
      <point x="353" y="490" type="line"/>
      <point x="353" y="518" type="line"/>
    </contour>
    <component base="minus" xOffset="13" yOffset="-316"/>
  </outline>
</glyph>
<glyph name="logicalnot" format="1">
  <advance width="498"/>
  <unicode hex="00AC"/>
  <outline>
    <contour>
      <point x="75" y="335" type="line"/>
      <point x="75" y="305" type="line"/>
      <point x="391" y="305" type="line"/>
      <point x="391" y="191" type="line"/>
      <point x="423" y="191" type="line"/>
      <point x="423" y="335" type="line"/>
    </contour>
  </outline>
</glyph>
<glyph name="questiondown" format="1">
  <advance width="438"/>
  <unicode hex="00BF"/>
  <outline>
    <contour>
      <point x="283" y="-199"/>
      <point x="336" y="-171"/>
      <point x="388" y="-112" type="curve"/>
      <point x="366" y="-95" type="line"/>
      <point x="318" y="-147"/>
      <point x="276" y="-171"/>
      <point x="207" y="-171" type="curve" smooth="yes"/>
      <point x="131" y="-171"/>
      <point x="82" y="-126"/>
      <point x="82" y="-69" type="curve" smooth="yes"/>
      <point x="82" y="63"/>
      <point x="262" y="49"/>
      <point x="262" y="199" type="curve" smooth="yes"/>
      <point x="262" y="251" type="line"/>
      <point x="233" y="251" type="line"/>
      <point x="233" y="202" type="line" smooth="yes"/>
      <point x="233" y="66"/>
      <point x="50" y="79"/>
      <point x="50" y="-69" type="curve" smooth="yes"/>
      <point x="50" y="-136"/>
      <point x="109" y="-199"/>
      <point x="207" y="-199" type="curve" smooth="yes"/>
    </contour>
    <contour>
      <point x="264" y="399"/>
      <point x="276" y="412"/>
      <point x="276" y="429" type="curve" smooth="yes"/>
      <point x="276" y="445"/>
      <point x="264" y="458"/>
      <point x="246" y="458" type="curve" smooth="yes"/>
      <point x="227" y="458"/>
      <point x="216" y="445"/>
      <point x="216" y="429" type="curve" smooth="yes"/>
      <point x="216" y="412"/>
      <point x="227" y="399"/>
      <point x="246" y="399" type="curve" smooth="yes"/>
    </contour>
  </outline>
</glyph>
<glyph name="Eth" format="1">
  <advance width="618"/>
  <unicode hex="00D0"/>
  <outline>
    <contour>
      <point x="116" y="367" type="line"/>
      <point x="25" y="367" type="line"/>
      <point x="25" y="339" type="line"/>
      <point x="337" y="339" type="line"/>
      <point x="337" y="367" type="line"/>
    </contour>
    <component base="D" xOffset="-4"/>
  </outline>
</glyph>
<glyph name="multiply" format="1">
  <advance width="488"/>
  <unicode hex="00D7"/>
  <outline>
    <contour>
      <point x="243" y="327" type="line"/>
      <point x="117" y="459" type="line"/>
      <point x="95" y="439" type="line"/>
      <point x="223" y="307" type="line"/>
      <point x="95" y="176" type="line"/>
      <point x="117" y="156" type="line"/>
      <point x="243" y="287" type="line"/>
      <point x="371" y="156" type="line"/>
      <point x="393" y="176" type="line"/>
      <point x="263" y="307" type="line"/>
      <point x="393" y="439" type="line"/>
      <point x="371" y="459" type="line"/>
    </contour>
  </outline>
</glyph>
<glyph name="Oslash" format="1">
  <advance width="690"/>
  <unicode hex="00D8"/>
  <outline>
    <contour>
      <point x="186" y="692"/>
      <point x="75" y="565"/>
      <point x="75" y="339" type="curve" smooth="yes"/>
      <point x="75" y="114"/>
      <point x="185" y="-10"/>
      <point x="345" y="-10" type="curve" smooth="yes"/>
      <point x="511" y="-10"/>
      <point x="615" y="118"/>
      <point x="615" y="340" type="curve" smooth="yes"/>
      <point x="615" y="571"/>
      <point x="506" y="692"/>
      <point x="345" y="692" type="curve" smooth="yes"/>
    </contour>
    <contour>
      <point x="488" y="663"/>
      <point x="583" y="556"/>
      <point x="583" y="340" type="curve" smooth="yes"/>
      <point x="583" y="129"/>
      <point x="493" y="19"/>
      <point x="345" y="19" type="curve" smooth="yes"/>
      <point x="205" y="19"/>
      <point x="107" y="129"/>
      <point x="107" y="339" type="curve" smooth="yes"/>
      <point x="107" y="554"/>
      <point x="204" y="663"/>
      <point x="345" y="663" type="curve"/>
    </contour>
    <contour>
      <point x="429" y="680" type="line"/>
      <point x="424" y="656" type="line"/>
      <point x="241" y="34" type="line"/>
      <point x="233" y="14" type="line"/>
      <point x="196" y="-105" type="line"/>
      <point x="227" y="-114" type="line"/>
      <point x="258" y="3" type="line"/>
      <point x="264" y="27" type="line"/>
      <point x="447" y="649" type="line"/>
      <point x="454" y="669" type="line"/>
      <point x="493" y="794" type="line"/>
      <point x="462" y="803" type="line"/>
    </contour>
    <contour>
      <point x="337" y="692" type="move" name="top"/>
    </contour>
  </outline>
</glyph>
<glyph name="germandbls" format="1">
  <advance width="573"/>
  <unicode hex="00DF"/>
  <outline>
    <contour>
      <point x="191" y="738"/>
      <point x="115" y="670"/>
      <point x="115" y="541" type="curve" smooth="yes"/>
      <point x="115" y="0" type="line"/>
      <point x="145" y="0" type="line"/>
      <point x="145" y="537" type="line" smooth="yes"/>
      <point x="145" y="658"/>
      <point x="209" y="710"/>
      <point x="292" y="710" type="curve" smooth="yes"/>
      <point x="364" y="710"/>
      <point x="412" y="671"/>
      <point x="412" y="610" type="curve" smooth="yes"/>
      <point x="412" y="510"/>
      <point x="292" y="502"/>
      <point x="292" y="421" type="curve" smooth="yes"/>
      <point x="292" y="311"/>
      <point x="487" y="317"/>
      <point x="487" y="150" type="curve" smooth="yes"/>
      <point x="487" y="65"/>
      <point x="439" y="18"/>
      <point x="367" y="18" type="curve" smooth="yes"/>
      <point x="329" y="18"/>
      <point x="307" y="26"/>
      <point x="288" y="35" type="curve"/>
      <point x="276" y="12" type="line"/>
      <point x="299" y="0"/>
      <point x="326" y="-10"/>
      <point x="368" y="-10" type="curve" smooth="yes"/>
      <point x="462" y="-10"/>
      <point x="518" y="56"/>
      <point x="518" y="150" type="curve" smooth="yes"/>
      <point x="518" y="327"/>
      <point x="322" y="334"/>
      <point x="322" y="421" type="curve" smooth="yes"/>
      <point x="322" y="489"/>
      <point x="443" y="502"/>
      <point x="443" y="610" type="curve" smooth="yes"/>
      <point x="443" y="685"/>
      <point x="380" y="738"/>
      <point x="292" y="738" type="curve" smooth="yes"/>
    </contour>
  </outline>
</glyph>
<glyph name="ae" format="1">
  <advance width="845"/>
  <unicode hex="00E6"/>
  <outline>
    <contour>
      <point x="479" y="530"/>
      <point x="406" y="453"/>
      <point x="389" y="295" type="curve"/>
      <point x="386" y="256" type="line"/>
      <point x="386" y="88"/>
      <point x="469" y="-10"/>
      <point x="598" y="-10" type="curve" smooth="yes"/>
      <point x="665" y="-10"/>
      <point x="713" y="13"/>
      <point x="759" y="52" type="curve"/>
      <point x="742" y="74" type="line"/>
      <point x="697" y="38"/>
      <point x="659" y="18"/>
      <point x="598" y="18" type="curve" smooth="yes"/>
      <point x="495" y="18"/>
      <point x="420" y="91"/>
      <point x="417" y="256" type="curve"/>
      <point x="417" y="428"/>
      <point x="495" y="502"/>
      <point x="592" y="502" type="curve" smooth="yes"/>
      <point x="700" y="502"/>
      <point x="750" y="416"/>
      <point x="750" y="294" type="curve" smooth="yes"/>
      <point x="750" y="280"/>
      <point x="750" y="276"/>
      <point x="750" y="270" type="curve"/>
      <point x="412" y="270" type="line"/>
      <point x="412" y="244" type="line"/>
      <point x="778" y="244" type="line"/>
      <point x="779" y="253"/>
      <point x="780" y="268"/>
      <point x="780" y="283" type="curve" smooth="yes"/>
      <point x="780" y="431"/>
      <point x="717" y="530"/>
      <point x="590" y="530" type="curve" smooth="yes"/>
    </contour>
    <contour>
      <point x="270" y="310" type="line" smooth="yes"/>
      <point x="147" y="310"/>
      <point x="65" y="251"/>
      <point x="65" y="144" type="curve" smooth="yes"/>
      <point x="65" y="51"/>
      <point x="124" y="-10"/>
      <point x="223" y="-10" type="curve" smooth="yes"/>
      <point x="303" y="-10"/>
      <point x="363" y="26"/>
      <point x="425" y="122" type="curve"/>
      <point x="420" y="160" type="line"/>
      <point x="358" y="61"/>
      <point x="304" y="18"/>
      <point x="223" y="18" type="curve" smooth="yes"/>
      <point x="146" y="18"/>
      <point x="97" y="64"/>
      <point x="97" y="144" type="curve" smooth="yes"/>
      <point x="97" y="237"/>
      <point x="165" y="282"/>
      <point x="276" y="282" type="curve" smooth="yes"/>
      <point x="393" y="282" type="line"/>
      <point x="393" y="310" type="line"/>
    </contour>
    <contour>
      <point x="204" y="530"/>
      <point x="157" y="517"/>
      <point x="105" y="496" type="curve"/>
      <point x="114" y="470" type="line"/>
      <point x="164" y="490"/>
      <point x="210" y="502"/>
      <point x="256" y="502" type="curve"/>
      <point x="354" y="502"/>
      <point x="386" y="457"/>
      <point x="386" y="369" type="curve"/>
      <point x="386" y="256" type="line"/>
      <point x="416" y="256" type="line"/>
      <point x="416" y="372" type="line"/>
      <point x="416" y="476"/>
      <point x="368" y="530"/>
      <point x="256" y="530" type="curve"/>
    </contour>
    <contour>
      <point x="423" y="520" type="move" name="top"/>
    </contour>
  </outline>
</glyph>
<glyph name="oslash" format="1">
  <advance width="561"/>
  <unicode hex="00F8"/>
  <outline>
    <contour>
      <point x="154" y="530"/>
      <point x="70" y="431"/>
      <point x="70" y="259" type="curve" smooth="yes"/>
      <point x="70" y="91"/>
      <point x="150" y="-10"/>
      <point x="280" y="-10" type="curve" smooth="yes"/>
      <point x="408" y="-10"/>
      <point x="491" y="89"/>
      <point x="491" y="262" type="curve" smooth="yes"/>
      <point x="491" y="436"/>
      <point x="410" y="530"/>
      <point x="281" y="530" type="curve" smooth="yes"/>
    </contour>
    <contour>
      <point x="393" y="502"/>
      <point x="460" y="418"/>
      <point x="460" y="262" type="curve" smooth="yes"/>
      <point x="460" y="103"/>
      <point x="390" y="18"/>
      <point x="280" y="18" type="curve" smooth="yes"/>
      <point x="169" y="18"/>
      <point x="101" y="105"/>
      <point x="101" y="259" type="curve" smooth="yes"/>
      <point x="101" y="419"/>
      <point x="172" y="502"/>
      <point x="281" y="502" type="curve" smooth="yes"/>
    </contour>
    <contour>
      <point x="353" y="518" type="line"/>
      <point x="346" y="494" type="line"/>
      <point x="193" y="32" type="line"/>
      <point x="187" y="22" type="line"/>
      <point x="140" y="-113" type="line"/>
      <point x="167" y="-121" type="line"/>
      <point x="213" y="11" type="line"/>
      <point x="216" y="24" type="line"/>
      <point x="369" y="486" type="line"/>
      <point x="379" y="507" type="line"/>
      <point x="420" y="634" type="line"/>
      <point x="393" y="642" type="line"/>
    </contour>
    <contour>
      <point x="281" y="520" type="move" name="top"/>
    </contour>
  </outline>
</glyph>
<glyph name="dcroat" format="1">
  <advance width="580"/>
  <unicode hex="0111"/>
  <outline>
    <contour>
      <point x="259" y="652" type="line"/>
      <point x="263" y="625" type="line"/>
      <point x="460" y="625" type="line"/>
      <point x="535" y="625" type="line"/>
      <point x="535" y="652" type="line"/>
    </contour>
    <component base="d"/>
  </outline>
</glyph>
<glyph name="Hbar" format="1">
  <advance width="652"/>
  <unicode hex="0126"/>
  <outline>
    <contour>
      <point x="534" y="542" type="line"/>
      <point x="55" y="542" type="line"/>
      <point x="55" y="518" type="line"/>
      <point x="118" y="518" type="line"/>
      <point x="597" y="518" type="line"/>
      <point x="597" y="542" type="line"/>
    </contour>
    <component base="H" xOffset="4"/>
  </outline>
</glyph>
<glyph name="hbar" format="1">
  <advance width="587"/>
  <unicode hex="0127"/>
  <outline>
    <contour>
      <point x="45" y="652" type="line"/>
      <point x="45" y="625" type="line"/>
      <point x="120" y="625" type="line"/>
      <point x="329" y="625" type="line"/>
      <point x="329" y="652" type="line"/>
    </contour>
    <component base="h" xOffset="5"/>
  </outline>
</glyph>
<glyph name="dotlessi" format="1">
  <advance width="260"/>
  <unicode hex="0131"/>
  <outline>
    <contour>
      <point x="115" y="520" type="line"/>
      <point x="115" y="0" type="line"/>
      <point x="145" y="0" type="line"/>
      <point x="145" y="520" type="line"/>
    </contour>
    <contour>
      <point x="155" y="0" type="move" name="ogonek"/>
    </contour>
    <contour>
      <point x="130" y="520" type="move" name="top"/>
    </contour>
  </outline>
</glyph>
<glyph name="kgreenlandic" format="1">
  <advance width="469"/>
  <unicode hex="0138"/>
  <outline>
    <contour>
      <point x="392" y="520" type="line"/>
      <point x="151" y="274" type="line"/>
      <point x="417" y="0" type="line"/>
      <point x="454" y="0" type="line"/>
      <point x="189" y="275" type="line"/>
      <point x="430" y="520" type="line"/>
    </contour>
    <contour>
      <point x="115" y="520" type="line"/>
      <point x="115" y="0" type="line"/>
      <point x="145" y="0" type="line"/>
      <point x="145" y="520" type="line"/>
    </contour>
  </outline>
</glyph>
<glyph name="Lslash" format="1">
  <advance width="461"/>
  <unicode hex="0141"/>
  <outline>
    <contour>
      <point x="126" y="331" type="line"/>
      <point x="42" y="279" type="line"/>
      <point x="55" y="257" type="line"/>
      <point x="368" y="453" type="line"/>
      <point x="355" y="475" type="line"/>
    </contour>
    <component base="L" xOffset="6"/>
  </outline>
</glyph>
<glyph name="lslash" format="1">
  <advance width="283"/>
  <unicode hex="0142"/>
  <outline>
    <contour>
      <point x="39" y="333" type="line"/>
      <point x="53" y="311" type="line"/>
      <point x="263" y="440" type="line"/>
      <point x="249" y="463" type="line"/>
    </contour>
    <component base="l" xOffset="6"/>
  </outline>
</glyph>
<glyph name="Eng" format="1">
  <advance width="664"/>
  <unicode hex="014A"/>
  <outline>
    <contour>
      <point x="514" y="682" type="line"/>
      <point x="514" y="232" type="line"/>
      <point x="514" y="140"/>
      <point x="516" y="75"/>
      <point x="518" y="35" type="curve"/>
      <point x="517" y="35" type="line"/>
      <point x="161" y="682" type="line"/>
      <point x="120" y="682" type="line"/>
      <point x="120" y="0" type="line"/>
      <point x="150" y="0" type="line"/>
      <point x="150" y="438" type="line"/>
      <point x="150" y="557"/>
      <point x="149" y="608"/>
      <point x="146" y="647" type="curve"/>
      <point x="147" y="647" type="line"/>
      <point x="504" y="0" type="line"/>
      <point x="520" y="0" type="line"/>
      <point x="544" y="8" type="line"/>
      <point x="544" y="682" type="line"/>
    </contour>
    <contour>
      <point x="517" y="9" type="line"/>
      <point x="517" y="-108"/>
      <point x="487" y="-138"/>
      <point x="417" y="-175" type="curve"/>
      <point x="426" y="-196" type="line"/>
      <point x="506" y="-156"/>
      <point x="544" y="-124"/>
      <point x="544" y="8" type="curve"/>
    </contour>
  </outline>
</glyph>
<glyph name="eng" format="1">
  <advance width="582"/>
  <unicode hex="014B"/>
  <outline>
    <contour>
      <point x="246" y="530"/>
      <point x="183" y="480"/>
      <point x="136" y="409" type="curve"/>
      <point x="145" y="383" type="line"/>
      <point x="194" y="453"/>
      <point x="249" y="503"/>
      <point x="331" y="503" type="curve" smooth="yes"/>
      <point x="405" y="503"/>
      <point x="442" y="457"/>
      <point x="442" y="366" type="curve" smooth="yes"/>
      <point x="442" y="90" type="line"/>
      <point x="472" y="90" type="line"/>
      <point x="472" y="370" type="line" smooth="yes"/>
      <point x="472" y="470"/>
      <point x="425" y="530"/>
      <point x="332" y="530" type="curve" smooth="yes"/>
    </contour>
    <contour>
      <point x="115" y="520" type="line"/>
      <point x="115" y="0" type="line"/>
      <point x="145" y="0" type="line"/>
      <point x="145" y="389" type="line"/>
      <point x="141" y="520" type="line"/>
    </contour>
    <contour>
      <point x="442" y="100" type="line"/>
      <point x="442" y="9" type="line" smooth="yes"/>
      <point x="442" y="-108"/>
      <point x="414" y="-138"/>
      <point x="345" y="-174" type="curve"/>
      <point x="354" y="-196" type="line"/>
      <point x="434" y="-156"/>
      <point x="472" y="-124"/>
      <point x="472" y="8" type="curve" smooth="yes"/>
      <point x="472" y="100" type="line"/>
    </contour>
    <contour>
      <point x="289" y="520" type="move" name="top"/>
    </contour>
    <contour>
      <point x="289" y="0" type="move" name="bottom"/>
    </contour>
  </outline>
</glyph>
<glyph name="oe" format="1">
  <advance width="919"/>
  <unicode hex="0153"/>
  <outline>
    <contour>
      <point x="154" y="530"/>
      <point x="70" y="431"/>
      <point x="70" y="259" type="curve" smooth="yes"/>
      <point x="70" y="91"/>
      <point x="150" y="-10"/>
      <point x="280" y="-10" type="curve" smooth="yes"/>
      <point x="410" y="-10"/>
      <point x="491" y="99"/>
      <point x="491" y="262" type="curve"/>
      <point x="491" y="426"/>
      <point x="412" y="530"/>
      <point x="281" y="530" type="curve" smooth="yes"/>
    </contour>
    <contour>
      <point x="393" y="502"/>
      <point x="460" y="418"/>
      <point x="460" y="262" type="curve" smooth="yes"/>
      <point x="460" y="103"/>
      <point x="390" y="18"/>
      <point x="280" y="18" type="curve" smooth="yes"/>
      <point x="169" y="18"/>
      <point x="101" y="105"/>
      <point x="101" y="259" type="curve" smooth="yes"/>
      <point x="101" y="419"/>
      <point x="172" y="502"/>
      <point x="281" y="502" type="curve" smooth="yes"/>
    </contour>
    <contour>
      <point x="538" y="530"/>
      <point x="460" y="416"/>
      <point x="460" y="256" type="curve"/>
      <point x="460" y="98"/>
      <point x="541" y="-10"/>
      <point x="672" y="-10" type="curve" smooth="yes"/>
      <point x="739" y="-10"/>
      <point x="787" y="13"/>
      <point x="833" y="52" type="curve"/>
      <point x="816" y="74" type="line"/>
      <point x="771" y="38"/>
      <point x="733" y="18"/>
      <point x="672" y="18" type="curve" smooth="yes"/>
      <point x="569" y="18"/>
      <point x="494" y="91"/>
      <point x="491" y="256" type="curve"/>
      <point x="491" y="428"/>
      <point x="570" y="502"/>
      <point x="663" y="502" type="curve" smooth="yes"/>
      <point x="774" y="502"/>
      <point x="824" y="416"/>
      <point x="824" y="294" type="curve" smooth="yes"/>
      <point x="824" y="280"/>
      <point x="824" y="276"/>
      <point x="824" y="270" type="curve"/>
      <point x="486" y="270" type="line"/>
      <point x="486" y="244" type="line"/>
      <point x="852" y="244" type="line"/>
      <point x="853" y="253"/>
      <point x="854" y="268"/>
      <point x="854" y="283" type="curve" smooth="yes"/>
      <point x="854" y="431"/>
      <point x="791" y="530"/>
      <point x="661" y="530" type="curve" smooth="yes"/>
    </contour>
    <contour>
      <point x="476" y="520" type="move" name="top"/>
    </contour>
  </outline>
</glyph>
<glyph name="Tbar" format="1">
  <advance width="485"/>
  <unicode hex="0166"/>
  <outline>
    <contour>
      <point x="99" y="382" type="line"/>
      <point x="99" y="354" type="line"/>
      <point x="223" y="354" type="line"/>
      <point x="378" y="354" type="line"/>
      <point x="378" y="382" type="line"/>
    </contour>
    <component base="T"/>
  </outline>
</glyph>
<glyph name="tbar" format="1">
  <advance width="325"/>
  <unicode hex="0167"/>
  <outline>
    <contour>
      <point x="110" y="344" type="line"/>
      <point x="25" y="344" type="line"/>
      <point x="25" y="317" type="line"/>
      <point x="272" y="317" type="line"/>
      <point x="277" y="344" type="line"/>
    </contour>
    <component base="t"/>
  </outline>
</glyph>
<glyph name="florin" format="1">
  <advance width="308"/>
  <unicode hex="0192"/>
  <outline>
    <contour>
      <point x="168" y="738"/>
      <point x="116" y="695"/>
      <point x="116" y="617" type="curve" smooth="yes"/>
      <point x="116" y="9" type="line"/>
      <point x="146" y="29" type="line"/>
      <point x="146" y="613" type="line" smooth="yes"/>
      <point x="146" y="683"/>
      <point x="186" y="710"/>
      <point x="247" y="710" type="curve" smooth="yes"/>
      <point x="284" y="710"/>
      <point x="317" y="701"/>
      <point x="351" y="685" type="curve"/>
      <point x="363" y="709" type="line"/>
      <point x="328" y="727"/>
      <point x="286" y="738"/>
      <point x="245" y="738" type="curve" smooth="yes"/>
    </contour>
    <contour>
      <point x="28" y="520" type="line"/>
      <point x="28" y="493" type="line"/>
      <point x="287" y="493" type="line"/>
      <point x="292" y="520" type="line"/>
    </contour>
    <contour>
      <point x="116" y="320" type="line"/>
      <point x="116" y="9" type="line" smooth="yes"/>
      <point x="116" y="-108"/>
      <point x="88" y="-138"/>
      <point x="19" y="-174" type="curve"/>
      <point x="28" y="-196" type="line"/>
      <point x="108" y="-156"/>
      <point x="146" y="-124"/>
      <point x="146" y="8" type="curve" smooth="yes"/>
      <point x="146" y="320" type="line"/>
    </contour>
  </outline>
</glyph>
<glyph name="uni024C" format="1">
  <advance width="573"/>
  <unicode hex="024C"/>
  <outline>
    <contour>
      <point x="276" y="349" type="line"/>
      <point x="116" y="349" type="line"/>
      <point x="25" y="349" type="line"/>
      <point x="25" y="320" type="line"/>
      <point x="312" y="320" type="line"/>
    </contour>
    <component base="R" xOffset="-4"/>
  </outline>
</glyph>
<glyph name="uni025F" format="1">
  <advance width="286"/>
  <unicode hex="025F"/>
  <outline>
    <contour>
      <point x="121" y="-156"/>
      <point x="159" y="-124"/>
      <point x="159" y="8" type="curve" smooth="yes"/>
      <point x="159" y="520" type="line"/>
      <point x="129" y="520" type="line"/>
      <point x="129" y="7" type="line" smooth="yes"/>
      <point x="129" y="-108"/>
      <point x="101" y="-138"/>
      <point x="32" y="-174" type="curve"/>
      <point x="41" y="-196" type="line"/>
    </contour>
    <contour>
      <point x="266" y="0" type="line"/>
      <point x="266" y="25" type="line"/>
      <point x="17" y="25" type="line"/>
      <point x="17" y="0" type="line"/>
    </contour>
  </outline>
</glyph>
<glyph name="uni026D" format="1">
  <advance width="260"/>
  <unicode hex="026D"/>
  <outline>
    <contour>
      <point x="145" y="0" type="line"/>
      <point x="145" y="738" type="line"/>
      <point x="115" y="734" type="line"/>
      <point x="115" y="0" type="line"/>
    </contour>
    <component base="hookHELPER" xOffset="349" xScale="-1"/>
  </outline>
</glyph>
<glyph name="uni027E" format="1">
  <advance width="325"/>
  <unicode hex="027E"/>
  <outline>
    <contour>
      <point x="110" y="328" type="line"/>
      <point x="110" y="0" type="line"/>
      <point x="140" y="0" type="line"/>
      <point x="140" y="328" type="line"/>
    </contour>
    <component base="hookHELPER" xOffset="344" yOffset="328" xScale="-1" yScale="-1"/>
  </outline>
</glyph>
<glyph name="uni0289" format="1">
  <advance width="599"/>
  <unicode hex="0289"/>
  <outline>
    <contour>
      <point x="118" y="357" type="line"/>
      <point x="559" y="357" type="line"/>
      <point x="559" y="382" type="line"/>
      <point x="471" y="382" type="line"/>
      <point x="30" y="382" type="line"/>
      <point x="30" y="357" type="line"/>
    </contour>
    <component base="u" xOffset="8"/>
  </outline>
</glyph>
<glyph name="uni028A" format="1">
  <advance width="560"/>
  <unicode hex="028A"/>
  <outline>
    <contour>
      <point x="408" y="-10"/>
      <point x="490" y="83"/>
      <point x="490" y="238" type="curve" smooth="yes"/>
      <point x="490" y="360"/>
      <point x="437" y="441"/>
      <point x="385" y="492" type="curve"/>
      <point x="481" y="492" type="line"/>
      <point x="481" y="520" type="line"/>
      <point x="352" y="520" type="line"/>
      <point x="352" y="492" type="line"/>
      <point x="405" y="437"/>
      <point x="459" y="357"/>
      <point x="459" y="238" type="curve" smooth="yes"/>
      <point x="459" y="94"/>
      <point x="389" y="18"/>
      <point x="280" y="18" type="curve" smooth="yes"/>
      <point x="171" y="18"/>
      <point x="101" y="94"/>
      <point x="101" y="238" type="curve" smooth="yes"/>
      <point x="101" y="357"/>
      <point x="153" y="434"/>
      <point x="208" y="492" type="curve"/>
      <point x="208" y="520" type="line"/>
      <point x="79" y="520" type="line"/>
      <point x="79" y="492" type="line"/>
      <point x="175" y="492" type="line"/>
      <point x="122" y="438"/>
      <point x="70" y="360"/>
      <point x="70" y="238" type="curve" smooth="yes"/>
      <point x="70" y="83"/>
      <point x="153" y="-10"/>
      <point x="280" y="-10" type="curve" smooth="yes"/>
    </contour>
  </outline>
</glyph>
<glyph name="uni028B" format="1">
  <advance width="568"/>
  <unicode hex="028B"/>
  <outline>
    <contour>
      <point x="388" y="-10"/>
      <point x="468" y="73"/>
      <point x="468" y="265" type="curve" smooth="yes"/>
      <point x="468" y="443" type="line" smooth="yes"/>
      <point x="468" y="506"/>
      <point x="437" y="530"/>
      <point x="392" y="530" type="curve" smooth="yes"/>
      <point x="371" y="530"/>
      <point x="354" y="525"/>
      <point x="341" y="519" type="curve"/>
      <point x="350" y="495" type="line"/>
      <point x="362" y="500"/>
      <point x="375" y="503"/>
      <point x="390" y="503" type="curve" smooth="yes"/>
      <point x="424" y="503"/>
      <point x="438" y="484"/>
      <point x="438" y="443" type="curve" smooth="yes"/>
      <point x="438" y="264" type="line" smooth="yes"/>
      <point x="438" y="76"/>
      <point x="360" y="18"/>
      <point x="270" y="18" type="curve" smooth="yes"/>
      <point x="199" y="18"/>
      <point x="140" y="58"/>
      <point x="140" y="157" type="curve" smooth="yes"/>
      <point x="140" y="520" type="line"/>
      <point x="110" y="520" type="line"/>
      <point x="110" y="156" type="line" smooth="yes"/>
      <point x="110" y="45"/>
      <point x="181" y="-10"/>
      <point x="269" y="-10" type="curve" smooth="yes"/>
    </contour>
  </outline>
</glyph>
<glyph name="uni0290" format="1">
  <advance width="410"/>
  <unicode hex="0290"/>
  <outline>
    <contour>
      <point x="55" y="520" type="line"/>
      <point x="55" y="492" type="line"/>
      <point x="338" y="492" type="line"/>
      <point x="30" y="25" type="line"/>
      <point x="30" y="0" type="line"/>
      <point x="369" y="0" type="line"/>
      <point x="369" y="28" type="line"/>
      <point x="68" y="28" type="line"/>
      <point x="375" y="495" type="line"/>
      <point x="375" y="520" type="line"/>
    </contour>
    <component base="hookHELPER" xOffset="573" xScale="-1"/>
  </outline>
</glyph>
<glyph name="uni0298" format="1">
  <advance width="790"/>
  <unicode hex="0298"/>
  <outline>
    <contour>
      <point x="206" y="692"/>
      <point x="75" y="561"/>
      <point x="75" y="339" type="curve" smooth="yes"/>
      <point x="75" y="118"/>
      <point x="205" y="-10"/>
      <point x="395" y="-10" type="curve" smooth="yes"/>
      <point x="591" y="-10"/>
      <point x="715" y="122"/>
      <point x="715" y="340" type="curve" smooth="yes"/>
      <point x="715" y="567"/>
      <point x="586" y="692"/>
      <point x="395" y="692" type="curve" smooth="yes"/>
    </contour>
    <contour>
      <point x="569" y="664"/>
      <point x="684" y="553"/>
      <point x="684" y="340" type="curve" smooth="yes"/>
      <point x="684" y="132"/>
      <point x="574" y="18"/>
      <point x="395" y="18" type="curve" smooth="yes"/>
      <point x="224" y="18"/>
      <point x="106" y="132"/>
      <point x="106" y="339" type="curve" smooth="yes"/>
      <point x="106" y="551"/>
      <point x="223" y="664"/>
      <point x="395" y="664" type="curve"/>
    </contour>
    <component base="dotaccent" xOffset="339" yOffset="-366"/>
  </outline>
</glyph>
<glyph name="uni02BC" format="1">
  <advance width="132"/>
  <unicode hex="02BC"/>
  <outline>
    <contour>
      <point x="49" y="738"/>
      <point x="37" y="724"/>
      <point x="37" y="707" type="curve" smooth="yes"/>
      <point x="37" y="691"/>
      <point x="41" y="682"/>
      <point x="57" y="677" type="curve"/>
      <point x="30" y="558" type="line"/>
      <point x="51" y="558" type="line"/>
      <point x="83" y="650" type="line" smooth="yes"/>
      <point x="95" y="683"/>
      <point x="102" y="691"/>
      <point x="102" y="707" type="curve" smooth="yes"/>
      <point x="102" y="724"/>
      <point x="91" y="738"/>
      <point x="69" y="738" type="curve" smooth="yes"/>
    </contour>
    <contour>
      <point x="58" y="520" type="move" name="_topleft"/>
    </contour>
    <contour>
      <point x="79" y="520" type="move" name="_top"/>
    </contour>
  </outline>
</glyph>
<glyph name="circumflex" format="1">
  <advance width="325"/>
  <unicode hex="02C6"/>
  <outline>
    <contour>
      <point x="162" y="736" type="line"/>
      <point x="280" y="651" type="line"/>
      <point x="295" y="669" type="line"/>
      <point x="170" y="769" type="line"/>
      <point x="154" y="769" type="line"/>
      <point x="30" y="669" type="line"/>
      <point x="45" y="651" type="line"/>
    </contour>
    <contour>
      <point x="159" y="520" type="move" name="_top"/>
    </contour>
  </outline>
</glyph>
<glyph name="caron" format="1">
  <advance width="325"/>
  <unicode hex="02C7"/>
  <outline>
    <contour>
      <point x="163" y="671" type="line"/>
      <point x="45" y="756" type="line"/>
      <point x="30" y="738" type="line"/>
      <point x="155" y="638" type="line"/>
      <point x="171" y="638" type="line"/>
      <point x="295" y="738" type="line"/>
      <point x="280" y="756" type="line"/>
    </contour>
    <contour>
      <point x="158" y="517" type="move" name="_top"/>
    </contour>
  </outline>
</glyph>
<glyph name="ring" format="1">
  <advance width="228"/>
  <unicode hex="02DA"/>
  <outline>
    <contour>
      <point x="65" y="808"/>
      <point x="30" y="775"/>
      <point x="30" y="724" type="curve" smooth="yes"/>
      <point x="30" y="673"/>
      <point x="65" y="640"/>
      <point x="116" y="640" type="curve"/>
      <point x="167" y="640"/>
      <point x="202" y="673"/>
      <point x="202" y="724" type="curve" smooth="yes"/>
      <point x="202" y="775"/>
      <point x="167" y="808"/>
      <point x="116" y="808" type="curve"/>
    </contour>
    <contour>
      <point x="153" y="784"/>
      <point x="173" y="762"/>
      <point x="173" y="724" type="curve" smooth="yes"/>
      <point x="173" y="686"/>
      <point x="153" y="664"/>
      <point x="116" y="664" type="curve"/>
      <point x="79" y="664"/>
      <point x="59" y="686"/>
      <point x="59" y="724" type="curve" smooth="yes"/>
      <point x="59" y="762"/>
      <point x="79" y="784"/>
      <point x="116" y="784" type="curve"/>
    </contour>
    <contour>
      <point x="116" y="520" type="move" name="_top"/>
    </contour>
  </outline>
</glyph>
<glyph name="ogonek" format="1">
  <advance width="232"/>
  <unicode hex="02DB"/>
  <outline>
    <contour>
      <point x="48" y="-21"/>
      <point x="-2" y="-61"/>
      <point x="-2" y="-122" type="curve" smooth="yes"/>
      <point x="-2" y="-169"/>
      <point x="28" y="-206"/>
      <point x="98" y="-206" type="curve" smooth="yes"/>
      <point x="117" y="-206"/>
      <point x="132" y="-204"/>
      <point x="152" y="-200" type="curve"/>
      <point x="155" y="-170" type="line"/>
      <point x="134" y="-174"/>
      <point x="120" y="-176"/>
      <point x="102" y="-176" type="curve" smooth="yes"/>
      <point x="55" y="-176"/>
      <point x="31" y="-154"/>
      <point x="31" y="-121" type="curve" smooth="yes"/>
      <point x="31" y="-65"/>
      <point x="75" y="-36"/>
      <point x="152" y="0" type="curve"/>
      <point x="141" y="18" type="line"/>
    </contour>
    <contour>
      <point x="162" y="0" type="move" name="_ogonek"/>
    </contour>
  </outline>
</glyph>
<glyph name="tilde" format="1">
  <advance width="333"/>
  <unicode hex="02DC"/>
  <outline>
    <contour>
      <point x="255" y="675"/>
      <point x="281" y="691"/>
      <point x="303" y="734" type="curve"/>
      <point x="284" y="745" type="line"/>
      <point x="262" y="713"/>
      <point x="247" y="702"/>
      <point x="227" y="702" type="curve" smooth="yes"/>
      <point x="186" y="702"/>
      <point x="147" y="745"/>
      <point x="108" y="745" type="curve" smooth="yes"/>
      <point x="74" y="745"/>
      <point x="51" y="726"/>
      <point x="30" y="694" type="curve"/>
      <point x="49" y="683" type="line"/>
      <point x="69" y="708"/>
      <point x="78" y="718"/>
      <point x="108" y="718" type="curve" smooth="yes"/>
      <point x="142" y="718"/>
      <point x="174" y="675"/>
      <point x="230" y="675" type="curve" smooth="yes"/>
    </contour>
    <contour>
      <point x="167" y="520" type="move" name="_top"/>
    </contour>
  </outline>
</glyph>
<glyph name="hungarumlaut" format="1">
  <advance width="268"/>
  <unicode hex="02DD"/>
  <outline>
    <contour>
      <point x="134" y="660" type="line"/>
      <point x="156" y="649" type="line"/>
      <point x="238" y="778" type="line"/>
      <point x="207" y="794" type="line"/>
    </contour>
    <contour>
      <point x="30" y="664" type="line"/>
      <point x="52" y="653" type="line"/>
      <point x="127" y="777" type="line"/>
      <point x="96" y="793" type="line"/>
    </contour>
    <contour>
      <point x="99" y="520" type="move" name="_top"/>
    </contour>
  </outline>
</glyph>
<glyph name="dieresistonos" format="1">
  <advance width="283"/>
  <unicode hex="0385"/>
  <outline>
    <contour>
      <point x="129" y="710" type="line"/>
      <point x="150" y="706" type="line"/>
      <point x="191" y="823" type="line"/>
      <point x="158" y="831" type="line"/>
    </contour>
    <contour>
      <point x="40" y="690"/>
      <point x="30" y="679"/>
      <point x="30" y="665" type="curve" smooth="yes"/>
      <point x="30" y="651"/>
      <point x="40" y="640"/>
      <point x="55" y="640" type="curve" smooth="yes"/>
      <point x="71" y="640"/>
      <point x="81" y="651"/>
      <point x="81" y="665" type="curve" smooth="yes"/>
      <point x="81" y="679"/>
      <point x="71" y="690"/>
      <point x="55" y="690" type="curve" smooth="yes"/>
    </contour>
    <contour>
      <point x="212" y="690"/>
      <point x="202" y="679"/>
      <point x="202" y="665" type="curve" smooth="yes"/>
      <point x="202" y="651"/>
      <point x="212" y="640"/>
      <point x="228" y="640" type="curve" smooth="yes"/>
      <point x="243" y="640"/>
      <point x="253" y="651"/>
      <point x="253" y="665" type="curve" smooth="yes"/>
      <point x="253" y="679"/>
      <point x="243" y="690"/>
      <point x="228" y="690" type="curve" smooth="yes"/>
    </contour>
    <contour>
      <point x="142" y="520" type="move" name="_top"/>
    </contour>
  </outline>
</glyph>
<glyph name="Lambda" format="1">
  <advance width="558"/>
  <unicode hex="039B"/>
  <outline>
    <contour>
      <point x="260" y="682" type="line"/>
      <point x="25" y="0" type="line"/>
      <point x="56" y="0" type="line"/>
      <point x="279" y="657" type="line"/>
      <point x="500" y="0" type="line"/>
      <point x="533" y="0" type="line"/>
      <point x="298" y="682" type="line"/>
    </contour>
  </outline>
</glyph>
<glyph name="Omega" format="1">
  <advance width="690"/>
  <unicode hex="03A9"/>
  <outline>
    <contour>
      <point x="186" y="692"/>
      <point x="75" y="565"/>
      <point x="75" y="339" type="curve" smooth="yes"/>
      <point x="75" y="173"/>
      <point x="126" y="83"/>
      <point x="229" y="30" type="curve"/>
      <point x="97" y="30" type="line"/>
      <point x="97" y="0" type="line"/>
      <point x="282" y="0" type="line"/>
      <point x="282" y="29" type="line"/>
      <point x="169" y="78"/>
      <point x="107" y="171"/>
      <point x="107" y="339" type="curve" smooth="yes"/>
      <point x="107" y="554"/>
      <point x="204" y="663"/>
      <point x="345" y="663" type="curve" smooth="yes"/>
      <point x="488" y="663"/>
      <point x="583" y="556"/>
      <point x="583" y="340" type="curve" smooth="yes"/>
      <point x="583" y="167"/>
      <point x="521" y="72"/>
      <point x="408" y="29" type="curve"/>
      <point x="408" y="0" type="line"/>
      <point x="593" y="0" type="line"/>
      <point x="593" y="30" type="line"/>
      <point x="462" y="30" type="line"/>
      <point x="556" y="75"/>
      <point x="615" y="165"/>
      <point x="615" y="340" type="curve" smooth="yes"/>
      <point x="615" y="571"/>
      <point x="506" y="692"/>
      <point x="345" y="692" type="curve" smooth="yes"/>
    </contour>
    <contour>
      <point x="345" y="682" type="move" name="top"/>
    </contour>
  </outline>
</glyph>
<glyph name="alpha" format="1">
  <advance width="588"/>
  <unicode hex="03B1"/>
  <outline>
    <contour>
      <point x="143" y="530"/>
      <point x="71" y="420"/>
      <point x="71" y="263" type="curve" smooth="yes"/>
      <point x="71" y="79"/>
      <point x="137" y="-10"/>
      <point x="247" y="-10" type="curve" smooth="yes"/>
      <point x="341" y="-10"/>
      <point x="404" y="53"/>
      <point x="434" y="211" type="curve"/>
      <point x="456" y="62" type="line" smooth="yes"/>
      <point x="463" y="16"/>
      <point x="488" y="3"/>
      <point x="514" y="-4" type="curve"/>
      <point x="525" y="23" type="line"/>
      <point x="509" y="28"/>
      <point x="492" y="38"/>
      <point x="486" y="72" type="curve" smooth="yes"/>
      <point x="453" y="271" type="line"/>
      <point x="515" y="520" type="line"/>
      <point x="483" y="520" type="line"/>
      <point x="435" y="312" type="line"/>
      <point x="405" y="484"/>
      <point x="353" y="530"/>
      <point x="254" y="530" type="curve" smooth="yes"/>
    </contour>
    <contour>
      <point x="343" y="503"/>
      <point x="386" y="453"/>
      <point x="424" y="268" type="curve"/>
      <point x="388" y="72"/>
      <point x="324" y="18"/>
      <point x="249" y="18" type="curve" smooth="yes"/>
      <point x="160" y="18"/>
      <point x="102" y="93"/>
      <point x="102" y="263" type="curve" smooth="yes"/>
      <point x="102" y="418"/>
      <point x="172" y="503"/>
      <point x="255" y="503" type="curve" smooth="yes"/>
    </contour>
    <contour>
      <point x="282" y="520" type="move" name="top"/>
    </contour>
  </outline>
</glyph>
<glyph name="beta" format="1">
  <advance width="577"/>
  <unicode hex="03B2"/>
  <outline>
    <contour>
      <point x="193" y="738"/>
      <point x="115" y="668"/>
      <point x="115" y="541" type="curve" smooth="yes"/>
      <point x="115" y="-199" type="line"/>
      <point x="146" y="-193" type="line"/>
      <point x="146" y="539" type="line" smooth="yes"/>
      <point x="146" y="657"/>
      <point x="211" y="710"/>
      <point x="297" y="710" type="curve" smooth="yes"/>
      <point x="368" y="710"/>
      <point x="442" y="675"/>
      <point x="443" y="567" type="curve"/>
      <point x="442" y="437"/>
      <point x="331" y="412"/>
      <point x="264" y="412" type="curve" smooth="yes"/>
      <point x="222" y="412" type="line"/>
      <point x="218" y="385" type="line"/>
      <point x="262" y="385" type="line" smooth="yes"/>
      <point x="400" y="385"/>
      <point x="489" y="320"/>
      <point x="490" y="198" type="curve" smooth="yes"/>
      <point x="491" y="89"/>
      <point x="416" y="18"/>
      <point x="321" y="18" type="curve" smooth="yes"/>
      <point x="238" y="18"/>
      <point x="196" y="44"/>
      <point x="136" y="116" type="curve"/>
      <point x="123" y="97" type="line"/>
      <point x="178" y="22"/>
      <point x="237" y="-10"/>
      <point x="322" y="-10" type="curve" smooth="yes"/>
      <point x="427" y="-10"/>
      <point x="520" y="65"/>
      <point x="521" y="198" type="curve" smooth="yes"/>
      <point x="522" y="328"/>
      <point x="430" y="398"/>
      <point x="309" y="399" type="curve"/>
      <point x="413" y="408"/>
      <point x="474" y="465"/>
      <point x="474" y="569" type="curve"/>
      <point x="473" y="686"/>
      <point x="384" y="738"/>
      <point x="297" y="738" type="curve" smooth="yes"/>
    </contour>
  </outline>
</glyph>
<glyph name="gamma" format="1">
  <advance width="445"/>
  <unicode hex="03B3"/>
  <outline>
    <contour>
      <point x="15" y="516" type="line"/>
      <point x="75" y="436"/>
      <point x="133" y="298"/>
      <point x="207" y="11" type="curve"/>
      <point x="177" y="-70"/>
      <point x="180" y="-125"/>
      <point x="205" y="-198" type="curve"/>
      <point x="229" y="-195" type="line"/>
      <point x="207" y="-117"/>
      <point x="212" y="-62"/>
      <point x="241" y="17" type="curve" smooth="yes"/>
      <point x="425" y="518" type="line"/>
      <point x="393" y="526" type="line"/>
      <point x="224" y="47" type="line"/>
      <point x="157" y="330"/>
      <point x="97" y="456"/>
      <point x="44" y="525" type="curve"/>
    </contour>
  </outline>
</glyph>
<glyph name="epsilon" format="1">
  <advance width="453"/>
  <unicode hex="03B5"/>
  <outline>
    <contour>
      <point x="162" y="530"/>
      <point x="91" y="482"/>
      <point x="91" y="397" type="curve" smooth="yes"/>
      <point x="91" y="332"/>
      <point x="128" y="290"/>
      <point x="201" y="274" type="curve"/>
      <point x="122" y="268"/>
      <point x="70" y="232"/>
      <point x="70" y="139" type="curve" smooth="yes"/>
      <point x="70" y="44"/>
      <point x="148" y="-10"/>
      <point x="252" y="-10" type="curve" smooth="yes"/>
      <point x="331" y="-10"/>
      <point x="381" y="17"/>
      <point x="423" y="53" type="curve"/>
      <point x="406" y="74" type="line"/>
      <point x="362" y="39"/>
      <point x="326" y="18"/>
      <point x="253" y="18" type="curve" smooth="yes"/>
      <point x="163" y="18"/>
      <point x="101" y="60"/>
      <point x="101" y="137" type="curve" smooth="yes"/>
      <point x="101" y="230"/>
      <point x="156" y="259"/>
      <point x="258" y="259" type="curve" smooth="yes"/>
      <point x="315" y="259" type="line"/>
      <point x="319" y="286" type="line"/>
      <point x="261" y="286" type="line" smooth="yes"/>
      <point x="175" y="286"/>
      <point x="122" y="333"/>
      <point x="122" y="395" type="curve" smooth="yes"/>
      <point x="122" y="460"/>
      <point x="171" y="502"/>
      <point x="259" y="502" type="curve" smooth="yes"/>
      <point x="317" y="502"/>
      <point x="357" y="487"/>
      <point x="391" y="463" type="curve"/>
      <point x="410" y="485" type="line"/>
      <point x="374" y="509"/>
      <point x="328" y="530"/>
      <point x="257" y="530" type="curve" smooth="yes"/>
    </contour>
    <contour>
      <point x="257" y="520" type="move" name="top"/>
    </contour>
  </outline>
</glyph>
<glyph name="theta" format="1">
  <advance width="553"/>
  <unicode hex="03B8"/>
  <outline>
    <contour>
      <point x="141" y="738"/>
      <point x="70" y="614"/>
      <point x="70" y="367" type="curve" smooth="yes"/>
      <point x="70" y="117"/>
      <point x="132" y="-10"/>
      <point x="274" y="-10" type="curve" smooth="yes"/>
      <point x="422" y="-10"/>
      <point x="483" y="119"/>
      <point x="483" y="369" type="curve" smooth="yes"/>
      <point x="483" y="598"/>
      <point x="423" y="738"/>
      <point x="279" y="738" type="curve" smooth="yes"/>
    </contour>
    <contour>
      <point x="399" y="710"/>
      <point x="452" y="597"/>
      <point x="452" y="371" type="curve" smooth="yes"/>
      <point x="452" y="137"/>
      <point x="399" y="18"/>
      <point x="274" y="18" type="curve" smooth="yes"/>
      <point x="155" y="18"/>
      <point x="99" y="139"/>
      <point x="101" y="369" type="curve" smooth="yes"/>
      <point x="102" y="597"/>
      <point x="156" y="710"/>
      <point x="279" y="710" type="curve" smooth="yes"/>
    </contour>
    <contour>
      <point x="457" y="382" type="line"/>
      <point x="95" y="382" type="line"/>
      <point x="95" y="355" type="line"/>
      <point x="458" y="355" type="line"/>
    </contour>
  </outline>
</glyph>
<glyph name="iota" format="1">
  <advance width="253"/>
  <unicode hex="03B9"/>
  <outline>
    <contour>
      <point x="110" y="520" type="line"/>
      <point x="110" y="110" type="line" smooth="yes"/>
      <point x="110" y="43"/>
      <point x="128" y="13"/>
      <point x="179" y="-5" type="curve"/>
      <point x="188" y="21" type="line"/>
      <point x="154" y="34"/>
      <point x="140" y="54"/>
      <point x="140" y="110" type="curve" smooth="yes"/>
      <point x="140" y="520" type="line"/>
    </contour>
    <contour>
      <point x="125" y="520" type="move" name="top"/>
    </contour>
  </outline>
</glyph>
<glyph name="kappa" format="1">
  <advance width="484"/>
  <unicode hex="03BA"/>
  <outline>
    <contour>
      <point x="155" y="269" type="line"/>
      <point x="392" y="34" type="line" smooth="yes"/>
      <point x="415" y="11"/>
      <point x="428" y="-1"/>
      <point x="457" y="-8" type="curve"/>
      <point x="466" y="16" type="line"/>
      <point x="446" y="24"/>
      <point x="432" y="33"/>
      <point x="408" y="57" type="curve" smooth="yes"/>
      <point x="194" y="270" type="line"/>
      <point x="439" y="517" type="line"/>
      <point x="414" y="530" type="line"/>
    </contour>
    <contour>
      <point x="95" y="521" type="line"/>
      <point x="107" y="481"/>
      <point x="117" y="432"/>
      <point x="117" y="354" type="curve" smooth="yes"/>
      <point x="117" y="0" type="line"/>
      <point x="147" y="0" type="line"/>
      <point x="147" y="349" type="line"/>
      <point x="147" y="450"/>
      <point x="135" y="486"/>
      <point x="124" y="525" type="curve"/>
    </contour>
  </outline>
</glyph>
<glyph name="lambda" format="1">
  <advance width="454"/>
  <unicode hex="03BB"/>
  <outline>
    <contour>
      <point x="83" y="715" type="line"/>
      <point x="182" y="691"/>
      <point x="212" y="633"/>
      <point x="236" y="520" type="curve"/>
      <point x="223" y="520" type="line"/>
      <point x="40" y="1" type="line"/>
      <point x="69" y="-6" type="line"/>
      <point x="241" y="490" type="line"/>
      <point x="305" y="165"/>
      <point x="369" y="82"/>
      <point x="431" y="-6" type="curve"/>
      <point x="459" y="5" type="line"/>
      <point x="398" y="93"/>
      <point x="332" y="171"/>
      <point x="266" y="510" type="curve" smooth="yes"/>
      <point x="239" y="649"/>
      <point x="204" y="712"/>
      <point x="87" y="738" type="curve"/>
    </contour>
  </outline>
</glyph>
<glyph name="mu" format="1">
  <advance width="583"/>
  <unicode hex="03BC"/>
  <outline>
    <contour>
      <point x="433" y="160" type="line"/>
      <point x="391" y="75"/>
      <point x="336" y="18"/>
      <point x="259" y="18" type="curve" smooth="yes"/>
      <point x="204" y="18"/>
      <point x="145" y="51"/>
      <point x="145" y="145" type="curve" smooth="yes"/>
      <point x="145" y="520" type="line"/>
      <point x="115" y="520" type="line"/>
      <point x="115" y="-195" type="line"/>
      <point x="145" y="-193" type="line"/>
      <point x="145" y="-67" type="line" smooth="yes"/>
      <point x="145" y="-18"/>
      <point x="144" y="17"/>
      <point x="140" y="66" type="curve"/>
      <point x="155" y="19"/>
      <point x="197" y="-10"/>
      <point x="259" y="-10" type="curve" smooth="yes"/>
      <point x="351" y="-10"/>
      <point x="403" y="55"/>
      <point x="443" y="131" type="curve"/>
    </contour>
    <contour>
      <point x="433" y="133" type="line"/>
      <point x="436" y="67"/>
      <point x="444" y="40"/>
      <point x="461" y="-7" type="curve"/>
      <point x="488" y="-4" type="line"/>
      <point x="470" y="47"/>
      <point x="459" y="97"/>
      <point x="459" y="174" type="curve" smooth="yes"/>
      <point x="459" y="520" type="line"/>
      <point x="429" y="520" type="line"/>
      <point x="429" y="145" type="line"/>
    </contour>
  </outline>
</glyph>
<glyph name="nu" format="1">
  <advance width="445"/>
  <unicode hex="03BD"/>
  <outline>
    <contour>
      <point x="15" y="516" type="line"/>
      <point x="75" y="436"/>
      <point x="132" y="292"/>
      <point x="200" y="0" type="curve"/>
      <point x="236" y="0" type="line"/>
      <point x="425" y="518" type="line"/>
      <point x="395" y="525" type="line"/>
      <point x="219" y="26" type="line"/>
      <point x="156" y="314"/>
      <point x="98" y="455"/>
      <point x="44" y="525" type="curve"/>
    </contour>
  </outline>
</glyph>
<glyph name="xi" format="1">
  <advance width="412"/>
  <unicode hex="03BE"/>
  <outline>
    <contour>
      <point x="164" y="738"/>
      <point x="100" y="674"/>
      <point x="100" y="584" type="curve" smooth="yes"/>
      <point x="100" y="503"/>
      <point x="144" y="460"/>
      <point x="217" y="444" type="curve"/>
      <point x="137" y="436"/>
      <point x="60" y="378"/>
      <point x="60" y="260" type="curve" smooth="yes"/>
      <point x="60" y="127"/>
      <point x="130" y="92"/>
      <point x="242" y="49" type="curve" smooth="yes"/>
      <point x="348" y="8"/>
      <point x="370" y="-16"/>
      <point x="370" y="-61" type="curve"/>
      <point x="370" y="-117"/>
      <point x="327" y="-149"/>
      <point x="267" y="-177" type="curve"/>
      <point x="280" y="-199" type="line"/>
      <point x="362" y="-161"/>
      <point x="402" y="-120"/>
      <point x="402" y="-60" type="curve" smooth="yes"/>
      <point x="402" y="1"/>
      <point x="364" y="32"/>
      <point x="255" y="73" type="curve" smooth="yes"/>
      <point x="136" y="117"/>
      <point x="91" y="154"/>
      <point x="91" y="259" type="curve" smooth="yes"/>
      <point x="91" y="352"/>
      <point x="149" y="429"/>
      <point x="272" y="429" type="curve" smooth="yes"/>
      <point x="327" y="429" type="line"/>
      <point x="331" y="456" type="line"/>
      <point x="279" y="456" type="line" smooth="yes"/>
      <point x="186" y="456"/>
      <point x="131" y="501"/>
      <point x="131" y="584" type="curve" smooth="yes"/>
      <point x="131" y="652"/>
      <point x="171" y="710"/>
      <point x="269" y="710" type="curve" smooth="yes"/>
      <point x="326" y="710"/>
      <point x="360" y="696"/>
      <point x="401" y="669" type="curve"/>
      <point x="417" y="692" type="line"/>
      <point x="374" y="720"/>
      <point x="333" y="738"/>
      <point x="267" y="738" type="curve" smooth="yes"/>
    </contour>
  </outline>
</glyph>
<glyph name="pi" format="1">
  <advance width="579"/>
  <unicode hex="03C0"/>
  <outline>
    <contour>
      <point x="409" y="499" type="line"/>
      <point x="409" y="110" type="line"/>
      <point x="409" y="43"/>
      <point x="427" y="13"/>
      <point x="478" y="-5" type="curve"/>
      <point x="487" y="21" type="line"/>
      <point x="453" y="34"/>
      <point x="439" y="54"/>
      <point x="439" y="110" type="curve"/>
      <point x="439" y="499" type="line"/>
    </contour>
    <contour>
      <point x="138" y="502" type="line"/>
      <point x="138" y="0" type="line"/>
      <point x="168" y="0" type="line"/>
      <point x="168" y="502" type="line"/>
    </contour>
    <contour>
      <point x="66" y="490"/>
      <point x="80" y="491"/>
      <point x="114" y="491" type="curve" smooth="yes"/>
      <point x="525" y="491" type="line"/>
      <point x="525" y="520" type="line"/>
      <point x="110" y="520" type="line"/>
      <point x="78" y="520"/>
      <point x="57" y="518"/>
      <point x="33" y="508" type="curve"/>
      <point x="41" y="482" type="line"/>
    </contour>
  </outline>
</glyph>
<glyph name="rho" format="1">
  <advance width="560"/>
  <unicode hex="03C1"/>
  <outline>
    <contour>
      <point x="165" y="530"/>
      <point x="105" y="430"/>
      <point x="105" y="297" type="curve" smooth="yes"/>
      <point x="105" y="-199" type="line"/>
      <point x="135" y="-193" type="line"/>
      <point x="135" y="91" type="line"/>
      <point x="135" y="113" type="line"/>
      <point x="135" y="293" type="line" smooth="yes"/>
      <point x="135" y="422"/>
      <point x="188" y="502"/>
      <point x="294" y="502" type="curve" smooth="yes"/>
      <point x="399" y="502"/>
      <point x="453" y="418"/>
      <point x="453" y="264" type="curve" smooth="yes"/>
      <point x="453" y="98"/>
      <point x="392" y="18"/>
      <point x="293" y="18" type="curve"/>
      <point x="220" y="18"/>
      <point x="165" y="60"/>
      <point x="130" y="129" type="curve"/>
      <point x="126" y="96" type="line"/>
      <point x="156" y="36"/>
      <point x="215" y="-10"/>
      <point x="294" y="-10" type="curve"/>
      <point x="409" y="-10"/>
      <point x="485" y="81"/>
      <point x="485" y="264" type="curve" smooth="yes"/>
      <point x="485" y="427"/>
      <point x="419" y="530"/>
      <point x="295" y="530" type="curve" smooth="yes"/>
    </contour>
  </outline>
</glyph>
<glyph name="sigma" format="1">
  <advance width="568"/>
  <unicode hex="03C3"/>
  <outline>
    <contour>
      <point x="448" y="524"/>
      <point x="381" y="528"/>
      <point x="318" y="528" type="curve" smooth="yes"/>
      <point x="146" y="528"/>
      <point x="70" y="420"/>
      <point x="70" y="259" type="curve"/>
      <point x="70" y="91"/>
      <point x="150" y="-10"/>
      <point x="280" y="-10" type="curve" smooth="yes"/>
      <point x="408" y="-10"/>
      <point x="491" y="89"/>
      <point x="491" y="262" type="curve"/>
      <point x="491" y="390"/>
      <point x="439" y="473"/>
      <point x="365" y="510" type="curve"/>
      <point x="326" y="509" type="line"/>
      <point x="405" y="473"/>
      <point x="460" y="392"/>
      <point x="460" y="262" type="curve"/>
      <point x="460" y="103"/>
      <point x="390" y="18"/>
      <point x="280" y="18" type="curve" smooth="yes"/>
      <point x="169" y="18"/>
      <point x="101" y="105"/>
      <point x="101" y="259" type="curve"/>
      <point x="101" y="413"/>
      <point x="166" y="506"/>
      <point x="334" y="505" type="curve"/>
      <point x="364" y="504" type="line"/>
      <point x="511" y="495" type="line"/>
      <point x="511" y="520" type="line"/>
    </contour>
  </outline>
</glyph>
<glyph name="tau" format="1">
  <advance width="438"/>
  <unicode hex="03C4"/>
  <outline>
    <contour>
      <point x="198" y="499" type="line"/>
      <point x="198" y="110" type="line"/>
      <point x="198" y="43"/>
      <point x="216" y="13"/>
      <point x="267" y="-5" type="curve"/>
      <point x="276" y="21" type="line"/>
      <point x="242" y="34"/>
      <point x="228" y="54"/>
      <point x="228" y="110" type="curve"/>
      <point x="228" y="499" type="line"/>
    </contour>
    <contour>
      <point x="39" y="490"/>
      <point x="53" y="491"/>
      <point x="87" y="491" type="curve" smooth="yes"/>
      <point x="425" y="491" type="line"/>
      <point x="425" y="520" type="line"/>
      <point x="83" y="520" type="line"/>
      <point x="51" y="520"/>
      <point x="30" y="518"/>
      <point x="6" y="508" type="curve"/>
      <point x="14" y="482" type="line"/>
    </contour>
  </outline>
</glyph>
<glyph name="psi" format="1">
  <advance width="737"/>
  <unicode hex="03C8"/>
  <outline>
    <contour>
      <point x="590" y="520" type="line"/>
      <point x="607" y="430"/>
      <point x="616" y="362"/>
      <point x="616" y="272" type="curve"/>
      <point x="616" y="86"/>
      <point x="534" y="21"/>
      <point x="375" y="18" type="curve"/>
      <point x="375" y="-10" type="line"/>
      <point x="551" y="-4"/>
      <point x="647" y="68"/>
      <point x="647" y="273" type="curve"/>
      <point x="647" y="363"/>
      <point x="638" y="430"/>
      <point x="621" y="520" type="curve"/>
    </contour>
    <contour>
      <point x="101" y="520" type="line"/>
      <point x="100" y="200" type="line" smooth="yes"/>
      <point x="100" y="56"/>
      <point x="193" y="-10"/>
      <point x="361" y="-10" type="curve"/>
      <point x="362" y="18" type="line"/>
      <point x="209" y="18"/>
      <point x="130" y="73"/>
      <point x="130" y="199" type="curve" smooth="yes"/>
      <point x="131" y="520" type="line"/>
    </contour>
    <contour>
      <point x="353" y="520" type="line"/>
      <point x="353" y="-199" type="line"/>
      <point x="383" y="-193" type="line"/>
      <point x="383" y="520" type="line"/>
    </contour>
  </outline>
</glyph>
<glyph name="omega" format="1">
  <advance width="770"/>
  <unicode hex="03C9"/>
  <outline>
    <contour>
      <point x="601" y="520" type="line"/>
      <point x="626" y="460"/>
      <point x="654" y="358"/>
      <point x="654" y="233" type="curve" smooth="yes"/>
      <point x="654" y="58"/>
      <point x="583" y="18"/>
      <point x="515" y="18" type="curve" smooth="yes"/>
      <point x="456" y="18"/>
      <point x="400" y="54"/>
      <point x="400" y="177" type="curve"/>
      <point x="400" y="356" type="line"/>
      <point x="369" y="351" type="line"/>
      <point x="369" y="178" type="line" smooth="yes"/>
      <point x="369" y="58"/>
      <point x="314" y="18"/>
      <point x="250" y="18" type="curve" smooth="yes"/>
      <point x="182" y="18"/>
      <point x="116" y="66"/>
      <point x="116" y="235" type="curve" smooth="yes"/>
      <point x="116" y="341"/>
      <point x="139" y="435"/>
      <point x="172" y="520" type="curve"/>
      <point x="141" y="520" type="line"/>
      <point x="115" y="453"/>
      <point x="85" y="362"/>
      <point x="85" y="237" type="curve" smooth="yes"/>
      <point x="85" y="63"/>
      <point x="152" y="-10"/>
      <point x="251" y="-10" type="curve" smooth="yes"/>
      <point x="319" y="-10"/>
      <point x="372" y="27"/>
      <point x="385" y="116" type="curve"/>
      <point x="393" y="27"/>
      <point x="449" y="-10"/>
      <point x="518" y="-10" type="curve" smooth="yes"/>
      <point x="599" y="-10"/>
      <point x="685" y="39"/>
      <point x="685" y="235" type="curve" smooth="yes"/>
      <point x="685" y="342"/>
      <point x="662" y="446"/>
      <point x="632" y="520" type="curve"/>
    </contour>
    <contour>
      <point x="388" y="520" type="move" name="top"/>
    </contour>
  </outline>
</glyph>
<glyph name="uni0402" format="1">
  <advance width="687"/>
  <unicode hex="0402"/>
  <outline>
    <contour>
      <point x="15" y="682" type="line"/>
      <point x="15" y="652" type="line"/>
      <point x="223" y="652" type="line"/>
      <point x="223" y="0" type="line"/>
      <point x="254" y="0" type="line"/>
      <point x="254" y="652" type="line"/>
      <point x="462" y="652" type="line"/>
      <point x="467" y="682" type="line"/>
    </contour>
    <contour>
      <point x="359" y="424"/>
      <point x="299" y="387"/>
      <point x="248" y="327" type="curve"/>
      <point x="248" y="287" type="line"/>
      <point x="305" y="360"/>
      <point x="365" y="395"/>
      <point x="446" y="395" type="curve" smooth="yes"/>
      <point x="556" y="395"/>
      <point x="601" y="332"/>
      <point x="601" y="241" type="curve" smooth="yes"/>
      <point x="601" y="90" type="line" smooth="yes"/>
      <point x="601" y="-3"/>
      <point x="578" y="-37"/>
      <point x="487" y="-81" type="curve"/>
      <point x="496" y="-104" type="line"/>
      <point x="608" y="-54"/>
      <point x="632" y="-15"/>
      <point x="632" y="88" type="curve" smooth="yes"/>
      <point x="632" y="243" type="line" smooth="yes"/>
      <point x="632" y="353"/>
      <point x="571" y="424"/>
      <point x="447" y="424" type="curve" smooth="yes"/>
    </contour>
  </outline>
</glyph>
<glyph name="uni0409" format="1">
  <advance width="882"/>
  <unicode hex="0409"/>
  <outline>
    <contour>
      <point x="461" y="672" type="line"/>
      <point x="461" y="0" type="line"/>
      <point x="607" y="0" type="line" smooth="yes"/>
      <point x="742" y="0"/>
      <point x="837" y="61"/>
      <point x="837" y="208" type="curve" smooth="yes"/>
      <point x="837" y="345"/>
      <point x="746" y="404"/>
      <point x="607" y="404" type="curve" smooth="yes"/>
      <point x="485" y="404" type="line"/>
      <point x="485" y="375" type="line"/>
      <point x="610" y="375" type="line" smooth="yes"/>
      <point x="727" y="375"/>
      <point x="805" y="327"/>
      <point x="805" y="210" type="curve" smooth="yes"/>
      <point x="805" y="82"/>
      <point x="730" y="29"/>
      <point x="615" y="29" type="curve" smooth="yes"/>
      <point x="492" y="29" type="line"/>
      <point x="492" y="682" type="line"/>
    </contour>
    <contour>
      <point x="131" y="290" type="line" smooth="yes"/>
      <point x="105" y="84"/>
      <point x="103" y="43"/>
      <point x="41" y="20" type="curve"/>
      <point x="50" y="-6" type="line"/>
      <point x="134" y="24"/>
      <point x="135" y="75"/>
      <point x="162" y="288" type="curve" smooth="yes"/>
      <point x="209" y="657" type="line"/>
      <point x="181" y="682" type="line"/>
    </contour>
    <contour>
      <point x="181" y="682" type="line"/>
      <point x="200" y="653" type="line"/>
      <point x="461" y="653" type="line"/>
      <point x="492" y="682" type="line"/>
    </contour>
  </outline>
</glyph>
<glyph name="uni040B" format="1">
  <advance width="687"/>
  <unicode hex="040B"/>
  <outline>
    <contour>
      <point x="15" y="682" type="line"/>
      <point x="15" y="652" type="line"/>
      <point x="462" y="652" type="line"/>
      <point x="467" y="682" type="line"/>
    </contour>
    <component base="uni04BA" xOffset="103"/>
  </outline>
</glyph>
<glyph name="uni0411" format="1">
  <advance width="561"/>
  <unicode hex="0411"/>
  <outline>
    <contour>
      <point x="120" y="682" type="line"/>
      <point x="120" y="0" type="line"/>
      <point x="276" y="0" type="line" smooth="yes"/>
      <point x="411" y="0"/>
      <point x="506" y="64"/>
      <point x="506" y="211" type="curve" smooth="yes"/>
      <point x="506" y="343"/>
      <point x="420" y="408"/>
      <point x="276" y="408" type="curve" smooth="yes"/>
      <point x="144" y="408" type="line"/>
      <point x="144" y="379" type="line"/>
      <point x="279" y="379" type="line" smooth="yes"/>
      <point x="401" y="379"/>
      <point x="474" y="327"/>
      <point x="474" y="212" type="curve" smooth="yes"/>
      <point x="474" y="83"/>
      <point x="399" y="29"/>
      <point x="284" y="29" type="curve" smooth="yes"/>
      <point x="151" y="29" type="line"/>
      <point x="151" y="672" type="line"/>
    </contour>
    <contour>
      <point x="120" y="682" type="line"/>
      <point x="140" y="653" type="line"/>
      <point x="437" y="653" type="line"/>
      <point x="443" y="682" type="line"/>
    </contour>
  </outline>
</glyph>
<glyph name="uni0417" format="1">
  <advance width="519"/>
  <unicode hex="0417"/>
  <outline>
    <contour>
      <point x="170" y="692"/>
      <point x="110" y="662"/>
      <point x="51" y="609" type="curve"/>
      <point x="70" y="589" type="line"/>
      <point x="121" y="633"/>
      <point x="177" y="663"/>
      <point x="249" y="663" type="curve" smooth="yes"/>
      <point x="347" y="663"/>
      <point x="406" y="608"/>
      <point x="406" y="527" type="curve"/>
      <point x="406" y="432"/>
      <point x="337" y="383"/>
      <point x="236" y="383" type="curve" smooth="yes"/>
      <point x="185" y="383" type="line"/>
      <point x="181" y="354" type="line"/>
      <point x="241" y="355" type="line" smooth="yes"/>
      <point x="361" y="357"/>
      <point x="427" y="297"/>
      <point x="427" y="195" type="curve" smooth="yes"/>
      <point x="427" y="83"/>
      <point x="348" y="19"/>
      <point x="238" y="19" type="curve" smooth="yes"/>
      <point x="160" y="19"/>
      <point x="100" y="51"/>
      <point x="51" y="101" type="curve"/>
      <point x="30" y="82" type="line"/>
      <point x="89" y="21"/>
      <point x="157" y="-10"/>
      <point x="238" y="-10" type="curve" smooth="yes"/>
      <point x="366" y="-10"/>
      <point x="459" y="66"/>
      <point x="459" y="196" type="curve" smooth="yes"/>
      <point x="459" y="306"/>
      <point x="391" y="361"/>
      <point x="308" y="370" type="curve"/>
      <point x="383" y="386"/>
      <point x="438" y="435"/>
      <point x="438" y="525" type="curve" smooth="yes"/>
      <point x="438" y="625"/>
      <point x="369" y="692"/>
      <point x="250" y="692" type="curve" smooth="yes"/>
    </contour>
    <contour>
      <point x="258" y="682" type="move" name="top"/>
    </contour>
    <contour>
      <point x="257" y="0" type="move" name="bottom"/>
    </contour>
  </outline>
</glyph>
<glyph name="uni041B" format="1">
  <advance width="637"/>
  <unicode hex="041B"/>
  <outline>
    <contour>
      <point x="181" y="682" type="line"/>
      <point x="197" y="653" type="line"/>
      <point x="486" y="653" type="line"/>
      <point x="486" y="0" type="line"/>
      <point x="517" y="0" type="line"/>
      <point x="517" y="682" type="line"/>
    </contour>
    <contour>
      <point x="131" y="290" type="line" smooth="yes"/>
      <point x="105" y="84"/>
      <point x="103" y="43"/>
      <point x="41" y="20" type="curve"/>
      <point x="50" y="-6" type="line"/>
      <point x="134" y="24"/>
      <point x="135" y="75"/>
      <point x="162" y="288" type="curve" smooth="yes"/>
      <point x="209" y="657" type="line"/>
      <point x="181" y="682" type="line"/>
    </contour>
  </outline>
</glyph>
<glyph name="uni041F" format="1">
  <advance width="657"/>
  <unicode hex="041F"/>
  <outline>
    <contour>
      <point x="120" y="682" type="line"/>
      <point x="120" y="0" type="line"/>
      <point x="151" y="0" type="line"/>
      <point x="151" y="653" type="line"/>
      <point x="506" y="653" type="line"/>
      <point x="506" y="0" type="line"/>
      <point x="537" y="0" type="line"/>
      <point x="537" y="682" type="line"/>
    </contour>
    <contour>
      <point x="547" y="0" type="move" name="bottomright"/>
    </contour>
  </outline>
</glyph>
<glyph name="uni0423" format="1">
  <advance width="501"/>
  <unicode hex="0423"/>
  <outline>
    <contour>
      <point x="458" y="682" type="line"/>
      <point x="269" y="218" type="line"/>
      <point x="49" y="682" type="line"/>
      <point x="15" y="682" type="line"/>
      <point x="249" y="194" type="line"/>
      <point x="257" y="194" type="line"/>
      <point x="202" y="59"/>
      <point x="181" y="40"/>
      <point x="98" y="15" type="curve"/>
      <point x="106" y="-10" type="line"/>
      <point x="209" y="20"/>
      <point x="227" y="49"/>
      <point x="287" y="193" type="curve" smooth="yes"/>
      <point x="491" y="682" type="line"/>
    </contour>
    <contour>
      <point x="261" y="682" type="move" name="top"/>
    </contour>
  </outline>
</glyph>
<glyph name="uni0427" format="1">
  <advance width="579"/>
  <unicode hex="0427"/>
  <outline>
    <contour>
      <point x="50" y="682" type="line"/>
      <point x="50" y="415" type="line" smooth="yes"/>
      <point x="50" y="297"/>
      <point x="127" y="228"/>
      <point x="239" y="228" type="curve" smooth="yes"/>
      <point x="325" y="228"/>
      <point x="387" y="265"/>
      <point x="434" y="317" type="curve"/>
      <point x="433" y="353" type="line"/>
      <point x="393" y="296"/>
      <point x="322" y="257"/>
      <point x="243" y="257" type="curve" smooth="yes"/>
      <point x="143" y="257"/>
      <point x="81" y="315"/>
      <point x="81" y="417" type="curve" smooth="yes"/>
      <point x="81" y="682" type="line"/>
    </contour>
    <contour>
      <point x="428" y="682" type="line"/>
      <point x="428" y="0" type="line"/>
      <point x="459" y="0" type="line"/>
      <point x="459" y="682" type="line"/>
    </contour>
    <contour>
      <point x="255" y="682" type="move" name="top"/>
    </contour>
    <contour>
      <point x="469" y="0" type="move" name="bottomright"/>
    </contour>
    <contour>
      <point x="408" y="0" type="move" name="bottomleft"/>
    </contour>
  </outline>
</glyph>
<glyph name="uni042C" format="1">
  <advance width="551"/>
  <unicode hex="042C"/>
  <outline>
    <contour>
      <point x="120" y="0" type="line"/>
      <point x="276" y="0" type="line" smooth="yes"/>
      <point x="411" y="0"/>
      <point x="506" y="64"/>
      <point x="506" y="213" type="curve" smooth="yes"/>
      <point x="506" y="348"/>
      <point x="420" y="412"/>
      <point x="276" y="412" type="curve" smooth="yes"/>
      <point x="144" y="412" type="line"/>
      <point x="144" y="383" type="line"/>
      <point x="279" y="383" type="line" smooth="yes"/>
      <point x="401" y="383"/>
      <point x="474" y="331"/>
      <point x="474" y="214" type="curve" smooth="yes"/>
      <point x="474" y="83"/>
      <point x="399" y="29"/>
      <point x="284" y="29" type="curve" smooth="yes"/>
      <point x="151" y="29" type="line"/>
      <point x="151" y="682" type="line"/>
      <point x="120" y="682" type="line"/>
    </contour>
  </outline>
</glyph>
<glyph name="uni042D" format="1">
  <advance width="528"/>
  <unicode hex="042D"/>
  <outline>
    <contour>
      <point x="148" y="692"/>
      <point x="90" y="670"/>
      <point x="35" y="627" type="curve"/>
      <point x="52" y="605" type="line"/>
      <point x="113" y="648"/>
      <point x="157" y="663"/>
      <point x="222" y="663" type="curve" smooth="yes"/>
      <point x="337" y="663"/>
      <point x="417" y="570"/>
      <point x="422" y="352" type="curve"/>
      <point x="422" y="341" type="line"/>
      <point x="422" y="130"/>
      <point x="351" y="20"/>
      <point x="216" y="20" type="curve"/>
      <point x="143" y="20"/>
      <point x="100" y="46"/>
      <point x="54" y="83" type="curve"/>
      <point x="35" y="61" type="line"/>
      <point x="79" y="24"/>
      <point x="132" y="-10"/>
      <point x="217" y="-10" type="curve"/>
      <point x="373" y="-10"/>
      <point x="453" y="115"/>
      <point x="453" y="341" type="curve" smooth="yes"/>
      <point x="453" y="588"/>
      <point x="356" y="692"/>
      <point x="223" y="692" type="curve" smooth="yes"/>
    </contour>
    <contour>
      <point x="131" y="370" type="line"/>
      <point x="131" y="341" type="line"/>
      <point x="428" y="341" type="line"/>
      <point x="428" y="370" type="line"/>
    </contour>
    <contour>
      <point x="221" y="682" type="move" name="top"/>
    </contour>
  </outline>
</glyph>
<glyph name="uni042E" format="1">
  <advance width="861"/>
  <unicode hex="042E"/>
  <outline>
    <contour>
      <point x="373" y="692"/>
      <point x="270" y="567"/>
      <point x="266" y="356" type="curve"/>
      <point x="266" y="345" type="line"/>
      <point x="267" y="111"/>
      <point x="369" y="-10"/>
      <point x="526" y="-10" type="curve" smooth="yes"/>
      <point x="689" y="-10"/>
      <point x="786" y="118"/>
      <point x="786" y="340" type="curve" smooth="yes"/>
      <point x="786" y="571"/>
      <point x="685" y="692"/>
      <point x="526" y="692" type="curve" smooth="yes"/>
    </contour>
    <contour>
      <point x="120" y="682" type="line"/>
      <point x="120" y="0" type="line"/>
      <point x="151" y="0" type="line"/>
      <point x="151" y="341" type="line"/>
      <point x="279" y="341" type="line"/>
      <point x="279" y="370" type="line"/>
      <point x="151" y="370" type="line"/>
      <point x="151" y="682" type="line"/>
    </contour>
    <contour>
      <point x="665" y="663"/>
      <point x="754" y="556"/>
      <point x="754" y="340" type="curve" smooth="yes"/>
      <point x="754" y="129"/>
      <point x="670" y="19"/>
      <point x="526" y="19" type="curve" smooth="yes"/>
      <point x="390" y="19"/>
      <point x="298" y="126"/>
      <point x="298" y="345" type="curve" smooth="yes"/>
      <point x="298" y="552"/>
      <point x="389" y="663"/>
      <point x="526" y="663" type="curve"/>
    </contour>
  </outline>
</glyph>
<glyph name="uni0431" format="1">
  <advance width="554"/>
  <unicode hex="0431"/>
  <outline>
    <contour>
      <point x="369" y="707"/>
      <point x="326" y="689"/>
      <point x="253" y="662" type="curve" smooth="yes"/>
      <point x="98" y="605"/>
      <point x="70" y="500"/>
      <point x="70" y="285" type="curve" smooth="yes"/>
      <point x="70" y="85"/>
      <point x="153" y="-10"/>
      <point x="281" y="-10" type="curve" smooth="yes"/>
      <point x="405" y="-10"/>
      <point x="484" y="73"/>
      <point x="484" y="252" type="curve" smooth="yes"/>
      <point x="484" y="400"/>
      <point x="416" y="490"/>
      <point x="296" y="490" type="curve" smooth="yes"/>
      <point x="183" y="490"/>
      <point x="117" y="408"/>
      <point x="89" y="341" type="curve"/>
      <point x="92" y="295" type="line"/>
      <point x="123" y="386"/>
      <point x="193" y="462"/>
      <point x="295" y="462" type="curve" smooth="yes"/>
      <point x="395" y="462"/>
      <point x="453" y="390"/>
      <point x="453" y="248" type="curve" smooth="yes"/>
      <point x="453" y="79"/>
      <point x="381" y="18"/>
      <point x="282" y="18" type="curve" smooth="yes"/>
      <point x="163" y="18"/>
      <point x="99" y="111"/>
      <point x="101" y="282" type="curve" smooth="yes"/>
      <point x="102" y="355" type="line"/>
      <point x="99" y="355" type="line"/>
      <point x="112" y="553"/>
      <point x="166" y="601"/>
      <point x="265" y="638" type="curve" smooth="yes"/>
      <point x="341" y="666"/>
      <point x="392" y="688"/>
      <point x="426" y="713" type="curve"/>
      <point x="411" y="735" type="line"/>
    </contour>
  </outline>
</glyph>
<glyph name="uni0433" format="1">
  <advance width="418"/>
  <unicode hex="0433"/>
  <outline>
    <contour>
      <point x="145" y="492" type="line"/>
      <point x="404" y="492" type="line"/>
      <point x="408" y="520" type="line"/>
      <point x="115" y="520" type="line"/>
      <point x="115" y="0" type="line"/>
      <point x="145" y="0" type="line"/>
    </contour>
    <contour>
      <point x="262" y="520" type="move" name="top"/>
    </contour>
    <contour>
      <point x="155" y="0" type="move" name="bottomright"/>
    </contour>
  </outline>
</glyph>
<glyph name="uni0434" format="1">
  <advance width="546"/>
  <unicode hex="0434"/>
  <outline>
    <contour>
      <point x="67" y="25" type="line"/>
      <point x="118" y="53"/>
      <point x="150" y="92"/>
      <point x="165" y="317" type="curve" smooth="yes"/>
      <point x="177" y="492" type="line"/>
      <point x="399" y="492" type="line"/>
      <point x="399" y="28" type="line"/>
      <point x="40" y="28" type="line"/>
      <point x="40" y="0" type="line"/>
      <point x="431" y="0" type="line"/>
      <point x="431" y="520" type="line"/>
      <point x="147" y="520" type="line"/>
      <point x="133" y="314" type="line" smooth="yes"/>
      <point x="118" y="94"/>
      <point x="89" y="64"/>
      <point x="40" y="28" type="curve"/>
    </contour>
    <component base="descStraight-cy" xOffset="382"/>
    <component base="descStraight-cy" xOffset="104" xScale="-1"/>
  </outline>
</glyph>
<glyph name="uni0436" format="1">
  <advance width="673"/>
  <unicode hex="0436"/>
  <outline>
    <contour>
      <point x="583" y="520" type="line"/>
      <point x="454" y="290" type="line"/>
      <point x="351" y="290" type="line"/>
      <point x="351" y="520" type="line"/>
      <point x="323" y="520" type="line"/>
      <point x="323" y="290" type="line"/>
      <point x="220" y="290" type="line"/>
      <point x="92" y="520" type="line"/>
      <point x="60" y="520" type="line"/>
      <point x="195" y="279" type="line"/>
      <point x="35" y="0" type="line"/>
      <point x="66" y="0" type="line"/>
      <point x="218" y="264" type="line"/>
      <point x="323" y="264" type="line"/>
      <point x="323" y="0" type="line"/>
      <point x="351" y="0" type="line"/>
      <point x="351" y="264" type="line"/>
      <point x="454" y="264" type="line"/>
      <point x="606" y="0" type="line"/>
      <point x="638" y="0" type="line"/>
      <point x="478" y="279" type="line"/>
      <point x="613" y="520" type="line"/>
    </contour>
    <contour>
      <point x="337" y="520" type="move" name="top"/>
    </contour>
    <contour>
      <point x="629" y="0" type="move" name="bottomright"/>
    </contour>
  </outline>
</glyph>
<glyph name="uni0438" format="1">
  <advance width="586"/>
  <unicode hex="0438"/>
  <outline>
    <contour>
      <point x="437" y="520" type="line"/>
      <point x="143" y="37" type="line"/>
      <point x="145" y="86"/>
      <point x="145" y="119"/>
      <point x="145" y="156" type="curve" smooth="yes"/>
      <point x="145" y="520" type="line"/>
      <point x="115" y="520" type="line"/>
      <point x="115" y="0" type="line"/>
      <point x="150" y="0" type="line"/>
      <point x="444" y="483" type="line"/>
      <point x="442" y="452"/>
      <point x="441" y="428"/>
      <point x="441" y="394" type="curve" smooth="yes"/>
      <point x="441" y="0" type="line"/>
      <point x="471" y="0" type="line"/>
      <point x="471" y="520" type="line"/>
    </contour>
    <contour>
      <point x="293" y="520" type="move" name="top"/>
    </contour>
  </outline>
</glyph>
<glyph name="uni043B" format="1">
  <advance width="562"/>
  <unicode hex="043B"/>
  <outline>
    <contour>
      <point x="173" y="495" type="line"/>
      <point x="417" y="495" type="line"/>
      <point x="417" y="0" type="line"/>
      <point x="447" y="0" type="line"/>
      <point x="447" y="520" type="line"/>
      <point x="154" y="520" type="line"/>
    </contour>
    <contour>
      <point x="154" y="520" type="line"/>
      <point x="136" y="286" type="line" smooth="yes"/>
      <point x="120" y="80"/>
      <point x="115" y="41"/>
      <point x="52" y="19" type="curve"/>
      <point x="61" y="-6" type="line"/>
      <point x="146" y="23"/>
      <point x="149" y="68"/>
      <point x="166" y="284" type="curve" smooth="yes"/>
      <point x="182" y="495" type="line"/>
    </contour>
  </outline>
</glyph>
<glyph name="uni043D" format="1">
  <advance width="584"/>
  <unicode hex="043D"/>
  <outline>
    <contour>
      <point x="469" y="0" type="line"/>
      <point x="469" y="520" type="line"/>
      <point x="439" y="520" type="line"/>
      <point x="439" y="286" type="line"/>
      <point x="145" y="286" type="line"/>
      <point x="145" y="520" type="line"/>
      <point x="115" y="520" type="line"/>
      <point x="115" y="0" type="line"/>
      <point x="145" y="0" type="line"/>
      <point x="145" y="258" type="line"/>
      <point x="439" y="258" type="line"/>
      <point x="439" y="0" type="line"/>
    </contour>
    <contour>
      <point x="479" y="0" type="move" name="bottomright"/>
    </contour>
  </outline>
</glyph>
<glyph name="uni043F" format="1">
  <advance width="581"/>
  <unicode hex="043F"/>
  <outline>
    <contour>
      <point x="466" y="0" type="line"/>
      <point x="466" y="520" type="line"/>
      <point x="115" y="520" type="line"/>
      <point x="115" y="0" type="line"/>
      <point x="145" y="0" type="line"/>
      <point x="145" y="492" type="line"/>
      <point x="436" y="492" type="line"/>
      <point x="436" y="0" type="line"/>
    </contour>
    <contour>
      <point x="476" y="0" type="move" name="bottomright"/>
    </contour>
  </outline>
</glyph>
<glyph name="uni0444" format="1">
  <advance width="783"/>
  <unicode hex="0444"/>
  <outline>
    <contour>
      <point x="134" y="530"/>
      <point x="75" y="428"/>
      <point x="75" y="264" type="curve" smooth="yes"/>
      <point x="75" y="99"/>
      <point x="131" y="-10"/>
      <point x="239" y="-10" type="curve" smooth="yes"/>
      <point x="303" y="-10"/>
      <point x="346" y="20"/>
      <point x="385" y="78" type="curve"/>
      <point x="383" y="117" type="line"/>
      <point x="345" y="53"/>
      <point x="302" y="18"/>
      <point x="243" y="18" type="curve" smooth="yes"/>
      <point x="153" y="18"/>
      <point x="106" y="108"/>
      <point x="106" y="264" type="curve" smooth="yes"/>
      <point x="106" y="420"/>
      <point x="158" y="502"/>
      <point x="244" y="502" type="curve" smooth="yes"/>
      <point x="303" y="502"/>
      <point x="344" y="466"/>
      <point x="384" y="394" type="curve"/>
      <point x="383" y="437" type="line"/>
      <point x="348" y="497"/>
      <point x="305" y="530"/>
      <point x="243" y="530" type="curve" smooth="yes"/>
    </contour>
    <contour>
      <point x="377" y="437" type="line"/>
      <point x="377" y="416" type="line"/>
      <point x="377" y="97" type="line"/>
      <point x="377" y="77" type="line"/>
      <point x="377" y="-199" type="line"/>
      <point x="407" y="-193" type="line"/>
      <point x="407" y="77" type="line"/>
      <point x="407" y="97" type="line"/>
      <point x="407" y="418" type="line"/>
      <point x="407" y="439" type="line"/>
      <point x="407" y="734" type="line"/>
      <point x="377" y="738" type="line"/>
    </contour>
    <contour>
      <point x="491" y="530"/>
      <point x="440" y="499"/>
      <point x="401" y="440" type="curve"/>
      <point x="401" y="397" type="line"/>
      <point x="439" y="465"/>
      <point x="488" y="502"/>
      <point x="550" y="502" type="curve" smooth="yes"/>
      <point x="639" y="502"/>
      <point x="677" y="420"/>
      <point x="677" y="264" type="curve" smooth="yes"/>
      <point x="677" y="108"/>
      <point x="634" y="18"/>
      <point x="546" y="18" type="curve" smooth="yes"/>
      <point x="489" y="18"/>
      <point x="444" y="53"/>
      <point x="400" y="117" type="curve"/>
      <point x="400" y="76" type="line"/>
      <point x="441" y="23"/>
      <point x="483" y="-10"/>
      <point x="547" y="-10" type="curve" smooth="yes"/>
      <point x="657" y="-10"/>
      <point x="708" y="99"/>
      <point x="708" y="264" type="curve" smooth="yes"/>
      <point x="708" y="426"/>
      <point x="667" y="530"/>
      <point x="550" y="530" type="curve" smooth="yes"/>
    </contour>
  </outline>
</glyph>
<glyph name="uni0448" format="1">
  <advance width="796"/>
  <unicode hex="0448"/>
  <outline>
    <contour>
      <point x="651" y="520" type="line"/>
      <point x="651" y="28" type="line"/>
      <point x="412" y="28" type="line"/>
      <point x="412" y="520" type="line"/>
      <point x="383" y="520" type="line"/>
      <point x="383" y="28" type="line"/>
      <point x="145" y="28" type="line"/>
      <point x="145" y="520" type="line"/>
      <point x="115" y="520" type="line"/>
      <point x="115" y="0" type="line"/>
      <point x="681" y="0" type="line"/>
      <point x="681" y="520" type="line"/>
    </contour>
    <contour>
      <point x="691" y="0" type="move" name="bottomright"/>
    </contour>
  </outline>
</glyph>
<glyph name="uni044A" format="1">
  <advance width="533"/>
  <unicode hex="044A"/>
  <outline>
    <contour>
      <point x="188" y="520" type="line"/>
      <point x="5" y="520" type="line"/>
      <point x="5" y="492" type="line"/>
      <point x="158" y="492" type="line"/>
    </contour>
    <component base="uni044C" xOffset="42"/>
  </outline>
</glyph>
<glyph name="uni044B" format="1">
  <advance width="698"/>
  <unicode hex="044B"/>
  <outline>
    <contour>
      <point x="553" y="520" type="line"/>
      <point x="553" y="0" type="line"/>
      <point x="583" y="0" type="line"/>
      <point x="583" y="520" type="line"/>
    </contour>
    <contour>
      <point x="138" y="310" type="line"/>
      <point x="247" y="310" type="line" smooth="yes"/>
      <point x="367" y="310"/>
      <point x="410" y="260"/>
      <point x="410" y="175" type="curve" smooth="yes"/>
      <point x="410" y="69"/>
      <point x="349" y="28"/>
      <point x="249" y="28" type="curve" smooth="yes"/>
      <point x="145" y="28" type="line"/>
      <point x="145" y="520" type="line"/>
      <point x="115" y="520" type="line"/>
      <point x="115" y="0" type="line"/>
      <point x="252" y="0" type="line"/>
      <point x="363" y="0"/>
      <point x="441" y="54"/>
      <point x="441" y="175" type="curve" smooth="yes"/>
      <point x="441" y="276"/>
      <point x="384" y="338"/>
      <point x="246" y="338" type="curve" smooth="yes"/>
      <point x="138" y="338" type="line"/>
    </contour>
    <contour>
      <point x="349" y="520" type="move" name="top"/>
    </contour>
  </outline>
</glyph>
<glyph name="uni044C" format="1">
  <advance width="491"/>
  <unicode hex="044C"/>
  <outline>
    <contour>
      <point x="138" y="310" type="line"/>
      <point x="257" y="310" type="line" smooth="yes"/>
      <point x="377" y="310"/>
      <point x="420" y="260"/>
      <point x="420" y="175" type="curve" smooth="yes"/>
      <point x="420" y="69"/>
      <point x="359" y="28"/>
      <point x="259" y="28" type="curve" smooth="yes"/>
      <point x="145" y="28" type="line"/>
      <point x="145" y="520" type="line"/>
      <point x="115" y="520" type="line"/>
      <point x="115" y="0" type="line"/>
      <point x="262" y="0" type="line"/>
      <point x="373" y="0"/>
      <point x="451" y="54"/>
      <point x="451" y="175" type="curve" smooth="yes"/>
      <point x="451" y="276"/>
      <point x="394" y="338"/>
      <point x="256" y="338" type="curve" smooth="yes"/>
      <point x="138" y="338" type="line"/>
    </contour>
  </outline>
</glyph>
<glyph name="uni044F" format="1">
  <advance width="533"/>
  <unicode hex="044F"/>
  <outline>
    <contour>
      <point x="149" y="520"/>
      <point x="81" y="469"/>
      <point x="81" y="372" type="curve" smooth="yes"/>
      <point x="81" y="298"/>
      <point x="123" y="246"/>
      <point x="207" y="231" type="curve"/>
      <point x="220" y="227" type="line"/>
      <point x="395" y="227" type="line"/>
      <point x="395" y="254" type="line"/>
      <point x="247" y="254" type="line" smooth="yes"/>
      <point x="169" y="254"/>
      <point x="112" y="291"/>
      <point x="112" y="373" type="curve" smooth="yes"/>
      <point x="112" y="457"/>
      <point x="171" y="494"/>
      <point x="260" y="493" type="curve"/>
      <point x="388" y="493" type="line"/>
      <point x="388" y="0" type="line"/>
      <point x="418" y="0" type="line"/>
      <point x="418" y="520" type="line"/>
      <point x="261" y="520" type="line"/>
    </contour>
    <contour>
      <point x="65" y="0" type="line"/>
      <point x="98" y="0" type="line"/>
      <point x="232" y="234" type="line"/>
      <point x="202" y="240" type="line"/>
    </contour>
  </outline>
</glyph>
<glyph name="uni0454" format="1">
  <advance width="473"/>
  <unicode hex="0454"/>
  <outline>
    <contour>
      <point x="159" y="530"/>
      <point x="70" y="429"/>
      <point x="70" y="261" type="curve" smooth="yes"/>
      <point x="70" y="87"/>
      <point x="157" y="-10"/>
      <point x="282" y="-10" type="curve" smooth="yes"/>
      <point x="342" y="-10"/>
      <point x="389" y="11"/>
      <point x="428" y="41" type="curve"/>
      <point x="412" y="64" type="line"/>
      <point x="371" y="35"/>
      <point x="336" y="18"/>
      <point x="282" y="18" type="curve" smooth="yes"/>
      <point x="181" y="18"/>
      <point x="101" y="98"/>
      <point x="101" y="258" type="curve"/>
      <point x="101" y="266" type="line"/>
      <point x="104" y="422"/>
      <point x="182" y="502"/>
      <point x="286" y="502" type="curve" smooth="yes"/>
      <point x="335" y="502"/>
      <point x="370" y="487"/>
      <point x="408" y="458" type="curve"/>
      <point x="426" y="480" type="line"/>
      <point x="380" y="515"/>
      <point x="340" y="530"/>
      <point x="286" y="530" type="curve" smooth="yes"/>
    </contour>
    <contour>
      <point x="96" y="282" type="line"/>
      <point x="96" y="255" type="line"/>
      <point x="364" y="255" type="line"/>
      <point x="364" y="282" type="line"/>
    </contour>
  </outline>
</glyph>
<glyph name="uni0459" format="1">
  <advance width="766"/>
  <unicode hex="0459"/>
  <outline>
    <contour>
      <point x="400" y="510" type="line"/>
      <point x="400" y="0" type="line"/>
      <point x="537" y="0" type="line"/>
      <point x="648" y="0"/>
      <point x="726" y="54"/>
      <point x="726" y="175" type="curve" smooth="yes"/>
      <point x="726" y="276"/>
      <point x="669" y="338"/>
      <point x="531" y="338" type="curve" smooth="yes"/>
      <point x="423" y="338" type="line"/>
      <point x="423" y="310" type="line"/>
      <point x="532" y="310" type="line" smooth="yes"/>
      <point x="652" y="310"/>
      <point x="695" y="260"/>
      <point x="695" y="175" type="curve" smooth="yes"/>
      <point x="695" y="69"/>
      <point x="634" y="28"/>
      <point x="534" y="28" type="curve" smooth="yes"/>
      <point x="430" y="28" type="line"/>
      <point x="430" y="520" type="line"/>
    </contour>
    <contour>
      <point x="154" y="520" type="line"/>
      <point x="182" y="495" type="line"/>
      <point x="400" y="495" type="line"/>
      <point x="430" y="520" type="line"/>
    </contour>
    <contour>
      <point x="154" y="520" type="line"/>
      <point x="136" y="286" type="line" smooth="yes"/>
      <point x="120" y="80"/>
      <point x="115" y="41"/>
      <point x="52" y="19" type="curve"/>
      <point x="61" y="-6" type="line"/>
      <point x="146" y="23"/>
      <point x="149" y="68"/>
      <point x="166" y="284" type="curve" smooth="yes"/>
      <point x="182" y="495" type="line"/>
    </contour>
  </outline>
</glyph>
<glyph name="uni0462" format="1">
  <advance width="664"/>
  <unicode hex="0462"/>
  <outline>
    <contour>
      <point x="223" y="0" type="line"/>
      <point x="379" y="0" type="line" smooth="yes"/>
      <point x="514" y="0"/>
      <point x="609" y="64"/>
      <point x="609" y="211" type="curve" smooth="yes"/>
      <point x="609" y="343"/>
      <point x="523" y="408"/>
      <point x="379" y="408" type="curve" smooth="yes"/>
      <point x="247" y="408" type="line"/>
      <point x="247" y="379" type="line"/>
      <point x="382" y="379" type="line" smooth="yes"/>
      <point x="504" y="379"/>
      <point x="577" y="327"/>
      <point x="577" y="212" type="curve" smooth="yes"/>
      <point x="577" y="83"/>
      <point x="502" y="29"/>
      <point x="387" y="29" type="curve" smooth="yes"/>
      <point x="254" y="29" type="line"/>
      <point x="254" y="672" type="line"/>
      <point x="223" y="672" type="line"/>
    </contour>
    <contour>
      <point x="15" y="682" type="line"/>
      <point x="15" y="652" type="line"/>
      <point x="462" y="652" type="line"/>
      <point x="467" y="682" type="line"/>
    </contour>
  </outline>
</glyph>
<glyph name="uni0474" format="1">
  <advance width="535"/>
  <unicode hex="0474"/>
  <outline>
    <contour>
      <point x="477" y="657"/>
      <point x="463" y="630"/>
      <point x="447" y="579" type="curve"/>
      <point x="269" y="29" type="line"/>
      <point x="58" y="682" type="line"/>
      <point x="25" y="682" type="line"/>
      <point x="249" y="0" type="line"/>
      <point x="288" y="0" type="line"/>
      <point x="474" y="563" type="line" smooth="yes"/>
      <point x="491" y="616"/>
      <point x="511" y="654"/>
      <point x="530" y="682" type="curve"/>
      <point x="498" y="688" type="line"/>
    </contour>
  </outline>
</glyph>
<glyph name="uni0475" format="1">
  <advance width="452"/>
  <unicode hex="0475"/>
  <outline>
    <contour>
      <point x="395" y="503"/>
      <point x="382" y="473"/>
      <point x="363" y="416" type="curve" smooth="yes"/>
      <point x="230" y="25" type="line"/>
      <point x="54" y="520" type="line"/>
      <point x="20" y="520" type="line"/>
      <point x="211" y="0" type="line"/>
      <point x="247" y="0" type="line"/>
      <point x="390" y="402" type="line"/>
      <point x="410" y="458"/>
      <point x="423" y="493"/>
      <point x="445" y="519" type="curve"/>
      <point x="411" y="524" type="line"/>
    </contour>
  </outline>
</glyph>
<glyph name="uni0490" format="1">
  <advance width="508"/>
  <unicode hex="0490"/>
  <outline>
    <contour>
      <point x="498" y="682" type="line"/>
      <point x="498" y="790" type="line"/>
      <point x="468" y="790" type="line"/>
      <point x="468" y="671" type="line"/>
    </contour>
    <component base="uni0413"/>
  </outline>
</glyph>
<glyph name="uni0493" format="1">
  <advance width="420"/>
  <unicode hex="0493"/>
  <outline>
    <contour>
      <point x="117" y="298" type="line"/>
      <point x="50" y="298" type="line"/>
      <point x="50" y="271" type="line"/>
      <point x="281" y="271" type="line"/>
      <point x="281" y="298" type="line"/>
    </contour>
    <component base="uni0433" xOffset="2"/>
  </outline>
</glyph>
<glyph name="uni049D" format="1">
  <advance width="494"/>
  <unicode hex="049D"/>
  <outline>
    <contour>
      <point x="392" y="520" type="line"/>
      <point x="265" y="290" type="line"/>
      <point x="145" y="290" type="line"/>
      <point x="145" y="520" type="line"/>
      <point x="115" y="520" type="line"/>
      <point x="115" y="0" type="line"/>
      <point x="145" y="0" type="line"/>
      <point x="145" y="264" type="line"/>
      <point x="265" y="264" type="line"/>
      <point x="421" y="0" type="line"/>
      <point x="454" y="0" type="line"/>
      <point x="290" y="279" type="line"/>
      <point x="424" y="520" type="line"/>
    </contour>
    <contour>
      <point x="200" y="408" type="line"/>
      <point x="200" y="124" type="line"/>
      <point x="226" y="124" type="line"/>
      <point x="226" y="408" type="line"/>
    </contour>
  </outline>
</glyph>
<glyph name="uni04A0" format="1">
  <advance width="579"/>
  <unicode hex="04A0"/>
  <outline>
    <contour>
      <point x="0" y="682" type="line"/>
      <point x="0" y="654" type="line"/>
      <point x="171" y="654" type="line"/>
      <point x="182" y="682" type="line"/>
    </contour>
    <component base="uni041A" xOffset="41"/>
  </outline>
</glyph>
<glyph name="uni04AF" format="1">
  <advance width="452"/>
  <unicode hex="04AF"/>
  <outline>
    <contour>
      <point x="399" y="520" type="line"/>
      <point x="230" y="53" type="line"/>
      <point x="54" y="520" type="line"/>
      <point x="20" y="520" type="line"/>
      <point x="216" y="19" type="line"/>
      <point x="216" y="-199" type="line"/>
      <point x="245" y="-193" type="line"/>
      <point x="245" y="19" type="line"/>
      <point x="432" y="520" type="line"/>
    </contour>
  </outline>
</glyph>
<glyph name="uni04B0" format="1">
  <advance width="500"/>
  <unicode hex="04B0"/>
  <outline>
    <contour>
      <point x="236" y="288" type="line"/>
      <point x="114" y="288" type="line"/>
      <point x="114" y="259" type="line"/>
      <point x="267" y="259" type="line"/>
      <point x="389" y="259" type="line"/>
      <point x="389" y="288" type="line"/>
    </contour>
    <component base="Y"/>
    <contour>
      <point x="261" y="682" type="move" name="top"/>
    </contour>
  </outline>
</glyph>
<glyph name="uni04B8" format="1">
  <advance width="555"/>
  <unicode hex="04B8"/>
  <outline>
    <contour>
      <point x="240" y="517" type="line"/>
      <point x="240" y="115" type="line"/>
      <point x="270" y="115" type="line"/>
      <point x="270" y="517" type="line"/>
    </contour>
    <component base="uni0427"/>
  </outline>
</glyph>
<glyph name="uni04B9" format="1">
  <advance width="531"/>
  <unicode hex="04B9"/>
  <outline>
    <contour>
      <point x="219" y="375" type="line"/>
      <point x="219" y="96" type="line"/>
      <point x="247" y="96" type="line"/>
      <point x="247" y="375" type="line"/>
    </contour>
    <component base="uni0447"/>
  </outline>
</glyph>
<glyph name="uni04BA" format="1">
  <advance width="584"/>
  <unicode hex="04BA"/>
  <outline>
    <contour>
      <point x="256" y="424"/>
      <point x="196" y="387"/>
      <point x="145" y="327" type="curve"/>
      <point x="145" y="287" type="line"/>
      <point x="202" y="360"/>
      <point x="262" y="395"/>
      <point x="343" y="395" type="curve" smooth="yes"/>
      <point x="453" y="395"/>
      <point x="498" y="332"/>
      <point x="498" y="241" type="curve" smooth="yes"/>
      <point x="498" y="0" type="line"/>
      <point x="529" y="0" type="line"/>
      <point x="529" y="243" type="line" smooth="yes"/>
      <point x="529" y="354"/>
      <point x="468" y="424"/>
      <point x="344" y="424" type="curve" smooth="yes"/>
    </contour>
    <contour>
      <point x="120" y="682" type="line"/>
      <point x="120" y="0" type="line"/>
      <point x="151" y="0" type="line"/>
      <point x="151" y="682" type="line"/>
    </contour>
    <contour>
      <point x="539" y="0" type="move" name="bottomright"/>
    </contour>
  </outline>
</glyph>
<glyph name="uni04BB" format="1">
  <advance width="577"/>
  <unicode hex="04BB"/>
  <outline>
    <contour>
      <point x="145" y="739" type="line"/>
      <point x="115" y="734" type="line"/>
      <point x="115" y="0" type="line"/>
      <point x="145" y="0" type="line"/>
    </contour>
    <contour>
      <point x="246" y="470"/>
      <point x="183" y="420"/>
      <point x="136" y="349" type="curve"/>
      <point x="145" y="323" type="line"/>
      <point x="194" y="393"/>
      <point x="249" y="443"/>
      <point x="331" y="443" type="curve" smooth="yes"/>
      <point x="405" y="443"/>
      <point x="442" y="399"/>
      <point x="442" y="306" type="curve" smooth="yes"/>
      <point x="442" y="0" type="line"/>
      <point x="472" y="0" type="line"/>
      <point x="472" y="310" type="line" smooth="yes"/>
      <point x="472" y="412"/>
      <point x="426" y="470"/>
      <point x="332" y="470" type="curve" smooth="yes"/>
    </contour>
    <contour>
      <point x="-4" y="0" type="move" name="halftop"/>
    </contour>
    <contour>
      <point x="482" y="0" type="move" name="bottomright"/>
    </contour>
    <contour>
      <point x="-4" y="0" type="move" name="top"/>
    </contour>
  </outline>
</glyph>
<glyph name="uni04E8" format="1">
  <advance width="690"/>
  <unicode hex="04E8"/>
  <outline>
    <contour>
      <point x="186" y="692"/>
      <point x="75" y="565"/>
      <point x="75" y="337" type="curve" smooth="yes"/>
      <point x="75" y="114"/>
      <point x="185" y="-10"/>
      <point x="345" y="-10" type="curve" smooth="yes"/>
      <point x="511" y="-10"/>
      <point x="615" y="118"/>
      <point x="615" y="338" type="curve" smooth="yes"/>
      <point x="615" y="571"/>
      <point x="506" y="692"/>
      <point x="345" y="692" type="curve" smooth="yes"/>
    </contour>
    <contour>
      <point x="488" y="663"/>
      <point x="583" y="556"/>
      <point x="583" y="338" type="curve" smooth="yes"/>
      <point x="583" y="129"/>
      <point x="493" y="19"/>
      <point x="345" y="19" type="curve" smooth="yes"/>
      <point x="205" y="19"/>
      <point x="107" y="129"/>
      <point x="107" y="337" type="curve" smooth="yes"/>
      <point x="107" y="554"/>
      <point x="204" y="663"/>
      <point x="345" y="663" type="curve"/>
    </contour>
    <contour>
      <point x="98" y="363" type="line"/>
      <point x="98" y="335" type="line"/>
      <point x="603" y="335" type="line"/>
      <point x="603" y="363" type="line"/>
    </contour>
    <contour>
      <point x="345" y="682" type="move" name="top"/>
    </contour>
  </outline>
</glyph>
<glyph name="uni1DC5" format="1">
  <advance width="371"/>
  <unicode hex="1DC5"/>
  <outline>
    <contour>
      <point x="186" y="641" type="line"/>
      <point x="50" y="746" type="line"/>
      <point x="30" y="722" type="line"/>
      <point x="169" y="620" type="line"/>
    </contour>
    <contour>
      <point x="341" y="620" type="line"/>
      <point x="341" y="649" type="line"/>
      <point x="169" y="649" type="line"/>
      <point x="169" y="620" type="line"/>
    </contour>
  </outline>
</glyph>
<glyph name="figuredash" format="1">
  <advance width="560"/>
  <unicode hex="2012"/>
  <outline>
    <contour>
      <point x="518" y="320" type="line"/>
      <point x="518" y="347" type="line"/>
      <point x="42" y="347" type="line"/>
      <point x="42" y="320" type="line"/>
    </contour>
  </outline>
</glyph>
<glyph name="daggerdbl" format="1">
  <advance width="508"/>
  <unicode hex="2021"/>
  <outline>
    <contour>
      <point x="58" y="213" type="line"/>
      <point x="58" y="186" type="line"/>
      <point x="450" y="186" type="line"/>
      <point x="450" y="213" type="line"/>
    </contour>
    <component base="dagger" xOffset="2"/>
  </outline>
</glyph>
<glyph name="guilsinglright" format="1">
  <advance width="344"/>
  <unicode hex="203A"/>
  <outline>
    <contour>
      <point x="85" y="494" type="line"/>
      <point x="224" y="288" type="line"/>
      <point x="85" y="83" type="line"/>
      <point x="105" y="70" type="line"/>
      <point x="259" y="278" type="line"/>
      <point x="259" y="298" type="line"/>
      <point x="105" y="507" type="line"/>
    </contour>
  </outline>
</glyph>
<glyph name="arrowboth" format="1">
  <advance width="1280"/>
  <unicode hex="2194"/>
  <outline>
    <contour>
      <point x="858" y="578" type="line"/>
      <point x="1001" y="417" type="line" smooth="yes"/>
      <point x="1029" y="385"/>
      <point x="1058" y="359"/>
      <point x="1078" y="343" type="curve"/>
      <point x="202" y="343" type="line"/>
      <point x="222" y="359"/>
      <point x="251" y="385"/>
      <point x="279" y="417" type="curve" smooth="yes"/>
      <point x="422" y="578" type="line"/>
      <point x="400" y="598" type="line"/>
      <point x="157" y="329" type="line"/>
      <point x="400" y="60" type="line"/>
      <point x="422" y="80" type="line"/>
      <point x="279" y="241" type="line" smooth="yes"/>
      <point x="251" y="273"/>
      <point x="222" y="299"/>
      <point x="202" y="315" type="curve"/>
      <point x="1078" y="315" type="line"/>
      <point x="1058" y="299"/>
      <point x="1029" y="273"/>
      <point x="1001" y="241" type="curve" smooth="yes"/>
      <point x="858" y="80" type="line"/>
      <point x="880" y="60" type="line"/>
      <point x="1123" y="329" type="line"/>
      <point x="880" y="598" type="line"/>
    </contour>
  </outline>
</glyph>
<glyph name="arrowupdown" format="1">
  <advance width="900"/>
  <unicode hex="2195"/>
  <outline>
    <contour>
      <point x="163" y="584" type="line"/>
      <point x="184" y="563" type="line"/>
      <point x="361" y="717" type="line" smooth="yes"/>
      <point x="393" y="745"/>
      <point x="420" y="773"/>
      <point x="435" y="792" type="curve"/>
      <point x="435" y="-111" type="line"/>
      <point x="420" y="-92"/>
      <point x="393" y="-64"/>
      <point x="361" y="-36" type="curve" smooth="yes"/>
      <point x="184" y="118" type="line"/>
      <point x="163" y="97" type="line"/>
      <point x="450" y="-157" type="line"/>
      <point x="737" y="97" type="line"/>
      <point x="716" y="118" type="line"/>
      <point x="539" y="-36" type="line" smooth="yes"/>
      <point x="507" y="-64"/>
      <point x="480" y="-92"/>
      <point x="465" y="-111" type="curve"/>
      <point x="465" y="792" type="line"/>
      <point x="480" y="773"/>
      <point x="507" y="745"/>
      <point x="539" y="717" type="curve" smooth="yes"/>
      <point x="716" y="563" type="line"/>
      <point x="737" y="584" type="line"/>
      <point x="450" y="838" type="line"/>
    </contour>
  </outline>
</glyph>
<glyph name="infinity" format="1">
  <advance width="864"/>
  <unicode hex="221E"/>
  <outline>
    <contour>
      <point x="520" y="504"/>
      <point x="469" y="439"/>
      <point x="425" y="338" type="curve"/>
      <point x="379" y="229"/>
      <point x="337" y="170"/>
      <point x="242" y="170" type="curve" smooth="yes"/>
      <point x="161" y="170"/>
      <point x="106" y="225"/>
      <point x="106" y="321" type="curve" smooth="yes"/>
      <point x="106" y="421"/>
      <point x="161" y="475"/>
      <point x="242" y="475" type="curve" smooth="yes"/>
      <point x="334" y="475"/>
      <point x="389" y="403"/>
      <point x="421" y="310" type="curve"/>
      <point x="437" y="342" type="line"/>
      <point x="404" y="437"/>
      <point x="336" y="504"/>
      <point x="242" y="504" type="curve" smooth="yes"/>
      <point x="139" y="504"/>
      <point x="75" y="427"/>
      <point x="75" y="321" type="curve" smooth="yes"/>
      <point x="75" y="214"/>
      <point x="144" y="142"/>
      <point x="241" y="142" type="curve" smooth="yes"/>
      <point x="344" y="142"/>
      <point x="396" y="206"/>
      <point x="440" y="307" type="curve"/>
      <point x="486" y="417"/>
      <point x="527" y="476"/>
      <point x="622" y="476" type="curve" smooth="yes"/>
      <point x="703" y="476"/>
      <point x="758" y="421"/>
      <point x="758" y="325" type="curve" smooth="yes"/>
      <point x="758" y="225"/>
      <point x="703" y="171"/>
      <point x="622" y="171" type="curve" smooth="yes"/>
      <point x="530" y="171"/>
      <point x="475" y="243"/>
      <point x="443" y="336" type="curve"/>
      <point x="426" y="304" type="line"/>
      <point x="459" y="209"/>
      <point x="528" y="142"/>
      <point x="622" y="142" type="curve" smooth="yes"/>
      <point x="725" y="142"/>
      <point x="789" y="219"/>
      <point x="789" y="325" type="curve" smooth="yes"/>
      <point x="789" y="432"/>
      <point x="720" y="504"/>
      <point x="623" y="504" type="curve" smooth="yes"/>
    </contour>
  </outline>
</glyph>
<glyph name="notequal" format="1">
  <advance width="488"/>
  <unicode hex="2260"/>
  <outline>
    <contour>
      <point x="108" y="124" type="line"/>
      <point x="131" y="111" type="line"/>
      <point x="380" y="530" type="line"/>
      <point x="357" y="543" type="line"/>
    </contour>
    <component base="equal"/>
  </outline>
</glyph>
<glyph name="uni2B07" format="1">
  <advance width="720"/>
  <unicode hex="2B07"/>
  <outline>
    <contour>
      <point x="279" y="750" type="line" smooth="yes"/>
      <point x="249" y="750"/>
      <point x="229" y="730"/>
      <point x="229" y="700" type="curve" smooth="yes"/>
      <point x="229" y="204" type="line"/>
      <point x="60" y="204" type="line"/>
      <point x="360" y="-94" type="line"/>
      <point x="660" y="204" type="line"/>
      <point x="491" y="204" type="line"/>
      <point x="491" y="700" type="line" smooth="yes"/>
      <point x="491" y="730"/>
      <point x="471" y="750"/>
      <point x="441" y="750" type="curve"/>
    </contour>
  </outline>
</glyph>
<glyph name="uniA78B" format="1">
  <advance width="193"/>
  <unicode hex="A78B"/>
  <outline>
    <contour>
      <point x="109" y="359" type="line"/>
      <point x="113" y="682" type="line"/>
      <point x="80" y="682" type="line"/>
      <point x="84" y="359" type="line"/>
    </contour>
  </outline>
</glyph>
<glyph name="uniAB53" format="1">
  <advance width="427"/>
  <unicode hex="AB53"/>
  <outline>
    <contour>
      <point x="39" y="520" type="line"/>
      <point x="200" y="183" type="line"/>
      <point x="215" y="155" type="line"/>
      <point x="380" y="-193" type="line"/>
      <point x="412" y="-193" type="line"/>
      <point x="230" y="182" type="line"/>
      <point x="215" y="208" type="line"/>
      <point x="72" y="520" type="line"/>
    </contour>
    <contour>
      <point x="215" y="208" type="line"/>
      <point x="200" y="183" type="line"/>
      <point x="15" y="-193" type="line"/>
      <point x="46" y="-193" type="line"/>
      <point x="215" y="155" type="line"/>
      <point x="230" y="182" type="line"/>
      <point x="390" y="520" type="line"/>
      <point x="359" y="520" type="line"/>
    </contour>
  </outline>
</glyph>
<glyph name="TseHelper-cy" format="1">
  <advance width="654"/>
  <outline>
    <contour>
      <point x="534" y="682" type="line"/>
      <point x="503" y="682" type="line"/>
      <point x="503" y="29" type="line"/>
      <point x="151" y="29" type="line"/>
      <point x="151" y="682" type="line"/>
      <point x="120" y="682" type="line"/>
      <point x="120" y="0" type="line"/>
      <point x="534" y="0" type="line"/>
    </contour>
    <contour>
      <point x="327" y="0" type="move" name="bottom"/>
    </contour>
    <contour>
      <point x="544" y="0" type="move" name="bottomright"/>
    </contour>
  </outline>
</glyph>
<glyph name="a.sc" format="1">
  <advance width="492"/>
  <outline>
    <contour>
      <point x="228" y="560" type="line"/>
      <point x="25" y="0" type="line"/>
      <point x="55" y="0" type="line"/>
      <point x="246" y="534" type="line"/>
      <point x="435" y="0" type="line"/>
      <point x="467" y="0" type="line"/>
      <point x="264" y="560" type="line"/>
    </contour>
    <contour>
      <point x="112" y="189" type="line"/>
      <point x="101" y="161" type="line"/>
      <point x="388" y="161" type="line"/>
      <point x="379" y="189" type="line"/>
    </contour>
    <contour>
      <point x="477" y="0" type="move" name="ogonek"/>
    </contour>
    <contour>
      <point x="246" y="560" type="move" name="top"/>
    </contour>
    <contour>
      <point x="166" y="560" type="move" name="topleft"/>
    </contour>
  </outline>
</glyph>
<glyph name="acutecombcomb" format="1">
  <advance width="243"/>
  <outline>
    <component base="acutecomb"/>
    <contour>
      <point x="121" y="869" type="move" name="top"/>
    </contour>
    <contour>
      <point x="121" y="682" type="move" name="_top"/>
    </contour>
  </outline>
</glyph>
<glyph name="ae.sc" format="1">
  <advance width="665"/>
  <outline>
    <contour>
      <point x="237" y="560" type="line"/>
      <point x="9" y="0" type="line"/>
      <point x="39" y="0" type="line"/>
      <point x="255" y="535" type="line"/>
      <point x="404" y="0" type="line"/>
      <point x="625" y="0" type="line"/>
      <point x="625" y="28" type="line"/>
      <point x="426" y="28" type="line"/>
      <point x="286" y="532" type="line"/>
      <point x="575" y="532" type="line"/>
      <point x="579" y="560" type="line"/>
    </contour>
    <contour>
      <point x="107" y="184" type="line"/>
      <point x="95" y="156" type="line"/>
      <point x="367" y="156" type="line"/>
      <point x="360" y="184" type="line"/>
    </contour>
    <contour>
      <point x="341" y="308" type="line"/>
      <point x="348" y="281" type="line"/>
      <point x="573" y="281" type="line"/>
      <point x="573" y="308" type="line"/>
    </contour>
    <contour>
      <point x="395" y="560" type="move" name="top"/>
    </contour>
  </outline>
</glyph>
<glyph name="b.sc" format="1">
  <advance width="537"/>
  <outline>
    <contour>
      <point x="120" y="560" type="line"/>
      <point x="120" y="0" type="line"/>
      <point x="282" y="0" type="line" smooth="yes"/>
      <point x="407" y="0"/>
      <point x="477" y="58"/>
      <point x="477" y="152" type="curve" smooth="yes"/>
      <point x="477" y="249"/>
      <point x="414" y="293"/>
      <point x="343" y="297" type="curve"/>
      <point x="407" y="310"/>
      <point x="448" y="348"/>
      <point x="448" y="421" type="curve" smooth="yes"/>
      <point x="448" y="514"/>
      <point x="373" y="560"/>
      <point x="245" y="560" type="curve" smooth="yes"/>
    </contour>
    <contour>
      <point x="356" y="532"/>
      <point x="417" y="498"/>
      <point x="417" y="420" type="curve" smooth="yes"/>
      <point x="417" y="349"/>
      <point x="367" y="309"/>
      <point x="292" y="309" type="curve" smooth="yes"/>
      <point x="143" y="309" type="line"/>
      <point x="143" y="282" type="line"/>
      <point x="297" y="282" type="line" smooth="yes"/>
      <point x="384" y="282"/>
      <point x="446" y="242"/>
      <point x="446" y="152" type="curve" smooth="yes"/>
      <point x="446" y="72"/>
      <point x="386" y="28"/>
      <point x="283" y="28" type="curve" smooth="yes"/>
      <point x="150" y="28" type="line"/>
      <point x="150" y="532" type="line"/>
      <point x="249" y="532" type="line" smooth="yes"/>
    </contour>
  </outline>
</glyph>
<glyph name="breve-cy" format="1">
  <advance width="286"/>
  <outline>
    <contour>
      <point x="203" y="661"/>
      <point x="247" y="690"/>
      <point x="256" y="734" type="curve"/>
      <point x="234" y="739" type="line"/>
      <point x="222" y="706"/>
      <point x="190" y="690"/>
      <point x="143" y="690" type="curve"/>
      <point x="96" y="690"/>
      <point x="64" y="706"/>
      <point x="52" y="739" type="curve"/>
      <point x="30" y="734" type="line"/>
      <point x="39" y="690"/>
      <point x="83" y="661"/>
      <point x="143" y="661" type="curve"/>
    </contour>
    <contour>
      <point x="143" y="520" type="move" name="_top"/>
    </contour>
  </outline>
</glyph>
<glyph name="brevecombcomb" format="1">
  <advance width="266"/>
  <outline>
    <component base="uni0306"/>
    <contour>
      <point x="143" y="857" type="move" name="top"/>
    </contour>
    <contour>
      <point x="143" y="682" type="move" name="_top"/>
    </contour>
  </outline>
</glyph>
<glyph name="caron.case" format="1">
  <advance width="313"/>
  <outline>
    <contour>
      <point x="163" y="791" type="line"/>
      <point x="45" y="870" type="line"/>
      <point x="30" y="852" type="line"/>
      <point x="155" y="758" type="line"/>
      <point x="171" y="758" type="line"/>
      <point x="295" y="852" type="line"/>
      <point x="280" y="870" type="line"/>
    </contour>
    <contour>
      <point x="158" y="682" type="move" name="_top"/>
    </contour>
  </outline>
</glyph>
<glyph name="circumflex.case" format="1">
  <advance width="326"/>
  <outline>
    <contour>
      <point x="295" y="783" type="line"/>
      <point x="171" y="877" type="line"/>
      <point x="155" y="877" type="line"/>
      <point x="30" y="783" type="line"/>
      <point x="45" y="765" type="line"/>
      <point x="163" y="844" type="line"/>
      <point x="280" y="765" type="line"/>
    </contour>
    <contour>
      <point x="162" y="755" type="move" name="top"/>
    </contour>
    <contour>
      <point x="247" y="730" type="move" name="topright"/>
    </contour>
    <contour>
      <point x="77" y="730" type="move" name="topleft"/>
    </contour>
    <contour>
      <point x="163" y="682" type="move" name="_top"/>
    </contour>
  </outline>
</glyph>
<glyph name="circumflexcombcomb" format="1">
  <advance width="326"/>
  <outline>
    <component base="uni0302"/>
    <contour>
      <point x="163" y="877" type="move" name="top"/>
    </contour>
    <contour>
      <point x="163" y="682" type="move" name="_top"/>
    </contour>
  </outline>
</glyph>
<glyph name="circumflexhookabove" format="1">
  <advance width="387"/>
  <outline>
    <component base="circumflex.case" yOffset="-180"/>
    <component base="hookabovecomb" xOffset="176" yOffset="46"/>
    <contour>
      <point x="163" y="520" type="move" name="_top"/>
    </contour>
  </outline>
</glyph>
<glyph name="circumflextilde.case" format="1">
  <advance width="333"/>
  <outline>
    <component base="circumflex.case" xOffset="4" yOffset="-28"/>
    <component base="tildedbl" yOffset="207"/>
    <contour>
      <point x="167" y="682" type="move" name="_top"/>
    </contour>
  </outline>
</glyph>
<glyph name="d.sc" format="1">
  <advance width="568"/>
  <outline>
    <contour>
      <point x="120" y="560" type="line"/>
      <point x="120" y="0" type="line"/>
      <point x="237" y="0" type="line" smooth="yes"/>
      <point x="352" y="0"/>
      <point x="493" y="49"/>
      <point x="493" y="285" type="curve" smooth="yes"/>
      <point x="493" y="514"/>
      <point x="361" y="560"/>
      <point x="235" y="560" type="curve" smooth="yes"/>
    </contour>
    <contour>
      <point x="341" y="532"/>
      <point x="462" y="502"/>
      <point x="462" y="285" type="curve" smooth="yes"/>
      <point x="462" y="74"/>
      <point x="346" y="28"/>
      <point x="238" y="28" type="curve" smooth="yes"/>
      <point x="150" y="28" type="line"/>
      <point x="150" y="532" type="line"/>
      <point x="232" y="532" type="line" smooth="yes"/>
    </contour>
    <contour>
      <point x="292" y="280" type="move" name="center"/>
    </contour>
    <contour>
      <point x="275" y="560" type="move" name="top"/>
    </contour>
  </outline>
</glyph>
<glyph name="dagger.tf" format="1">
  <advance width="560"/>
  <outline>
    <contour>
      <point x="265" y="682" type="line"/>
      <point x="265" y="523" type="line"/>
      <point x="77" y="523" type="line"/>
      <point x="77" y="495" type="line"/>
      <point x="265" y="495" type="line"/>
      <point x="265" y="0" type="line"/>
      <point x="296" y="0" type="line"/>
      <point x="296" y="495" type="line"/>
      <point x="484" y="495" type="line"/>
      <point x="484" y="523" type="line"/>
      <point x="296" y="523" type="line"/>
      <point x="296" y="682" type="line"/>
    </contour>
  </outline>
</glyph>
<glyph name="daggerdbl.tf" format="1">
  <advance width="560"/>
  <outline>
    <contour>
      <point x="77" y="238" type="line"/>
      <point x="77" y="210" type="line"/>
      <point x="484" y="210" type="line"/>
      <point x="484" y="238" type="line"/>
    </contour>
    <component base="dagger.tf"/>
  </outline>
</glyph>
<glyph name="delta.sc" format="1">
  <advance width="500"/>
  <outline>
    <contour>
      <point x="435" y="27" type="line"/>
      <point x="65" y="27" type="line"/>
      <point x="251" y="535" type="line"/>
    </contour>
    <contour>
      <point x="233" y="560" type="line"/>
      <point x="25" y="0" type="line"/>
      <point x="475" y="0" type="line"/>
      <point x="269" y="560" type="line"/>
    </contour>
  </outline>
</glyph>
<glyph name="descRound-cy" format="1">
  <advance width="232"/>
  <outline>
    <contour>
      <point x="81" y="0" type="line"/>
      <point x="131" y="-31"/>
      <point x="171" y="-62"/>
      <point x="171" y="-125" type="curve" smooth="yes"/>
      <point x="171" y="-167"/>
      <point x="143" y="-191"/>
      <point x="105" y="-191" type="curve" smooth="yes"/>
      <point x="77" y="-191"/>
      <point x="59" y="-185"/>
      <point x="42" y="-176" type="curve"/>
      <point x="30" y="-201" type="line"/>
      <point x="46" y="-211"/>
      <point x="74" y="-219"/>
      <point x="102" y="-219" type="curve" smooth="yes"/>
      <point x="168" y="-219"/>
      <point x="202" y="-180"/>
      <point x="202" y="-124" type="curve" smooth="yes"/>
      <point x="202" y="-51"/>
      <point x="154" y="-15"/>
      <point x="91" y="16" type="curve"/>
    </contour>
    <contour>
      <point x="126" y="0" type="move" name="_bottom"/>
    </contour>
  </outline>
</glyph>
<glyph name="descStraight-cy.case" format="1">
  <advance width="179"/>
  <outline>
    <contour>
      <point x="16" y="29" type="line"/>
      <point x="31" y="0" type="line"/>
      <point x="61" y="0" type="line"/>
      <point x="72" y="-141" type="line"/>
      <point x="94" y="-141" type="line"/>
      <point x="94" y="29" type="line"/>
    </contour>
    <contour>
      <point x="78" y="0" type="move" name="_bottom"/>
    </contour>
    <contour>
      <point x="51" y="0" type="move" name="_bottomleft"/>
    </contour>
    <contour>
      <point x="41" y="0" type="move" name="_bottomright"/>
    </contour>
  </outline>
</glyph>
<glyph name="dieresisgravecomb" format="1">
  <advance width="253"/>
  <outline>
    <contour>
      <point x="195" y="700"/>
      <point x="185" y="689"/>
      <point x="185" y="675" type="curve" smooth="yes"/>
      <point x="185" y="661"/>
      <point x="195" y="650"/>
      <point x="211" y="650" type="curve" smooth="yes"/>
      <point x="226" y="650"/>
      <point x="236" y="661"/>
      <point x="236" y="675" type="curve" smooth="yes"/>
      <point x="236" y="689"/>
      <point x="226" y="700"/>
      <point x="211" y="700" type="curve" smooth="yes"/>
    </contour>
    <contour>
      <point x="23" y="700"/>
      <point x="13" y="689"/>
      <point x="13" y="675" type="curve" smooth="yes"/>
      <point x="13" y="661"/>
      <point x="23" y="650"/>
      <point x="38" y="650" type="curve" smooth="yes"/>
      <point x="54" y="650"/>
      <point x="64" y="661"/>
      <point x="64" y="675" type="curve" smooth="yes"/>
      <point x="64" y="689"/>
      <point x="54" y="700"/>
      <point x="38" y="700" type="curve" smooth="yes"/>
    </contour>
    <contour>
      <point x="33" y="835" type="line"/>
      <point x="215" y="751" type="line"/>
      <point x="226" y="772" type="line"/>
      <point x="47" y="867" type="line"/>
    </contour>
    <contour>
      <point x="125" y="520" type="move" name="_top"/>
    </contour>
  </outline>
</glyph>
<glyph name="e.sc" format="1">
  <advance width="450"/>
  <outline>
    <contour>
      <point x="120" y="560" type="line"/>
      <point x="120" y="0" type="line"/>
      <point x="410" y="0" type="line"/>
      <point x="410" y="28" type="line"/>
      <point x="150" y="28" type="line"/>
      <point x="150" y="281" type="line"/>
      <point x="367" y="281" type="line"/>
      <point x="367" y="308" type="line"/>
      <point x="150" y="308" type="line"/>
      <point x="150" y="532" type="line"/>
      <point x="401" y="532" type="line"/>
      <point x="405" y="560" type="line"/>
    </contour>
    <contour>
      <point x="390" y="0" type="move" name="ogonek"/>
    </contour>
    <contour>
      <point x="263" y="560" type="move" name="top"/>
    </contour>
    <contour>
      <point x="96" y="560" type="move" name="topleft"/>
    </contour>
    <contour>
      <point x="262" y="0" type="move" name="bottom"/>
    </contour>
  </outline>
</glyph>
<glyph name="eight.dnom" format="1">
  <advance width="400"/>
  <outline>
    <contour>
      <point x="138" y="419"/>
      <point x="83" y="383"/>
      <point x="83" y="317" type="curve" smooth="yes"/>
      <point x="83" y="262"/>
      <point x="114" y="241"/>
      <point x="168" y="219" type="curve"/>
      <point x="183" y="214" type="line"/>
      <point x="219" y="200" type="line" smooth="yes"/>
      <point x="279" y="177"/>
      <point x="306" y="157"/>
      <point x="306" y="106" type="curve" smooth="yes"/>
      <point x="306" y="43"/>
      <point x="257" y="19"/>
      <point x="198" y="19" type="curve" smooth="yes"/>
      <point x="139" y="19"/>
      <point x="93" y="44"/>
      <point x="93" y="103" type="curve" smooth="yes"/>
      <point x="93" y="159"/>
      <point x="121" y="192"/>
      <point x="204" y="214" type="curve"/>
      <point x="174" y="226" type="line"/>
      <point x="103" y="209"/>
      <point x="63" y="162"/>
      <point x="63" y="103" type="curve" smooth="yes"/>
      <point x="63" y="39"/>
      <point x="115" y="-7"/>
      <point x="197" y="-7" type="curve" smooth="yes"/>
      <point x="277" y="-7"/>
      <point x="336" y="34"/>
      <point x="336" y="106" type="curve" smooth="yes"/>
      <point x="336" y="168"/>
      <point x="302" y="194"/>
      <point x="229" y="221" type="curve"/>
      <point x="218" y="226" type="line"/>
      <point x="187" y="237" type="line" smooth="yes"/>
      <point x="124" y="259"/>
      <point x="112" y="280"/>
      <point x="112" y="319" type="curve" smooth="yes"/>
      <point x="112" y="368"/>
      <point x="151" y="393"/>
      <point x="200" y="393" type="curve" smooth="yes"/>
      <point x="249" y="393"/>
      <point x="287" y="368"/>
      <point x="287" y="316" type="curve" smooth="yes"/>
      <point x="287" y="277"/>
      <point x="261" y="250"/>
      <point x="202" y="225" type="curve"/>
      <point x="227" y="215" type="line"/>
      <point x="287" y="242"/>
      <point x="316" y="271"/>
      <point x="316" y="316" type="curve" smooth="yes"/>
      <point x="316" y="385"/>
      <point x="259" y="419"/>
      <point x="200" y="419" type="curve" smooth="yes"/>
    </contour>
  </outline>
</glyph>
<glyph name="eight.tosf" format="1">
  <advance width="560"/>
  <outline>
    <contour>
      <point x="186" y="674"/>
      <point x="102" y="612"/>
      <point x="102" y="513" type="curve" smooth="yes"/>
      <point x="102" y="433"/>
      <point x="143" y="395"/>
      <point x="236" y="359" type="curve"/>
      <point x="252" y="353" type="line"/>
      <point x="306" y="332" type="line" smooth="yes"/>
      <point x="405" y="292"/>
      <point x="456" y="257"/>
      <point x="456" y="168" type="curve" smooth="yes"/>
      <point x="456" y="70"/>
      <point x="380" y="19"/>
      <point x="279" y="19" type="curve" smooth="yes"/>
      <point x="176" y="19"/>
      <point x="103" y="71"/>
      <point x="103" y="167" type="curve" smooth="yes"/>
      <point x="103" y="258"/>
      <point x="150" y="314"/>
      <point x="273" y="353" type="curve"/>
      <point x="241" y="366" type="line"/>
      <point x="130" y="332"/>
      <point x="72" y="262"/>
      <point x="72" y="167" type="curve" smooth="yes"/>
      <point x="72" y="63"/>
      <point x="152" y="-10"/>
      <point x="278" y="-10" type="curve" smooth="yes"/>
      <point x="401" y="-10"/>
      <point x="487" y="59"/>
      <point x="487" y="168" type="curve" smooth="yes"/>
      <point x="487" y="263"/>
      <point x="438" y="307"/>
      <point x="326" y="351" type="curve"/>
      <point x="314" y="356" type="line"/>
      <point x="259" y="377" type="line" smooth="yes"/>
      <point x="157" y="416"/>
      <point x="133" y="450"/>
      <point x="133" y="512" type="curve" smooth="yes"/>
      <point x="133" y="596"/>
      <point x="199" y="646"/>
      <point x="280" y="646" type="curve" smooth="yes"/>
      <point x="362" y="646"/>
      <point x="427" y="598"/>
      <point x="427" y="511" type="curve" smooth="yes"/>
      <point x="427" y="443"/>
      <point x="388" y="399"/>
      <point x="298" y="355" type="curve"/>
      <point x="325" y="344" type="line"/>
      <point x="417" y="390"/>
      <point x="458" y="437"/>
      <point x="458" y="512" type="curve" smooth="yes"/>
      <point x="458" y="617"/>
      <point x="372" y="674"/>
      <point x="280" y="674" type="curve" smooth="yes"/>
    </contour>
  </outline>
</glyph>
<glyph name="eng.sc" format="1">
  <advance width="610"/>
  <outline>
    <contour>
      <point x="462" y="20" type="line"/>
      <point x="462" y="0" type="line" smooth="yes"/>
      <point x="462" y="-108"/>
      <point x="435" y="-139"/>
      <point x="363" y="-175" type="curve"/>
      <point x="372" y="-196" type="line"/>
      <point x="452" y="-156"/>
      <point x="490" y="-124"/>
      <point x="490" y="0" type="curve" smooth="yes"/>
      <point x="490" y="20" type="line"/>
    </contour>
    <component base="n.sc"/>
  </outline>
</glyph>
<glyph name="eth.sc" format="1">
  <advance width="531"/>
  <outline>
    <contour>
      <point x="256" y="279" type="line"/>
      <point x="256" y="305" type="line"/>
      <point x="83" y="305" type="line"/>
      <point x="29" y="305" type="line"/>
      <point x="29" y="279" type="line"/>
    </contour>
    <component base="d.sc" xOffset="-37"/>
  </outline>
</glyph>
<glyph name="f.sc" format="1">
  <advance width="431"/>
  <outline>
    <contour>
      <point x="120" y="560" type="line"/>
      <point x="120" y="0" type="line"/>
      <point x="150" y="0" type="line"/>
      <point x="150" y="269" type="line"/>
      <point x="364" y="269" type="line"/>
      <point x="364" y="296" type="line"/>
      <point x="150" y="296" type="line"/>
      <point x="150" y="532" type="line"/>
      <point x="398" y="532" type="line"/>
      <point x="401" y="560" type="line"/>
    </contour>
  </outline>
</glyph>
<glyph name="five.dnom" format="1">
  <advance width="400"/>
  <outline>
    <contour>
      <point x="103" y="411" type="line"/>
      <point x="103" y="214" type="line"/>
      <point x="125" y="214" type="line"/>
      <point x="153" y="229"/>
      <point x="171" y="235"/>
      <point x="203" y="235" type="curve" smooth="yes"/>
      <point x="256" y="235"/>
      <point x="297" y="204"/>
      <point x="297" y="133" type="curve" smooth="yes"/>
      <point x="297" y="63"/>
      <point x="255" y="20"/>
      <point x="195" y="20" type="curve" smooth="yes"/>
      <point x="147" y="20"/>
      <point x="121" y="33"/>
      <point x="92" y="60" type="curve"/>
      <point x="71" y="42" type="line"/>
      <point x="104" y="11"/>
      <point x="140" y="-7"/>
      <point x="194" y="-7" type="curve" smooth="yes"/>
      <point x="275" y="-7"/>
      <point x="328" y="52"/>
      <point x="328" y="133" type="curve" smooth="yes"/>
      <point x="328" y="213"/>
      <point x="280" y="262"/>
      <point x="204" y="262" type="curve" smooth="yes"/>
      <point x="171" y="262"/>
      <point x="147" y="251"/>
      <point x="132" y="242" type="curve"/>
      <point x="132" y="384" type="line"/>
      <point x="309" y="384" type="line"/>
      <point x="315" y="411" type="line"/>
    </contour>
  </outline>
</glyph>
<glyph name="four.tf" format="1">
  <advance width="560"/>
  <outline>
    <contour>
      <point x="71" y="208" type="line"/>
      <point x="71" y="183" type="line"/>
      <point x="488" y="183" type="line"/>
      <point x="488" y="211" type="line"/>
      <point x="103" y="211" type="line"/>
      <point x="301" y="681" type="line"/>
      <point x="275" y="692" type="line"/>
    </contour>
    <contour>
      <point x="370" y="423" type="line"/>
      <point x="366" y="204" type="line"/>
      <point x="366" y="0" type="line"/>
      <point x="396" y="0" type="line"/>
      <point x="396" y="423" type="line"/>
    </contour>
  </outline>
</glyph>
<glyph name="g.sc" format="1">
  <advance width="549"/>
  <outline>
    <contour>
      <point x="197" y="568"/>
      <point x="75" y="478"/>
      <point x="75" y="283" type="curve" smooth="yes"/>
      <point x="75" y="89"/>
      <point x="175" y="-8"/>
      <point x="317" y="-8" type="curve" smooth="yes"/>
      <point x="371" y="-8"/>
      <point x="428" y="5"/>
      <point x="479" y="35" type="curve"/>
      <point x="479" y="297" type="line"/>
      <point x="322" y="297" type="line"/>
      <point x="326" y="269" type="line"/>
      <point x="449" y="269" type="line"/>
      <point x="449" y="50" type="line"/>
      <point x="409" y="30"/>
      <point x="373" y="20"/>
      <point x="317" y="20" type="curve" smooth="yes"/>
      <point x="192" y="20"/>
      <point x="106" y="104"/>
      <point x="106" y="283" type="curve" smooth="yes"/>
      <point x="106" y="470"/>
      <point x="214" y="540"/>
      <point x="312" y="540" type="curve" smooth="yes"/>
      <point x="368" y="540"/>
      <point x="406" y="527"/>
      <point x="447" y="497" type="curve"/>
      <point x="466" y="517" type="line"/>
      <point x="420" y="551"/>
      <point x="378" y="568"/>
      <point x="312" y="568" type="curve" smooth="yes"/>
    </contour>
    <contour>
      <point x="314" y="560" type="move" name="top"/>
    </contour>
    <contour>
      <point x="302" y="0" type="move" name="bottom"/>
    </contour>
  </outline>
</glyph>
<glyph name="h.sc" format="1">
  <advance width="608"/>
  <outline>
    <contour>
      <point x="458" y="560" type="line"/>
      <point x="458" y="309" type="line"/>
      <point x="150" y="309" type="line"/>
      <point x="150" y="560" type="line"/>
      <point x="120" y="560" type="line"/>
      <point x="120" y="0" type="line"/>
      <point x="150" y="0" type="line"/>
      <point x="150" y="281" type="line"/>
      <point x="458" y="281" type="line"/>
      <point x="458" y="0" type="line"/>
      <point x="488" y="0" type="line"/>
      <point x="488" y="560" type="line"/>
    </contour>
    <contour>
      <point x="302" y="560" type="move" name="top"/>
    </contour>
    <contour>
      <point x="96" y="560" type="move" name="topleft"/>
    </contour>
    <contour>
      <point x="496" y="0" type="move" name="bottomright"/>
    </contour>
    <contour>
      <point x="302" y="280" type="move" name="center"/>
    </contour>
  </outline>
</glyph>
<glyph name="hbar.sc" format="1">
  <advance width="584"/>
  <outline>
    <contour>
      <point x="471" y="451" type="line"/>
      <point x="55" y="451" type="line"/>
      <point x="55" y="427" type="line"/>
      <point x="113" y="427" type="line"/>
      <point x="529" y="427" type="line"/>
      <point x="529" y="451" type="line"/>
    </contour>
    <component base="h.sc" xOffset="-7"/>
  </outline>
</glyph>
<glyph name="hungarumlautcombcomb" format="1">
  <advance width="268"/>
  <outline>
    <component base="uni030B"/>
    <contour>
      <point x="104" y="920" type="move" name="top"/>
    </contour>
    <contour>
      <point x="104" y="682" type="move" name="_top"/>
    </contour>
  </outline>
</glyph>
<glyph name="j.sc" format="1">
  <advance width="262"/>
  <outline>
    <contour>
      <point x="118" y="560" type="line"/>
      <point x="118" y="75" type="line" smooth="yes"/>
      <point x="118" y="-2"/>
      <point x="98" y="-28"/>
      <point x="20" y="-65" type="curve"/>
      <point x="29" y="-87" type="line"/>
      <point x="127" y="-45"/>
      <point x="148" y="-14"/>
      <point x="148" y="73" type="curve" smooth="yes"/>
      <point x="148" y="560" type="line"/>
    </contour>
  </outline>
</glyph>
<glyph name="jcrossedtaildotless" format="1">
  <advance width="272"/>
  <outline>
    <contour>
      <point x="116" y="-211"/>
      <point x="157" y="-153"/>
      <point x="157" y="-38" type="curve" smooth="yes"/>
      <point x="157" y="520" type="line"/>
      <point x="127" y="520" type="line"/>
      <point x="127" y="-34" type="line" smooth="yes"/>
      <point x="127" y="-144"/>
      <point x="93" y="-184"/>
      <point x="25" y="-184" type="curve" smooth="yes"/>
      <point x="-23" y="-184"/>
      <point x="-50" y="-158"/>
      <point x="-50" y="-117" type="curve" smooth="yes"/>
      <point x="-50" y="-68"/>
      <point x="-17" y="-38"/>
      <point x="51" y="-38" type="curve" smooth="yes"/>
      <point x="84" y="-38"/>
      <point x="102" y="-40"/>
      <point x="135" y="-46" type="curve"/>
      <point x="132" y="-19" type="line"/>
      <point x="110" y="-15"/>
      <point x="84" y="-11"/>
      <point x="51" y="-11" type="curve" smooth="yes"/>
      <point x="-27" y="-11"/>
      <point x="-80" y="-50"/>
      <point x="-80" y="-118" type="curve" smooth="yes"/>
      <point x="-80" y="-172"/>
      <point x="-40" y="-211"/>
      <point x="25" y="-211" type="curve" smooth="yes"/>
    </contour>
    <contour>
      <point x="257" y="-61" type="line"/>
      <point x="222" y="-44"/>
      <point x="190" y="-33"/>
      <point x="150" y="-22" type="curve"/>
      <point x="151" y="-49" type="line"/>
      <point x="181" y="-57"/>
      <point x="220" y="-71"/>
      <point x="246" y="-83" type="curve"/>
    </contour>
    <contour>
      <point x="142" y="520" type="move" name="top"/>
    </contour>
  </outline>
</glyph>
<glyph name="k.sc" format="1">
  <advance width="464"/>
  <outline>
    <contour>
      <point x="415" y="560" type="line"/>
      <point x="152" y="301" type="line"/>
      <point x="427" y="0" type="line"/>
      <point x="464" y="0" type="line"/>
      <point x="191" y="301" type="line"/>
      <point x="450" y="560" type="line"/>
    </contour>
    <contour>
      <point x="120" y="560" type="line"/>
      <point x="120" y="0" type="line"/>
      <point x="150" y="0" type="line"/>
      <point x="150" y="560" type="line"/>
    </contour>
    <contour>
      <point x="269" y="560" type="move" name="top"/>
    </contour>
    <contour>
      <point x="279" y="0" type="move" name="bottom"/>
    </contour>
  </outline>
</glyph>
<glyph name="l.sc" format="1">
  <advance width="415"/>
  <outline>
    <contour>
      <point x="120" y="560" type="line"/>
      <point x="120" y="0" type="line"/>
      <point x="394" y="0" type="line"/>
      <point x="400" y="29" type="line"/>
      <point x="150" y="29" type="line"/>
      <point x="150" y="560" type="line"/>
    </contour>
    <contour>
      <point x="135" y="560" type="move" name="top"/>
    </contour>
    <contour>
      <point x="261" y="0" type="move" name="bottom"/>
    </contour>
    <contour>
      <point x="183" y="560" type="move" name="topright"/>
    </contour>
  </outline>
</glyph>
<glyph name="lambda.sc" format="1">
  <advance width="507"/>
  <outline>
    <contour>
      <point x="244" y="560" type="line"/>
      <point x="40" y="0" type="line"/>
      <point x="70" y="0" type="line"/>
      <point x="262" y="535" type="line"/>
      <point x="450" y="0" type="line"/>
      <point x="482" y="0" type="line"/>
      <point x="280" y="560" type="line"/>
    </contour>
  </outline>
</glyph>
<glyph name="lozenge.tf" format="1">
  <advance width="560"/>
  <outline>
    <contour>
      <point x="264" y="682" type="line"/>
      <point x="73" y="343" type="line"/>
      <point x="264" y="0" type="line"/>
      <point x="296" y="0" type="line"/>
      <point x="487" y="343" type="line"/>
      <point x="296" y="682" type="line"/>
    </contour>
    <contour>
      <point x="454" y="343" type="line"/>
      <point x="280" y="26" type="line"/>
      <point x="106" y="343" type="line"/>
      <point x="280" y="655" type="line"/>
    </contour>
  </outline>
</glyph>
<glyph name="m.sc" format="1">
  <advance width="684"/>
  <outline>
    <contour>
      <point x="507" y="560" type="line"/>
      <point x="342" y="103" type="line"/>
      <point x="177" y="560" type="line"/>
      <point x="136" y="560" type="line"/>
      <point x="75" y="0" type="line"/>
      <point x="104" y="0" type="line"/>
      <point x="133" y="286" type="line"/>
      <point x="142" y="374"/>
      <point x="155" y="484"/>
      <point x="159" y="532" type="curve"/>
      <point x="326" y="68" type="line"/>
      <point x="356" y="68" type="line"/>
      <point x="524" y="530" type="line"/>
      <point x="529" y="452"/>
      <point x="533" y="408"/>
      <point x="548" y="279" type="curve" smooth="yes"/>
      <point x="580" y="0" type="line"/>
      <point x="609" y="0" type="line"/>
      <point x="547" y="560" type="line"/>
    </contour>
  </outline>
</glyph>
<glyph name="macronacutesingle.case" format="1">
  <advance width="274"/>
  <outline>
    <component base="macron" yOffset="82"/>
    <component base="acute.case" xOffset="16" yOffset="82"/>
    <contour>
      <point x="137" y="682" type="move" name="_top"/>
    </contour>
  </outline>
</glyph>
<glyph name="o.sc" format="1">
  <advance width="620"/>
  <outline>
    <contour>
      <point x="172" y="568"/>
      <point x="75" y="465"/>
      <point x="75" y="278" type="curve" smooth="yes"/>
      <point x="75" y="93"/>
      <point x="171" y="-8"/>
      <point x="309" y="-8" type="curve" smooth="yes"/>
      <point x="453" y="-8"/>
      <point x="545" y="96"/>
      <point x="545" y="279" type="curve" smooth="yes"/>
      <point x="545" y="469"/>
      <point x="450" y="568"/>
      <point x="309" y="568" type="curve" smooth="yes"/>
    </contour>
    <contour>
      <point x="432" y="540"/>
      <point x="514" y="455"/>
      <point x="514" y="279" type="curve" smooth="yes"/>
      <point x="514" y="107"/>
      <point x="435" y="20"/>
      <point x="309" y="20" type="curve" smooth="yes"/>
      <point x="190" y="20"/>
      <point x="106" y="107"/>
      <point x="106" y="278" type="curve" smooth="yes"/>
      <point x="106" y="454"/>
      <point x="190" y="540"/>
      <point x="309" y="540" type="curve"/>
    </contour>
    <contour>
      <point x="310" y="560" type="move" name="top"/>
    </contour>
  </outline>
</glyph>
<glyph name="omega.sc" format="1">
  <advance width="620"/>
  <outline>
    <contour>
      <point x="172" y="568"/>
      <point x="75" y="465"/>
      <point x="75" y="278" type="curve" smooth="yes"/>
      <point x="75" y="148"/>
      <point x="119" y="73"/>
      <point x="205" y="30" type="curve"/>
      <point x="205" y="29" type="line"/>
      <point x="94" y="29" type="line"/>
      <point x="94" y="0" type="line"/>
      <point x="257" y="0" type="line"/>
      <point x="257" y="28" type="line"/>
      <point x="159" y="68"/>
      <point x="106" y="144"/>
      <point x="106" y="278" type="curve" smooth="yes"/>
      <point x="106" y="454"/>
      <point x="190" y="540"/>
      <point x="309" y="540" type="curve" smooth="yes"/>
      <point x="432" y="540"/>
      <point x="514" y="455"/>
      <point x="514" y="279" type="curve" smooth="yes"/>
      <point x="514" y="139"/>
      <point x="460" y="62"/>
      <point x="363" y="28" type="curve"/>
      <point x="363" y="0" type="line"/>
      <point x="526" y="0" type="line"/>
      <point x="526" y="29" type="line"/>
      <point x="416" y="29" type="line"/>
      <point x="416" y="30" type="line"/>
      <point x="493" y="64"/>
      <point x="545" y="140"/>
      <point x="545" y="279" type="curve" smooth="yes"/>
      <point x="545" y="469"/>
      <point x="450" y="568"/>
      <point x="309" y="568" type="curve" smooth="yes"/>
    </contour>
    <contour>
      <point x="309" y="560" type="move" name="top"/>
    </contour>
  </outline>
</glyph>
<glyph name="one.tf" format="1">
  <advance width="560"/>
  <outline>
    <contour>
      <point x="302" y="682" type="line"/>
      <point x="110" y="562" type="line"/>
      <point x="125" y="538" type="line"/>
      <point x="296" y="646" type="line"/>
      <point x="296" y="20" type="line"/>
      <point x="326" y="20" type="line"/>
      <point x="326" y="682" type="line"/>
    </contour>
    <contour>
      <point x="131" y="30" type="line"/>
      <point x="131" y="0" type="line"/>
      <point x="483" y="0" type="line"/>
      <point x="483" y="30" type="line"/>
    </contour>
  </outline>
</glyph>
<glyph name="one.tosf" format="1">
  <advance width="560"/>
  <outline>
    <contour>
      <point x="304" y="560" type="line"/>
      <point x="102" y="440" type="line"/>
      <point x="117" y="416" type="line"/>
      <point x="298" y="524" type="line"/>
      <point x="298" y="10" type="line"/>
      <point x="328" y="10" type="line"/>
      <point x="328" y="560" type="line"/>
    </contour>
    <contour>
      <point x="122" y="29" type="line"/>
      <point x="122" y="0" type="line"/>
      <point x="483" y="0" type="line"/>
      <point x="483" y="29" type="line"/>
    </contour>
  </outline>
</glyph>
<glyph name="p.sc" format="1">
  <advance width="512"/>
  <outline>
    <contour>
      <point x="120" y="560" type="line"/>
      <point x="120" y="0" type="line"/>
      <point x="150" y="0" type="line"/>
      <point x="150" y="532" type="line"/>
      <point x="247" y="532" type="line" smooth="yes"/>
      <point x="361" y="532"/>
      <point x="426" y="498"/>
      <point x="426" y="395" type="curve" smooth="yes"/>
      <point x="426" y="286"/>
      <point x="350" y="254"/>
      <point x="245" y="254" type="curve" smooth="yes"/>
      <point x="143" y="254" type="line"/>
      <point x="143" y="226" type="line"/>
      <point x="242" y="226" type="line" smooth="yes"/>
      <point x="368" y="226"/>
      <point x="457" y="271"/>
      <point x="457" y="396" type="curve" smooth="yes"/>
      <point x="457" y="511"/>
      <point x="380" y="560"/>
      <point x="247" y="560" type="curve" smooth="yes"/>
    </contour>
  </outline>
</glyph>
<glyph name="parenright.dnom" format="1">
  <advance width="402"/>
  <outline>
    <contour>
      <point x="135" y="488" type="line"/>
      <point x="188" y="407"/>
      <point x="234" y="337"/>
      <point x="234" y="194" type="curve"/>
      <point x="234" y="51"/>
      <point x="188" y="-19"/>
      <point x="135" y="-100" type="curve"/>
      <point x="156" y="-114" type="line"/>
      <point x="214" y="-31"/>
      <point x="267" y="43"/>
      <point x="267" y="194" type="curve"/>
      <point x="267" y="345"/>
      <point x="214" y="419"/>
      <point x="156" y="502" type="curve"/>
    </contour>
  </outline>
</glyph>
<glyph name="percent.tf" format="1">
  <advance width="900"/>
  <outline>
    <contour>
      <point x="211" y="-2" type="line"/>
      <point x="236" y="-18" type="line"/>
      <point x="700" y="701" type="line"/>
      <point x="675" y="717" type="line"/>
    </contour>
    <contour>
      <point x="342" y="666"/>
      <point x="374" y="606"/>
      <point x="374" y="536" type="curve" smooth="yes"/>
      <point x="374" y="463"/>
      <point x="342" y="403"/>
      <point x="266" y="403" type="curve"/>
      <point x="190" y="403"/>
      <point x="158" y="463"/>
      <point x="158" y="533" type="curve" smooth="yes"/>
      <point x="158" y="606"/>
      <point x="190" y="666"/>
      <point x="266" y="666" type="curve"/>
    </contour>
    <contour>
      <point x="179" y="692"/>
      <point x="127" y="629"/>
      <point x="127" y="533" type="curve" smooth="yes"/>
      <point x="127" y="438"/>
      <point x="183" y="377"/>
      <point x="266" y="377" type="curve"/>
      <point x="353" y="377"/>
      <point x="405" y="440"/>
      <point x="405" y="536" type="curve" smooth="yes"/>
      <point x="405" y="631"/>
      <point x="349" y="692"/>
      <point x="266" y="692" type="curve"/>
    </contour>
    <contour>
      <point x="710" y="279"/>
      <point x="742" y="219"/>
      <point x="742" y="149" type="curve" smooth="yes"/>
      <point x="742" y="76"/>
      <point x="710" y="16"/>
      <point x="634" y="16" type="curve"/>
      <point x="558" y="16"/>
      <point x="526" y="76"/>
      <point x="526" y="146" type="curve" smooth="yes"/>
      <point x="526" y="219"/>
      <point x="558" y="279"/>
      <point x="634" y="279" type="curve"/>
    </contour>
    <contour>
      <point x="547" y="305"/>
      <point x="495" y="242"/>
      <point x="495" y="146" type="curve" smooth="yes"/>
      <point x="495" y="51"/>
      <point x="551" y="-10"/>
      <point x="634" y="-10" type="curve"/>
      <point x="721" y="-10"/>
      <point x="773" y="53"/>
      <point x="773" y="149" type="curve" smooth="yes"/>
      <point x="773" y="244"/>
      <point x="717" y="305"/>
      <point x="634" y="305" type="curve"/>
    </contour>
  </outline>
</glyph>
<glyph name="plus.dnom" format="1">
  <advance width="400"/>
  <outline>
    <contour>
      <point x="186" y="310" type="line"/>
      <point x="186" y="215" type="line"/>
      <point x="87" y="215" type="line"/>
      <point x="87" y="190" type="line"/>
      <point x="186" y="190" type="line"/>
      <point x="186" y="95" type="line"/>
      <point x="214" y="95" type="line"/>
      <point x="214" y="190" type="line"/>
      <point x="313" y="190" type="line"/>
      <point x="313" y="215" type="line"/>
      <point x="214" y="215" type="line"/>
      <point x="214" y="310" type="line"/>
    </contour>
  </outline>
</glyph>
<glyph name="product.tf" format="1">
  <advance width="560"/>
  <outline>
    <contour>
      <point x="63" y="682" type="line"/>
      <point x="63" y="654" type="line"/>
      <point x="141" y="654" type="line"/>
      <point x="141" y="-199" type="line"/>
      <point x="171" y="-195" type="line"/>
      <point x="171" y="654" type="line"/>
      <point x="389" y="654" type="line"/>
      <point x="389" y="-199" type="line"/>
      <point x="419" y="-195" type="line"/>
      <point x="419" y="654" type="line"/>
      <point x="497" y="654" type="line"/>
      <point x="497" y="682" type="line"/>
    </contour>
  </outline>
</glyph>
<glyph name="psi.sc" format="1">
  <advance width="579"/>
  <outline>
    <contour>
      <point x="283" y="196" type="line"/>
      <point x="146" y="198"/>
      <point x="75" y="251"/>
      <point x="75" y="352" type="curve" smooth="yes"/>
      <point x="75" y="560" type="line"/>
      <point x="45" y="560" type="line"/>
      <point x="45" y="349" type="line" smooth="yes"/>
      <point x="45" y="233"/>
      <point x="129" y="170"/>
      <point x="283" y="168" type="curve"/>
    </contour>
    <contour>
      <point x="296" y="168" type="line"/>
      <point x="451" y="170"/>
      <point x="534" y="233"/>
      <point x="534" y="349" type="curve" smooth="yes"/>
      <point x="534" y="560" type="line"/>
      <point x="504" y="560" type="line"/>
      <point x="504" y="352" type="line" smooth="yes"/>
      <point x="504" y="251"/>
      <point x="434" y="198"/>
      <point x="296" y="196" type="curve"/>
    </contour>
    <contour>
      <point x="305" y="189" type="line"/>
      <point x="305" y="560" type="line"/>
      <point x="275" y="560" type="line"/>
      <point x="275" y="189" type="line"/>
      <point x="275" y="175" type="line"/>
      <point x="275" y="0" type="line"/>
      <point x="305" y="0" type="line"/>
      <point x="305" y="175" type="line"/>
    </contour>
  </outline>
</glyph>
<glyph name="r.sc" format="1">
  <advance width="525"/>
  <outline>
    <contour>
      <point x="120" y="560" type="line"/>
      <point x="120" y="0" type="line"/>
      <point x="150" y="0" type="line"/>
      <point x="150" y="532" type="line"/>
      <point x="251" y="532" type="line" smooth="yes"/>
      <point x="377" y="532"/>
      <point x="423" y="489"/>
      <point x="423" y="412" type="curve" smooth="yes"/>
      <point x="423" y="328"/>
      <point x="365" y="288"/>
      <point x="256" y="288" type="curve" smooth="yes"/>
      <point x="143" y="288" type="line"/>
      <point x="143" y="260" type="line"/>
      <point x="292" y="260" type="line"/>
      <point x="390" y="276"/>
      <point x="454" y="316"/>
      <point x="454" y="412" type="curve" smooth="yes"/>
      <point x="454" y="508"/>
      <point x="392" y="560"/>
      <point x="255" y="560" type="curve" smooth="yes"/>
    </contour>
    <contour>
      <point x="285" y="267" type="line"/>
      <point x="447" y="0" type="line"/>
      <point x="485" y="0" type="line"/>
      <point x="318" y="272" type="line"/>
    </contour>
    <contour>
      <point x="279" y="560" type="move" name="top"/>
    </contour>
    <contour>
      <point x="281" y="0" type="move" name="bottom"/>
    </contour>
  </outline>
</glyph>
<glyph name="ring.sc" format="1">
  <advance width="232"/>
  <outline>
    <component base="ring" yOffset="30"/>
    <contour>
      <point x="116" y="560" type="move" name="_top"/>
    </contour>
  </outline>
</glyph>
<glyph name="sigma.sc" format="1">
  <advance width="437"/>
  <outline>
    <contour>
      <point x="50" y="560" type="line"/>
      <point x="50" y="544" type="line"/>
      <point x="255" y="278" type="line"/>
      <point x="50" y="15" type="line"/>
      <point x="50" y="0" type="line"/>
      <point x="387" y="0" type="line"/>
      <point x="387" y="28" type="line"/>
      <point x="95" y="28" type="line"/>
      <point x="287" y="272" type="line"/>
      <point x="287" y="284" type="line"/>
      <point x="95" y="532" type="line"/>
      <point x="387" y="532" type="line"/>
      <point x="387" y="560" type="line"/>
    </contour>
  </outline>
</glyph>
<glyph name="six.tosf" format="1">
  <advance width="560"/>
  <outline>
    <contour>
      <point x="175" y="674"/>
      <point x="87" y="531"/>
      <point x="87" y="289" type="curve" smooth="yes"/>
      <point x="87" y="127"/>
      <point x="139" y="-10"/>
      <point x="292" y="-10" type="curve" smooth="yes"/>
      <point x="411" y="-10"/>
      <point x="487" y="75"/>
      <point x="487" y="222" type="curve" smooth="yes"/>
      <point x="487" y="363"/>
      <point x="410" y="428"/>
      <point x="304" y="428" type="curve"/>
      <point x="214" y="428"/>
      <point x="155" y="377"/>
      <point x="115" y="312" type="curve"/>
      <point x="114" y="266" type="line"/>
      <point x="155" y="346"/>
      <point x="218" y="400"/>
      <point x="303" y="400" type="curve"/>
      <point x="395" y="400"/>
      <point x="456" y="344"/>
      <point x="456" y="221" type="curve" smooth="yes"/>
      <point x="456" y="105"/>
      <point x="404" y="18"/>
      <point x="292" y="18" type="curve" smooth="yes"/>
      <point x="162" y="18"/>
      <point x="118" y="134"/>
      <point x="118" y="293" type="curve"/>
      <point x="118" y="308" type="line"/>
      <point x="120" y="500"/>
      <point x="189" y="646"/>
      <point x="323" y="646" type="curve"/>
      <point x="369" y="646"/>
      <point x="397" y="635"/>
      <point x="432" y="612" type="curve"/>
      <point x="447" y="636" type="line"/>
      <point x="412" y="659"/>
      <point x="379" y="674"/>
      <point x="324" y="674" type="curve"/>
    </contour>
  </outline>
</glyph>
<glyph name="sterling.tosf" format="1">
  <advance width="560"/>
  <outline>
    <contour>
      <point x="226" y="674"/>
      <point x="174" y="598"/>
      <point x="174" y="505" type="curve"/>
      <point x="174" y="142" type="line"/>
      <point x="174" y="81"/>
      <point x="149" y="58"/>
      <point x="90" y="28" type="curve"/>
      <point x="90" y="0" type="line"/>
      <point x="454" y="0" type="line"/>
      <point x="458" y="29" type="line"/>
      <point x="133" y="29" type="line"/>
      <point x="181" y="53"/>
      <point x="204" y="77"/>
      <point x="204" y="144" type="curve"/>
      <point x="204" y="504" type="line"/>
      <point x="204" y="585"/>
      <point x="246" y="646"/>
      <point x="327" y="646" type="curve" smooth="yes"/>
      <point x="385" y="646"/>
      <point x="415" y="627"/>
      <point x="449" y="588" type="curve"/>
      <point x="470" y="607" type="line"/>
      <point x="430" y="653"/>
      <point x="391" y="674"/>
      <point x="327" y="674" type="curve" smooth="yes"/>
    </contour>
    <contour>
      <point x="109" y="367" type="line"/>
      <point x="109" y="339" type="line"/>
      <point x="413" y="339" type="line"/>
      <point x="413" y="367" type="line"/>
    </contour>
  </outline>
</glyph>
<glyph name="tcedilla.sc" format="1">
  <advance width="418"/>
  <outline>
    <component base="t.sc"/>
    <component base="cedillaTcedilla" xOffset="124"/>
    <contour>
      <point x="222" y="280" type="move" name="center"/>
    </contour>
    <contour>
      <point x="222" y="560" type="move" name="top"/>
    </contour>
  </outline>
</glyph>
